<svg xmlns="http://www.w3.org/2000/svg" id="prefix___1-Section" width="79.971" height="170" data-name="1-Section" viewBox="0 0 79.971 170">
    <path id="prefix__Path_1276" fill="#fff" d="M314.427 5616.619a5.292 5.292 0 0 1-6.134-6.129v-128.056l-33.606 11.04a25.421 25.421 0 0 1-6.623 1.717q-3.439 0-3.436-4.662v-16.19a9.661 9.661 0 0 1 1.105-5.151 9.927 9.927 0 0 1 4.292-3.194l37.043-16.919a25.326 25.326 0 0 1 11.04-2.456h20.36q3.432 0 4.784 1.348t1.347 4.781v157.742a6.784 6.784 0 0 1-1.347 4.662q-1.352 1.467-4.784 1.467z" data-name="Path 1276" transform="translate(-264.628 -5446.619)"/>
</svg>
