<svg xmlns="http://www.w3.org/2000/svg" id="_2-Section" width="95.789" height="140.518" data-name="2-Section" viewBox="0 0 95.789 140.518">
    <path id="Path_2571" fill="#fff" d="M1653.92 7504.129a4.269 4.269 0 0 1-4.946-4.944v-11.879a10.935 10.935 0 0 1 .692-4.453 14.327 14.327 0 0 1 2.869-3.664q21.571-21.768 33.744-35.522t17.516-22.96q5.341-9.2 5.343-16.919 0-7.514-4.552-11.774t-12.271-4.26q-14.646 0-31.864 10.687a9.257 9.257 0 0 1-4.749 1.788q-3.168 0-3.167-4.558v-11.677a8.855 8.855 0 0 1 1.089-4.945q1.085-1.582 5.245-4.357 16.425-11.076 38.791-11.081 18.8 0 30.181 10.493t11.379 27.7q0 9.9-5.343 20.584t-17.713 24.739q-12.372 14.06-34.338 34.04h57.988q2.769 0 3.86 1.087c.724.733 1.089 2.013 1.089 3.865v13.063a5.464 5.464 0 0 1-1.089 3.76q-1.09 1.184-3.86 1.184z" data-name="Path 2571" transform="translate(-1648.974 -7363.611)"/>
</svg>
