<svg xmlns="http://www.w3.org/2000/svg" viewBox="0 0 798 504.62"><defs><style>.cls-1,.cls-2,.cls-6{fill:none;}.cls-1,.cls-6{stroke:#a166ff;}.cls-1,.cls-2,.cls-5{stroke-linejoin:round;}.cls-1,.cls-2,.cls-5,.cls-6{stroke-width:2px;}.cls-2,.cls-5{stroke:#879196;}.cls-3{fill:#c5a1ff;}.cls-4,.cls-5{fill:#fff;}.cls-6{stroke-miterlimit:10;stroke-dasharray:4 6;}</style></defs><g id="Layer_2" data-name="Layer 2"><g id="_01" data-name="01"><line class="cls-1" x1="292.5" y1="101.56" x2="437.78" y2="101.56"/><line class="cls-1" x1="457.49" y1="101.56" x2="529.83" y2="101.56"/><line class="cls-1" x1="254.19" y1="57.17" x2="399.48" y2="57.17"/><line class="cls-1" x1="408.88" y1="57.17" x2="481.21" y2="57.17"/><line class="cls-1" x1="280.71" y1="145.26" x2="353.05" y2="145.26"/><line class="cls-1" x1="361.73" y1="145.26" x2="434.07" y2="145.26"/><line class="cls-1" x1="269.68" y1="123.41" x2="444.26" y2="123.41"/><line class="cls-1" x1="453.21" y1="123.41" x2="540.14" y2="123.41"/><line class="cls-1" x1="404.6" y1="13.47" x2="491.53" y2="13.47"/><line class="cls-1" x1="329.47" y1="35.32" x2="416.39" y2="35.32"/><line class="cls-1" x1="425.22" y1="35.32" x2="440.57" y2="35.32"/><line class="cls-1" x1="280.71" y1="79.03" x2="353.05" y2="79.03"/><line class="cls-1" x1="364.82" y1="79.03" x2="451.75" y2="79.03"/><line class="cls-1" x1="460.58" y1="79.03" x2="475.92" y2="79.03"/><path class="cls-2" d="M303.74,60.18a120.91,120.91,0,0,0-44,31.68"/><path class="cls-2" d="M460.07,121.66A120.7,120.7,0,0,0,314.73,56.19"/><path class="cls-2" d="M602.15,322.62h64.93a52.43,52.43,0,0,0,0-104.85h0a52.24,52.24,0,0,0-36.78,15.07"/><line class="cls-2" x1="150.6" y1="322.62" x2="269.58" y2="322.62"/><line class="cls-2" x1="540.6" y1="322.62" x2="659.58" y2="322.62"/><path class="cls-2" d="M139.47,322.62a59.43,59.43,0,1,1,15.86-116.71"/><path class="cls-2" d="M252.59,100.76a120.56,120.56,0,0,0-15.7,29.62h0A90.48,90.48,0,0,0,127.53,205"/><path class="cls-2" d="M652.71,220.1a49.69,49.69,0,0,0-76.78-49.85v-.07a79.82,79.82,0,0,0-77-58.64,79,79,0,0,0-39,10.19"/><path class="cls-2" d="M447,131.35a79.81,79.81,0,0,1,130.29,43.06"/><path class="cls-2" d="M656.08,38.86l-3.45-22.27a4.82,4.82,0,0,1,4-5.5l64.69-10a4.83,4.83,0,0,1,5.51,4l5.23,33.78"/><rect class="cls-2" x="653.37" y="14.53" width="75.11" height="7.83" transform="translate(5.33 106.04) rotate(-8.81)"/><rect class="cls-2" x="697.75" y="68.25" width="50.25" height="22.17" rx="4.43"/><path class="cls-2" d="M740.61,90.42v24.74a4.82,4.82,0,0,1-4.82,4.82H639a4.82,4.82,0,0,1-4.83-4.82v-82A4.83,4.83,0,0,1,639,28.34h8.47"/><path class="cls-2" d="M643.06,38.69h92.73a4.82,4.82,0,0,1,4.82,4.82V68.25"/><line class="cls-2" x1="688.88" y1="74.23" x2="634.23" y2="74.23"/><line class="cls-2" x1="688.88" y1="85.99" x2="641.58" y2="85.99"/><path class="cls-3" d="M250.19,322.25a40.5,40.5,0,1,1-40.5-40.5,40.5,40.5,0,0,1,40.5,40.5"/><polyline class="cls-4" points="205.86 315.64 196.03 305.8 194.05 307.78 203.89 317.61"/><polyline class="cls-4" points="202.32 307.38 195.62 307.38 195.63 314.07 192.78 311.23 192.78 304.54 199.48 304.54 202.32 307.38"/><polyline class="cls-4" points="207.36 317.14 196.03 305.8 194.05 307.78 205.39 319.12"/><polyline class="cls-4" points="202.32 307.38 195.62 307.38 195.63 314.07 192.78 311.23 192.78 304.54 199.48 304.54 202.32 307.38"/><polyline class="cls-4" points="215.6 319.12 226.94 307.78 224.97 305.8 213.63 317.14"/><polyline class="cls-4" points="225.37 314.07 225.37 307.38 218.67 307.38 221.51 304.54 228.21 304.54 228.21 311.23 225.37 314.07"/><polyline class="cls-4" points="213.63 327.36 224.97 338.69 226.94 336.72 215.6 325.38"/><polyline class="cls-4" points="218.67 337.12 225.37 337.12 225.37 330.42 228.21 333.27 228.21 339.96 221.51 339.96 218.67 337.12"/><polyline class="cls-4" points="205.39 325.38 194.05 336.72 196.03 338.69 207.36 327.36"/><polyline class="cls-4" points="195.63 330.42 195.62 337.12 202.32 337.12 199.48 339.96 192.78 339.96 192.78 333.27 195.63 330.42"/><path class="cls-2" d="M515.5,400.22V257.59H501.24V221.93H487V200.54h-10.7v-21.4h-3.57l-3.56-17.82a3.75,3.75,0,0,0-3.57-3.57h0a3.74,3.74,0,0,0-3.56,3.57l-3.57,17.82h-3.56v21.4h-10.7v21.39H429.93v35.66H415.66v57.05"/><line class="cls-2" x1="422.79" y1="375.26" x2="422.79" y2="403.78"/><line class="cls-2" x1="312.26" y1="471.53" x2="312.26" y2="375.26"/><rect class="cls-2" x="326.52" y="378.82" width="17.83" height="17.83"/><rect class="cls-2" x="390.7" y="378.82" width="17.83" height="17.83"/><rect class="cls-2" x="358.61" y="378.82" width="17.83" height="17.83"/><rect class="cls-2" x="326.52" y="443.01" width="17.83" height="17.83"/><rect class="cls-2" x="358.61" y="443.01" width="17.83" height="17.83"/><rect class="cls-2" x="326.52" y="410.92" width="17.83" height="17.83"/><rect class="cls-2" x="358.61" y="410.92" width="17.83" height="17.83"/><polyline class="cls-2" points="397.83 428.74 390.7 428.74 390.7 410.92 412.1 410.92"/><polyline class="cls-2" points="408.53 450.14 408.53 460.83 390.7 460.83 390.7 443.01 401.4 443.01"/><polygon class="cls-2" points="412.1 343.17 412.1 325.34 322.95 325.34 322.95 343.17 308.69 343.17 308.69 364.56 426.36 364.56 426.36 343.17 412.1 343.17"/><line class="cls-2" x1="390.7" y1="343.17" x2="415.66" y2="343.17"/><line class="cls-2" x1="322.96" y1="343.17" x2="380.01" y2="343.17"/><polyline class="cls-2" points="412.1 503.62 308.69 503.62 308.69 482.23 412.1 482.23"/><line class="cls-2" x1="444.19" y1="289.68" x2="444.19" y2="400.22"/><line class="cls-2" x1="486.98" y1="289.68" x2="486.98" y2="400.22"/><line class="cls-5" x1="422.79" y1="278.98" x2="508.37" y2="278.98"/><line class="cls-5" x1="437.06" y1="239.76" x2="494.11" y2="239.76"/><line class="cls-5" x1="451.32" y1="221.93" x2="479.85" y2="221.93"/><line class="cls-5" x1="462.02" y1="200.54" x2="469.15" y2="200.54"/><line class="cls-5" x1="437.06" y1="257.59" x2="494.11" y2="257.59"/><path class="cls-2" d="M426.36,457.27v46.35H572.55V457.27"/><path class="cls-2" d="M525.65,437c0-.42.07-.84.07-1.27h0a10.92,10.92,0,0,0,10.92,10.92"/><path class="cls-2" d="M507.63,437a10.69,10.69,0,0,0,.07-1.27h0a10.92,10.92,0,0,0,10.92,10.92"/><path class="cls-2" d="M489.32,437a10.69,10.69,0,0,0,.07-1.27h0a10.92,10.92,0,0,0,10.92,10.92"/><path class="cls-2" d="M470.22,437c0-.42.07-.84.07-1.27h0a10.92,10.92,0,0,0,10.92,10.92"/><path class="cls-2" d="M453.21,437a10.69,10.69,0,0,0,.07-1.27h0a10.92,10.92,0,0,0,10.92,10.92"/><path class="cls-2" d="M432.8,437a10.69,10.69,0,0,0,.07-1.27h0a10.92,10.92,0,0,0,10.92,10.92"/><path class="cls-2" d="M545.05,437a10.69,10.69,0,0,0,.07-1.27h0A10.92,10.92,0,0,0,556,446.69"/><path class="cls-2" d="M565.42,435.87a10.7,10.7,0,0,0,21.4,0v-.1h0v-7l-14.27-17.82H426.36L412.1,428.74l0,7c0,6,4,10.92,14.05,10.92"/><line class="cls-2" x1="429.93" y1="425.18" x2="568.99" y2="425.18"/><polyline class="cls-2" points="451.32 492.93 451.32 460.83 483.41 460.83 483.41 492.93"/><rect class="cls-2" x="504.81" y="460.83" width="46.35" height="24.96"/><path class="cls-6" d="M298,387.62H21a20.06,20.06,0,0,0-20,20v24a20.06,20.06,0,0,0,20,20H44a20.06,20.06,0,0,0,20-20v-311a20.06,20.06,0,0,1,20-20H228"/><path class="cls-6" d="M626,79.62H613c-7.15,0-13,9-13,20v23a20.06,20.06,0,0,0,20,20H777a20.06,20.06,0,0,1,20,20v289a20.06,20.06,0,0,1-20,20H582"/></g></g></svg>