<svg xmlns="http://www.w3.org/2000/svg" id="prefix__graphic-features-qsr" width="475.7" height="245.95" viewBox="0 0 475.7 245.95">
    <defs>
        <clipPath id="prefix__clip-path">
            <path id="prefix__Rectangle_2082" fill="none" d="M0 0H475.7V245.95H0z" data-name="Rectangle 2082"/>
        </clipPath>
        <style>
            .prefix__cls-3,.prefix__cls-4,.prefix__cls-5,.prefix__cls-6{fill:none}.prefix__cls-3{stroke:#879196}.prefix__cls-3,.prefix__cls-4,.prefix__cls-5{stroke-linejoin:round}.prefix__cls-3,.prefix__cls-4,.prefix__cls-5,.prefix__cls-6{stroke-width:2px}.prefix__cls-4,.prefix__cls-6{stroke:#a166ff}.prefix__cls-5{stroke:#869095}.prefix__cls-6{stroke-miterlimit:10}
        </style>
    </defs>
    <g id="prefix__features-qsr" transform="translate(237.85 122.975)">
        <g id="prefix__Group_1741" clip-path="url(#prefix__clip-path)" data-name="Group 1741" transform="translate(-237.85 -122.975)">
            <path id="prefix__Path_2931" d="M261.7 95v-5.7a3.1 3.1 0 0 0-3.1-3.1h-7.8a3.1 3.1 0 0 0-3.1 3.1V95" class="prefix__cls-3" data-name="Path 2931"/>
            <path id="prefix__Path_2932" d="M244.6 95v-5.7a6.3 6.3 0 0 1 6.3-6.3h7.8a6.3 6.3 0 0 1 6.3 6.3V95" class="prefix__cls-3" data-name="Path 2932"/>
            <path id="prefix__Path_2933" d="M256.2 106.4v-4a1.4 1.4 0 0 0-1.4-1.4 1.2 1.2 0 0 0-1.4 1.4v4a3.7 3.7 0 1 0 2.8 0z" class="prefix__cls-4" data-name="Path 2933"/>
            <path id="prefix__Path_2934" d="M261.7 95v-5.7a3.1 3.1 0 0 0-3.1-3.1h-7.8a3.1 3.1 0 0 0-3.1 3.1V95" class="prefix__cls-4" data-name="Path 2934"/>
            <path id="prefix__Path_2935" d="M244.6 95v-5.7a6.3 6.3 0 0 1 6.3-6.3h7.8a6.3 6.3 0 0 1 6.3 6.3V95" class="prefix__cls-4" data-name="Path 2935"/>
            <rect id="prefix__Rectangle_2080" width="27.9" height="22.29" class="prefix__cls-3" data-name="Rectangle 2080" rx="1" transform="translate(241 96.9)"/>
            <path id="prefix__Path_2936" d="M175.2 21.3a85.2 85.2 0 0 0-31 22.3" class="prefix__cls-3" data-name="Path 2936"/>
            <path id="prefix__Path_2937" d="M285.5 64.6A85.1 85.1 0 0 0 183 18.5" class="prefix__cls-3" data-name="Path 2937"/>
            <path id="prefix__Path_2938" d="M139.2 49.9a84.7 84.7 0 0 0-11.1 20.9A63.8 63.8 0 0 0 51 123.4" class="prefix__cls-3" data-name="Path 2938"/>
            <path id="prefix__Path_2939" d="M276.2 71.5a56.3 56.3 0 0 1 91.9 30.4" class="prefix__cls-3" data-name="Path 2939"/>
            <path id="prefix__Line_1112" d="M0 0L73 0" class="prefix__cls-3" data-name="Line 1112" transform="translate(0 195.8)"/>
            <path id="prefix__Line_1113" d="M0 0L29 0" class="prefix__cls-3" data-name="Line 1113" transform="translate(88 195.8)"/>
            <path id="prefix__Line_1114" d="M0 0L110 0" class="prefix__cls-3" data-name="Line 1114" transform="translate(258 195.8)"/>
            <path id="prefix__Line_1115" d="M0 0L11 0" class="prefix__cls-3" data-name="Line 1115" transform="translate(379 195.8)"/>
            <path id="prefix__Line_1116" d="M0 0L39 0" class="prefix__cls-3" data-name="Line 1116" transform="translate(403 195.8)"/>
            <path id="prefix__Line_1117" d="M0 0L117.9 0" class="prefix__cls-4" data-name="Line 1117" transform="translate(112.6 77.3)"/>
            <path id="prefix__Line_1118" d="M0 0L58.7 0" class="prefix__cls-4" data-name="Line 1118" transform="translate(246.4 77.3)"/>
            <path id="prefix__Line_1119" d="M0 0L117.8 0" class="prefix__cls-4" data-name="Line 1119" transform="translate(81.6 41.3)"/>
            <path id="prefix__Line_1120" d="M0 0L58.7 0" class="prefix__cls-4" data-name="Line 1120" transform="translate(207 41.3)"/>
            <path id="prefix__Line_1121" d="M0 0L58.6 0" class="prefix__cls-4" data-name="Line 1121" transform="translate(103.1 112.7)"/>
            <path id="prefix__Line_1122" d="M0 0L58.6 0" class="prefix__cls-4" data-name="Line 1122" transform="translate(168.8 112.7)"/>
            <path id="prefix__Line_1123" d="M0 0L141.6 0" class="prefix__cls-4" data-name="Line 1123" transform="translate(94.1 95)"/>
            <path id="prefix__Line_1124" d="M0 0L39.6 0" class="prefix__cls-4" data-name="Line 1124" transform="translate(273.9 95)"/>
            <path id="prefix__Line_1125" d="M0 0L70.5 0" class="prefix__cls-4" data-name="Line 1125" transform="translate(203.5 5.8)"/>
            <path id="prefix__Line_1126" d="M0 0L70.5 0" class="prefix__cls-4" data-name="Line 1126" transform="translate(142.6 23.6)"/>
            <path id="prefix__Line_1127" d="M0 0L12.4 0" class="prefix__cls-4" data-name="Line 1127" transform="translate(220.3 23.6)"/>
            <path id="prefix__Line_1128" d="M0 0L58.6 0" class="prefix__cls-4" data-name="Line 1128" transform="translate(103.1 59)"/>
            <path id="prefix__Line_1129" d="M0 0L70.5 0" class="prefix__cls-4" data-name="Line 1129" transform="translate(171.3 59)"/>
            <path id="prefix__Line_1130" d="M0 0L12.5 0" class="prefix__cls-4" data-name="Line 1130" transform="translate(248.9 59)"/>
            <path id="prefix__Line_1131" d="M17.2 0L0 17.2" class="prefix__cls-4" data-name="Line 1131" transform="translate(138.3 227.1)"/>
            <path id="prefix__Line_1132" d="M17.9 0L0 17.9" class="prefix__cls-4" data-name="Line 1132" transform="translate(219.2 145.5)"/>
            <path id="prefix__Path_2940" d="M237.1 237.3v7.6h-7.7" class="prefix__cls-5" data-name="Path 2940"/>
            <path id="prefix__Path_2941" d="M211.6 244.9h-15.3m-32.9 0h15.1" class="prefix__cls-5" data-name="Path 2941"/>
            <path id="prefix__Path_2942" d="M137.6 204.6v14.9m0-48.2V186" class="prefix__cls-5" data-name="Path 2942"/>
            <path id="prefix__Path_2943" d="M145.3 145.5h-7.7v7.7" class="prefix__cls-5" data-name="Path 2943"/>
            <path id="prefix__Path_2944" d="M196.3 145.5h15.3m-48.2 0h15.1" class="prefix__cls-5" data-name="Path 2944"/>
            <path id="prefix__Line_1133" d="M0 0L0 14.6" class="prefix__cls-5" data-name="Line 1133" transform="translate(237.1 204.6)"/>
            <path id="prefix__Line_1134" d="M0 0L0 14.7" class="prefix__cls-5" data-name="Line 1134" transform="translate(237.1 171.2)"/>
            <path id="prefix__Path_2945" d="M223.1 145.5h14v14" class="prefix__cls-4" data-name="Path 2945"/>
            <path id="prefix__Path_2946" d="M151.7 244.9h-14.1v-14" class="prefix__cls-4" data-name="Path 2946"/>
            <path id="prefix__Rectangle_2081" d="M0 0H51V51H0z" class="prefix__cls-4" data-name="Rectangle 2081" transform="translate(161.9 169.7)"/>
            <path id="prefix__Path_2947" d="M26.5 18.8v-16A1.8 1.8 0 0 1 28.3 1H57" class="prefix__cls-5" data-name="Path 2947"/>
            <path id="prefix__Path_2948" d="M58.7 67.1H28.3a1.8 1.8 0 0 1-1.8-1.8V52.7" class="prefix__cls-5" data-name="Path 2948"/>
            <path id="prefix__Line_1135" d="M0 0L0 27" class="prefix__cls-5" data-name="Line 1135" transform="translate(72.3 16.4)"/>
            <path id="prefix__Line_1136" d="M0 0L20.3 0" class="prefix__cls-4" data-name="Line 1136" transform="translate(45.2 28.1)"/>
            <path id="prefix__Line_1137" d="M0 0L20.3 0" class="prefix__cls-4" data-name="Line 1137" transform="translate(45.2 36.6)"/>
            <path id="prefix__Line_1138" d="M0 0L21.2 0" class="prefix__cls-4" data-name="Line 1138" transform="translate(44.3 45.9)"/>
            <path id="prefix__Line_1139" d="M0 0L24.5 0" class="prefix__cls-4" data-name="Line 1139" transform="translate(35.1 54.4)"/>
            <path id="prefix__Line_1140" d="M0 0L16.1 0" class="prefix__cls-4" data-name="Line 1140" transform="translate(36.7 18.8)"/>
            <path id="prefix__Path_2949" d="M57 16.2h15.3L57 1z" class="prefix__cls-5" data-name="Path 2949"/>
            <path id="prefix__Path_2950" d="M9.9 41.5l1.2 2.5a.6.6 0 0 0 .7.3l3.1-.9a13 13 0 0 0 3.8 3.6l-.6 3.1a.6.6 0 0 0 .4.6l2.7 1a.6.6 0 0 0 .7-.3l1.5-2.8a13 13 0 0 0 5.3-.2l1.8 2.7a.6.6 0 0 0 .7.2l2.6-1.2a.6.6 0 0 0 .3-.7l-.9-3.1a13 13 0 0 0 3.6-3.9l3.1.6a.6.6 0 0 0 .6-.4l1-2.7a.6.6 0 0 0-.3-.7l-2.8-1.5a13 13 0 0 0-.2-5.3l2.7-1.8a.6.6 0 0 0 .2-.7l-1.2-2.6a.6.6 0 0 0-.7-.3l-3.1.9a13 13 0 0 0-3.9-3.6l.6-3.1a.6.6 0 0 0-.4-.6l-2.7-1a.6.6 0 0 0-.7.3l-1.5 2.8a13 13 0 0 0-5.3.2l-1.8-2.7a.6.6 0 0 0-.7-.2l-2.6 1.2a.6.6 0 0 0-.3.7l.9 3.1a13 13 0 0 0-3.6 3.9l-3.1-.5a.6.6 0 0 0-.6.4l-1 2.7a.6.6 0 0 0 .3.7l2.8 1.5a13 13 0 0 0 .2 5.3L10 40.8a.6.6 0 0 0-.1.7zm12.1-12a7.1 7.1 0 1 1-3.2 8.8 7.1 7.1 0 0 1 3.2-8.8z" class="prefix__cls-5" data-name="Path 2950"/>
            <circle id="prefix__Ellipse_98" cx="12.7" cy="12.7" r="12.7" class="prefix__cls-5" data-name="Ellipse 98" transform="translate(61.3 47.6)"/>
            <path id="prefix__Path_2951" d="M74.8 66.2l5.9-5.9H65.5" class="prefix__cls-4" data-name="Path 2951"/>
            <path id="prefix__Line_1141" d="M0 0L5.9 5.9" class="prefix__cls-4" data-name="Line 1141" transform="translate(74.8 54.4)"/>
            <path id="prefix__Line_1142" d="M0 37.8L0 0" class="prefix__cls-3" data-name="Line 1142" transform="translate(422.7 130.1)"/>
            <path id="prefix__Line_1143" d="M0 0L64 0" class="prefix__cls-3" data-name="Line 1143" transform="translate(410.7 130)"/>
            <path id="prefix__Path_2952" d="M473.3 168a1.3 1.3 0 0 0 1.3-1.3v-43.4a1.3 1.3 0 0 0-1.3-1.3H412a1.3 1.3 0 0 0-1.3 1.3v43.4a1.3 1.3 0 0 0 1.3 1.3z" class="prefix__cls-3" data-name="Path 2952"/>
            <path id="prefix__Line_1144" d="M0 0L4 0" class="prefix__cls-4" data-name="Line 1144" transform="translate(414.7 126)"/>
            <path id="prefix__Line_1145" d="M0 0L4 0" class="prefix__cls-4" data-name="Line 1145" transform="translate(420.7 126)"/>
            <path id="prefix__Line_1146" d="M0 0L4 0" class="prefix__cls-4" data-name="Line 1146" transform="translate(426.7 126)"/>
            <path id="prefix__Path_2953" d="M377.7 104a14 14 0 1 1 14 14 14 14 0 0 1-14-14" class="prefix__cls-6" data-name="Path 2953"/>
            <path id="prefix__Path_2954" d="M405.7 145h-39c1.6-26.2 25-26 25-26a22.7 22.7 0 0 1 14 4" class="prefix__cls-6" data-name="Path 2954"/>
        </g>
    </g>
</svg>
