<svg xmlns="http://www.w3.org/2000/svg" id="prefix__graphic-benefits-tl" width="455" height="269.12" viewBox="0 0 455 269.12">
    <defs>
        <clipPath id="prefix__clip-path">
            <path id="prefix__Rectangle_1583" fill="none" d="M0 0H455V269.12H0z" data-name="Rectangle 1583"/>
        </clipPath>
        <style>
            .prefix__cls-3,.prefix__cls-4,.prefix__cls-5{fill:none}.prefix__cls-3{stroke:#879196}.prefix__cls-3,.prefix__cls-4,.prefix__cls-5{stroke-linejoin:round;stroke-width:2px}.prefix__cls-4{stroke:#869196}.prefix__cls-5{stroke:#a166ff}
        </style>
    </defs>
    <g id="prefix__benefits-tl" transform="translate(227.5 134.56)">
        <g id="prefix__Group_1449" clip-path="url(#prefix__clip-path)" data-name="Group 1449" transform="translate(-227.5 -134.56)">
            <path id="prefix__Path_1532" d="M245.4 23.1c-8.1 1.5-18.2-1.3-22.9-8.5-4.7 7.1-13.7 10.1-21.8 8.5l-3.8-.6a1.8 1.8 0 0 0-2.1 1.8v50.9a1.8 1.8 0 0 0 .9 1.6l25.9 14.5a1.8 1.8 0 0 0 1.8 0l25.9-14.5a1.8 1.8 0 0 0 .9-1.6V24.4a1.8 1.8 0 0 0-2.2-1.8z" class="prefix__cls-3" data-name="Path 1532"/>
            <path id="prefix__Path_1533" d="M200.3 73.1V28.5a28.6 28.6 0 0 0 4.7.4 27.1 27.1 0 0 0 17.7-6.3 29.3 29.3 0 0 0 18.5 6.3l3.7-.2v44.4l-22.4 12.5z" class="prefix__cls-3" data-name="Path 1533"/>
            <path id="prefix__Line_638" d="M44.6 14L0 0" class="prefix__cls-3" data-name="Line 638" transform="translate(200.3 35.1)"/>
            <path id="prefix__Line_639" d="M25.7 8.1L0 0" class="prefix__cls-3" data-name="Line 639" transform="translate(200.3 47.9)"/>
            <path id="prefix__Line_640" d="M4.6 1.5L0 0" class="prefix__cls-3" data-name="Line 640" transform="translate(228.5 56.7)"/>
            <path id="prefix__Line_641" d="M9.3 2.9L0 0" class="prefix__cls-3" data-name="Line 641" transform="translate(235.6 59)"/>
            <path id="prefix__Path_1534" d="M406.6 194.6h16a1.9 1.9 0 0 1 1.7 1.1l9.6 18.9" class="prefix__cls-3" data-name="Path 1534"/>
            <path id="prefix__Path_1535" d="M352.1 237.3h-6.3a1 1 0 0 1-1-1v-4.5a1 1 0 0 1 1-1h6.3" class="prefix__cls-3" data-name="Path 1535"/>
            <path id="prefix__Path_1536" d="M383 237.8a8.6 8.6 0 1 1-8.6-8.6 8.6 8.6 0 0 1 8.6 8.6z" class="prefix__cls-3" data-name="Path 1536"/>
            <circle id="prefix__Ellipse_35" cx="4.1" cy="4.1" r="4.1" class="prefix__cls-3" data-name="Ellipse 35" transform="rotate(-36.3 546.018 -443.778)"/>
            <path id="prefix__Path_1537" d="M431.2 237.8a8.6 8.6 0 1 1-8.6-8.6 8.6 8.6 0 0 1 8.6 8.6z" class="prefix__cls-3" data-name="Path 1537"/>
            <circle id="prefix__Ellipse_36" cx="4.1" cy="4.1" r="4.1" class="prefix__cls-3" data-name="Ellipse 36" transform="rotate(-36.3 570.137 -517.23)"/>
            <path id="prefix__Line_642" d="M9.1 0L0 0" class="prefix__cls-3" data-name="Line 642" transform="translate(339.4 214.6)"/>
            <path id="prefix__Line_643" d="M9.1 0L0 0" class="prefix__cls-3" data-name="Line 643" transform="translate(339.4 201.9)"/>
            <path id="prefix__Line_644" d="M14.6 0L0 0" class="prefix__cls-3" data-name="Line 644" transform="translate(333.9 208.2)"/>
            <path id="prefix__Path_1538" d="M365.7 237.3h-13.6v-49.9a1.9 1.9 0 0 1 1.9-1.9h49.8a1.9 1.9 0 0 1 1.9 1.9v49.9h-21.8" class="prefix__cls-3" data-name="Path 1538"/>
            <path id="prefix__Path_1539" d="M405.7 214.6h30.8a1.9 1.9 0 0 1 1.9 1.9v18.9a1.9 1.9 0 0 1-1.9 1.9h-5" class="prefix__cls-3" data-name="Path 1539"/>
            <path id="prefix__Line_645" d="M11.1 0L0 0" class="prefix__cls-3" data-name="Line 645" transform="translate(402.7 237.3)"/>
            <path id="prefix__Path_1540" d="M216.7 233.4h5l-4-14.5h-15.1l-1.2-6.4h-37.1l-1.8 20.9h2.3" class="prefix__cls-3" data-name="Path 1540"/>
            <path id="prefix__Line_646" d="M0 0L11.2 0" class="prefix__cls-3" data-name="Line 646" transform="translate(185.1 233.4)"/>
            <path id="prefix__Line_647" d="M0 0L4.1 31.1" class="prefix__cls-3" data-name="Line 647" transform="translate(206.7 186.4)"/>
            <path id="prefix__Line_648" d="M0 23.7L1.2 0" class="prefix__cls-3" data-name="Line 648" transform="translate(170.5 186.4)"/>
            <path id="prefix__Path_1541" d="M207.8 183.5h-36.7l.4-6.4h34.8z" class="prefix__cls-3" data-name="Path 1541"/>
            <path id="prefix__Path_1542" d="M197.2 222.5h-28.7l.6-6.3h27.1z" class="prefix__cls-3" data-name="Path 1542"/>
            <path id="prefix__Path_1543" d="M179.6 190.7h-3.5l2.4 18.7" class="prefix__cls-3" data-name="Path 1543"/>
            <path id="prefix__Path_1544" d="M197 210v-4h-11.5l-1.9-15.3h-4l2.8 18.7" class="prefix__cls-3" data-name="Path 1544"/>
            <path id="prefix__Path_1545" d="M184.3 226.4v1.6H197v-1.4" class="prefix__cls-3" data-name="Path 1545"/>
            <path id="prefix__Path_1546" d="M248.9 238h4.5v-4.6h-21.8v-57.5H227v8.1" class="prefix__cls-3" data-name="Path 1546"/>
            <path id="prefix__Path_1547" d="M227 197.2V238h18.6" class="prefix__cls-3" data-name="Path 1547"/>
            <path id="prefix__Line_649" d="M0 0L0 7.8" class="prefix__cls-3" data-name="Line 649" transform="translate(227 186.6)"/>
            <path id="prefix__Path_1548" d="M214.1 234.1a7.5 7.5 0 1 1-7.5-7.5 7.5 7.5 0 0 1 7.5 7.5z" class="prefix__cls-3" data-name="Path 1548"/>
            <circle id="prefix__Ellipse_37" cx="4.2" cy="4.2" r="4.2" class="prefix__cls-3" data-name="Ellipse 37" transform="translate(202.4 229.9)"/>
            <path id="prefix__Path_1549" d="M180.5 239.4a7.5 7.5 0 1 1 0-10.6 7.5 7.5 0 0 1 0 10.6z" class="prefix__cls-3" data-name="Path 1549"/>
            <path id="prefix__Path_1550" d="M178.7 236.3a4.2 4.2 0 1 1-1.5-5.7 4.2 4.2 0 0 1 1.5 5.7z" class="prefix__cls-3" data-name="Path 1550"/>
            <path id="prefix__Line_650" d="M0 0L3.6 0" class="prefix__cls-3" data-name="Line 650" transform="translate(220.7 220.7)"/>
            <path id="prefix__Line_651" d="M0 0L2.6 0" class="prefix__cls-3" data-name="Line 651" transform="translate(221.7 224.4)"/>
            <path id="prefix__Rectangle_1556" d="M0 0H61.8V67.27H0z" class="prefix__cls-3" data-name="Rectangle 1556" transform="translate(23.6 176.3)"/>
            <path id="prefix__Rectangle_1557" d="M0 0H9.1V9.09H0z" class="prefix__cls-3" data-name="Rectangle 1557" transform="translate(34.5 183.6)"/>
            <path id="prefix__Rectangle_1558" d="M0 0H9.1V9.09H0z" class="prefix__cls-3" data-name="Rectangle 1558" transform="translate(34.5 201.8)"/>
            <path id="prefix__Rectangle_1559" d="M0 0H9.1V9.09H0z" class="prefix__cls-3" data-name="Rectangle 1559" transform="translate(50 183.6)"/>
            <path id="prefix__Rectangle_1560" d="M0 0H9.1V9.09H0z" class="prefix__cls-3" data-name="Rectangle 1560" transform="translate(50 201.8)"/>
            <path id="prefix__Rectangle_1561" d="M0 0H9.1V9.09H0z" class="prefix__cls-3" data-name="Rectangle 1561" transform="translate(65.4 183.6)"/>
            <path id="prefix__Rectangle_1562" d="M0 0H9.1V9.09H0z" class="prefix__cls-3" data-name="Rectangle 1562" transform="translate(65.4 201.8)"/>
            <path id="prefix__Path_1551" d="M39.1 238.1v-4.5h30v4.5" class="prefix__cls-3" data-name="Path 1551"/>
            <path id="prefix__Path_1552" d="M39.1 241.8v-3.7h30v3.7" class="prefix__cls-3" data-name="Path 1552"/>
            <path id="prefix__Path_1553" d="M39.1 229v-4.5h30v4.5" class="prefix__cls-3" data-name="Path 1553"/>
            <path id="prefix__Path_1554" d="M39.1 224.5V220h30v4.5" class="prefix__cls-3" data-name="Path 1554"/>
            <path id="prefix__Path_1555" d="M39.1 232.7V229h30v3.7" class="prefix__cls-3" data-name="Path 1555"/>
            <path id="prefix__Path_1556" d="M49.1 177.2V170H60v7.2" class="prefix__cls-3" data-name="Path 1556"/>
            <path id="prefix__Path_1557" d="M64.5 177.2V170h10.9v7.2" class="prefix__cls-3" data-name="Path 1557"/>
            <path id="prefix__Path_1558" d="M33.6 177.2V170h10.9v7.2" class="prefix__cls-3" data-name="Path 1558"/>
            <path id="prefix__Rectangle_1563" d="M0 0H17.3V17.32H0z" class="prefix__cls-4" data-name="Rectangle 1563" transform="translate(407 105.8)"/>
            <path id="prefix__Rectangle_1564" d="M0 0H17.3V17.32H0z" class="prefix__cls-4" data-name="Rectangle 1564" transform="translate(381 149.5)"/>
            <path id="prefix__Rectangle_1565" d="M0 0H17.3V17.32H0z" class="prefix__cls-4" data-name="Rectangle 1565" transform="translate(366.5 74.7)"/>
            <path id="prefix__Rectangle_1566" d="M0 0H17.3V17.32H0z" class="prefix__cls-5" data-name="Rectangle 1566" transform="translate(369.4 117.7)"/>
            <path id="prefix__Rectangle_1567" d="M0 0H17.3V17.32H0z" class="prefix__cls-4" data-name="Rectangle 1567" transform="translate(326.1 62.9)"/>
            <path id="prefix__Rectangle_1568" d="M0 0H17.3V17.32H0z" class="prefix__cls-5" data-name="Rectangle 1568" transform="translate(389.6 54.2)"/>
            <path id="prefix__Rectangle_1569" d="M0 0H17.3V17.32H0z" class="prefix__cls-4" data-name="Rectangle 1569" transform="translate(337.7 105.8)"/>
            <path id="prefix__Rectangle_1570" d="M0 0H17.3V17.32H0z" class="prefix__cls-4" data-name="Rectangle 1570" transform="translate(326.1 135)"/>
            <path id="prefix__Rectangle_1571" d="M0 0H17.3V17.32H0z" class="prefix__cls-5" data-name="Rectangle 1571" transform="translate(271 42.6)"/>
            <path id="prefix__Rectangle_1572" d="M0 0H17.3V17.32H0z" class="prefix__cls-4" data-name="Rectangle 1572" transform="translate(424.3 36.9)"/>
            <path id="prefix__Rectangle_1573" d="M0 0H17.3V17.32H0z" class="prefix__cls-4" data-name="Rectangle 1573" transform="translate(27.3 99.5)"/>
            <path id="prefix__Rectangle_1574" d="M0 0H17.3V17.32H0z" class="prefix__cls-4" data-name="Rectangle 1574" transform="translate(53.3 143.1)"/>
            <path id="prefix__Rectangle_1575" d="M0 0H17.3V17.32H0z" class="prefix__cls-4" data-name="Rectangle 1575" transform="translate(67.7 68.4)"/>
            <path id="prefix__Rectangle_1576" d="M0 0H17.3V17.32H0z" class="prefix__cls-5" data-name="Rectangle 1576" transform="translate(64.9 111.3)"/>
            <path id="prefix__Rectangle_1577" d="M0 0H17.3V17.32H0z" class="prefix__cls-4" data-name="Rectangle 1577" transform="translate(108.2 56.5)"/>
            <path id="prefix__Rectangle_1578" d="M0 0H17.3V17.32H0z" class="prefix__cls-5" data-name="Rectangle 1578" transform="translate(44.6 47.8)"/>
            <path id="prefix__Rectangle_1579" d="M0 0H17.3V17.32H0z" class="prefix__cls-4" data-name="Rectangle 1579" transform="translate(96.6 99.5)"/>
            <path id="prefix__Rectangle_1580" d="M0 0H17.3V17.32H0z" class="prefix__cls-4" data-name="Rectangle 1580" transform="translate(108.2 128.7)"/>
            <path id="prefix__Rectangle_1581" d="M0 0H17.3V17.32H0z" class="prefix__cls-5" data-name="Rectangle 1581" transform="translate(163.3 36.3)"/>
            <path id="prefix__Rectangle_1582" d="M0 0H17.3V17.32H0z" class="prefix__cls-4" data-name="Rectangle 1582" transform="translate(10 30.5)"/>
            <path id="prefix__Line_652" d="M0 0L73 0" class="prefix__cls-3" data-name="Line 652" transform="translate(13 256)"/>
            <path id="prefix__Line_653" d="M0 0L29 0" class="prefix__cls-3" data-name="Line 653" transform="translate(101 256)"/>
            <path id="prefix__Line_654" d="M0 0L110 0" class="prefix__cls-3" data-name="Line 654" transform="translate(271 256)"/>
            <path id="prefix__Line_655" d="M0 0L11 0" class="prefix__cls-3" data-name="Line 655" transform="translate(392 256)"/>
            <path id="prefix__Line_656" d="M0 0L39 0" class="prefix__cls-3" data-name="Line 656" transform="translate(416 256)"/>
        </g>
    </g>
</svg>
