<svg id="Layer_1" data-name="Layer 1" xmlns="http://www.w3.org/2000/svg" viewBox="0 0 795.42 539.65"><defs><style>.cls-1,.cls-2,.cls-3,.cls-6{fill:none;stroke-width:2px;}.cls-1,.cls-6{stroke:#527fff;}.cls-1,.cls-2,.cls-3{stroke-linejoin:round;}.cls-2{stroke:#879196;}.cls-3{stroke:#869095;}.cls-4{fill:#527fff;}.cls-5{fill:#fff;}.cls-6{stroke-miterlimit:10;stroke-dasharray:4 6;}</style></defs><line class="cls-1" x1="315.5" y1="89.09" x2="460.78" y2="89.09"/><line class="cls-1" x1="480.49" y1="89.09" x2="552.83" y2="89.09"/><line class="cls-1" x1="277.19" y1="44.7" x2="422.48" y2="44.7"/><line class="cls-1" x1="431.88" y1="44.7" x2="504.21" y2="44.7"/><line class="cls-1" x1="303.71" y1="132.79" x2="376.05" y2="132.79"/><line class="cls-1" x1="384.73" y1="132.79" x2="457.07" y2="132.79"/><line class="cls-1" x1="292.68" y1="110.94" x2="467.26" y2="110.94"/><line class="cls-1" x1="476.21" y1="110.94" x2="563.14" y2="110.94"/><line class="cls-1" x1="427.6" y1="1" x2="514.53" y2="1"/><line class="cls-1" x1="352.47" y1="22.85" x2="439.39" y2="22.85"/><line class="cls-1" x1="448.22" y1="22.85" x2="463.57" y2="22.85"/><line class="cls-1" x1="303.71" y1="66.56" x2="376.05" y2="66.56"/><line class="cls-1" x1="387.82" y1="66.56" x2="474.75" y2="66.56"/><line class="cls-1" x1="483.58" y1="66.56" x2="498.92" y2="66.56"/><line class="cls-1" x1="277.19" y1="194.7" x2="422.48" y2="194.7"/><line class="cls-1" x1="431.88" y1="194.7" x2="504.21" y2="194.7"/><line class="cls-1" x1="427.6" y1="151" x2="514.53" y2="151"/><line class="cls-1" x1="352.47" y1="172.85" x2="439.39" y2="172.85"/><line class="cls-1" x1="448.22" y1="172.85" x2="463.57" y2="172.85"/><path class="cls-2" d="M326.74,47.71a120.91,120.91,0,0,0-44,31.68"/><path class="cls-2" d="M483.07,109.19A120.7,120.7,0,0,0,337.73,43.72"/><path class="cls-2" d="M625.15,310.15h64.93a52.42,52.42,0,0,0,0-104.84h0a52.24,52.24,0,0,0-36.78,15.07"/><line class="cls-2" x1="173.6" y1="310.15" x2="292.58" y2="310.15"/><line class="cls-2" x1="563.6" y1="310.15" x2="682.58" y2="310.15"/><line class="cls-2" x1="516.6" y1="310.15" x2="549" y2="310.15"/><line class="cls-2" x1="301.6" y1="310.15" x2="361" y2="310.15"/><path class="cls-2" d="M162.47,310.15a59.43,59.43,0,1,1,15.86-116.71"/><path class="cls-2" d="M275.59,88.29a120.56,120.56,0,0,0-15.7,29.62h0a90.48,90.48,0,0,0-109.37,74.66"/><path class="cls-2" d="M675.71,207.63a49.69,49.69,0,0,0-76.78-49.85v-.07a79.82,79.82,0,0,0-77-58.64,79,79,0,0,0-39,10.19"/><path class="cls-2" d="M470,118.88a79.81,79.81,0,0,1,130.29,43.06"/><line class="cls-3" x1="728.73" y1="63.79" x2="750.67" y2="38.52"/><line class="cls-3" x1="728.73" y1="70.83" x2="750.63" y2="96.05"/><line class="cls-3" x1="762.56" y1="67.27" x2="730.19" y2="67.31"/><circle class="cls-3" cx="769.68" cy="19.52" r="4.98"/><circle class="cls-3" cx="754.17" cy="34.98" r="4.98"/><circle class="cls-3" cx="774.65" cy="44.55" r="2.48"/><circle class="cls-3" cx="774.65" cy="88.57" r="2.48"/><circle class="cls-3" cx="789.44" cy="67.31" r="4.98"/><circle class="cls-3" cx="767.5" cy="67.27" r="4.98"/><circle class="cls-3" cx="754.17" cy="99.55" r="4.98"/><circle class="cls-3" cx="769.64" cy="115.06" r="4.98"/><line class="cls-3" x1="765.6" y1="62.66" x2="756.1" y2="39.57"/><line class="cls-3" x1="756.14" y1="94.83" x2="765.6" y2="71.87"/><line class="cls-3" x1="772.48" y1="67.27" x2="784.48" y2="67.27"/><line class="cls-3" x1="757.58" y1="103" x2="766.01" y2="111.43"/><line class="cls-3" x1="757.08" y1="32.11" x2="766.84" y2="22.35"/><circle class="cls-3" cx="744.87" cy="14.76" r="2.48"/><circle class="cls-3" cx="744.87" cy="118.36" r="2.48"/><circle class="cls-3" cx="725.21" cy="67.31" r="4.98"/><line class="cls-3" x1="721.99" y1="70.78" x2="700.06" y2="96.04"/><line class="cls-3" x1="721.99" y1="63.51" x2="700.1" y2="38.51"/><line class="cls-3" x1="688.17" y1="67.29" x2="720.23" y2="67.26"/><circle class="cls-3" cx="681.05" cy="115.05" r="4.98"/><circle class="cls-3" cx="696.56" cy="99.58" r="4.98"/><circle class="cls-3" cx="676.07" cy="90.01" r="2.48"/><circle class="cls-3" cx="676.07" cy="45.99" r="2.48"/><circle class="cls-3" cx="661.29" cy="67.26" r="4.98"/><circle class="cls-3" cx="683.23" cy="67.29" r="4.98"/><circle class="cls-3" cx="696.56" cy="35.01" r="4.98"/><circle class="cls-3" cx="681.09" cy="19.5" r="4.98"/><polyline class="cls-3" points="701.16 101.49 717.49 108.22 733.6 108.22 749.58 101.48"/><line class="cls-3" x1="685.13" y1="71.9" x2="694.63" y2="94.99"/><line class="cls-3" x1="694.59" y1="39.73" x2="685.13" y2="62.69"/><polyline class="cls-3" points="749.57 33.07 733.24 26.34 717.13 26.34 701.15 33.08"/><line class="cls-3" x1="678.25" y1="67.29" x2="666.25" y2="67.29"/><line class="cls-3" x1="693.15" y1="31.56" x2="684.72" y2="23.13"/><line class="cls-3" x1="693.65" y1="102.45" x2="683.88" y2="112.22"/><circle class="cls-3" cx="705.86" cy="119.8" r="2.48"/><circle class="cls-3" cx="705.86" cy="16.2" r="2.48"/><line class="cls-3" x1="398.94" y1="256.82" x2="398.94" y2="286.84"/><line class="cls-3" x1="398.94" y1="360.95" x2="398.94" y2="432.25"/><circle class="cls-3" cx="398.94" cy="311.81" r="26.27"/><circle class="cls-3" cx="398.94" cy="311.81" r="13.14"/><path class="cls-3" d="M414,480.09a26.27,26.27,0,1,0-30,0"/><polyline class="cls-3" points="410.2 334.68 410.2 360.95 387.68 360.95 387.68 334.68"/><line class="cls-3" x1="477.75" y1="256.82" x2="477.75" y2="286.84"/><line class="cls-3" x1="477.75" y1="360.95" x2="477.75" y2="432.25"/><circle class="cls-3" cx="477.75" cy="311.81" r="26.27"/><circle class="cls-3" cx="477.75" cy="311.81" r="13.14"/><path class="cls-3" d="M492.76,480.09a26.27,26.27,0,1,0-30,0"/><polyline class="cls-3" points="489.01 334.68 489.01 360.95 466.49 360.95 466.49 334.68"/><rect class="cls-3" x="338.89" y="242.15" width="202.67" height="15.01" rx="7.51"/><line class="cls-3" x1="395.18" y1="523.63" x2="417.7" y2="523.63"/><line class="cls-3" x1="357.65" y1="523.63" x2="380.17" y2="523.63"/><line class="cls-3" x1="507.78" y1="523.63" x2="530.29" y2="523.63"/><line class="cls-3" x1="470.25" y1="523.63" x2="492.76" y2="523.63"/><line class="cls-3" x1="432.71" y1="523.63" x2="455.23" y2="523.63"/><rect class="cls-3" x="342.64" y="508.62" width="202.67" height="30.02"/><path class="cls-4" d="M273.25,310.44a40.5,40.5,0,1,1-40.5-40.5,40.5,40.5,0,0,1,40.5,40.5"/><polyline class="cls-5" points="222.62 331.99 223.06 331.55 218.86 327.34 235.93 310.27 239.69 314.04 222.18 331.55 222.62 331.99 223.06 331.55 222.62 331.99 223.06 332.43 241.46 314.04 235.93 308.5 217.09 327.34 222.62 332.88 223.06 332.43 222.62 331.99"/><polyline class="cls-5" points="238.69 312.15 248.76 302.09 247.87 301.21 237.81 311.27"/><path class="cls-5" d="M255.29,296.94l.44-.44-2.67-2.67-5,4.23a2.75,2.75,0,0,0-1,2.09,2.77,2.77,0,0,0,2.75,2.75,2.75,2.75,0,0,0,2.1-1l4.23-5-.41-.41-.44.44-.48-.4L251,301.12a1.48,1.48,0,0,1-2.19.09,1.52,1.52,0,0,1-.45-1.06,1.55,1.55,0,0,1,.54-1.14l4.13-3.49,1.87,1.87.44-.45-.48-.4.48.4"/><polyline class="cls-5" points="242.17 316.56 253.47 327.87 249.71 331.63 238.37 320.3 237.49 321.18 249.71 333.4 255.24 327.87 243.05 315.68 242.17 316.56"/><polyline class="cls-5" points="229.82 311.59 225 306.76 228.76 303 233.21 307.44 234.09 306.56 228.76 301.23 223.23 306.76 228.94 312.47 229.82 311.59"/><path class="cls-5" d="M239.39,289.82a8.35,8.35,0,0,0-6-2.33,14.42,14.42,0,0,0-9.92,4.53l-10.33,10.33-.45.45,2.92,2.92L212,309.38l2.22,2.22,10.18-4.26-.49-1.15-9.4,3.94-.75-.75,3.66-3.66L214,302.35l-.45.45.45.44,10.33-10.34a13.21,13.21,0,0,1,9-4.16,7.06,7.06,0,0,1,5.11,2l.89-.88"/><polyline class="cls-5" points="229.21 301.67 225.6 298.07 229.05 294.62 228.16 293.74 223.83 298.07 228.32 302.56 229.21 301.67"/><polyline class="cls-5" points="209.36 311.24 212.97 314.85 213.85 313.96 210.24 310.36"/><path class="cls-6" d="M380,396.15H21a20.06,20.06,0,0,0-20,20v20a20.06,20.06,0,0,0,20,20H47a20.06,20.06,0,0,0,20-20v-333a20.06,20.06,0,0,1,20-20H261"/><path class="cls-6" d="M491,396.15H774a20.06,20.06,0,0,0,20-20v-226a20.06,20.06,0,0,0-20-20H620a20.06,20.06,0,0,1-20-20v-23a20.06,20.06,0,0,1,20-20h23"/></svg>