<svg xmlns="http://www.w3.org/2000/svg" id="graphic-del-financial-secondary" width="654" height="307.69" viewBox="0 0 654 307.69">
    <defs>
        <clipPath id="clip-path">
            <path id="Rectangle_8178" fill="none" d="M0 0H654V307.69H0z" data-name="Rectangle 8178"/>
        </clipPath>
        <style>
            .cls-10,.cls-11,.cls-12,.cls-13,.cls-3,.cls-6,.cls-7{fill:none}.cls-12,.cls-3{stroke:#879196}.cls-3,.cls-6,.cls-7{stroke-miterlimit:10}.cls-10,.cls-11,.cls-12,.cls-13,.cls-3,.cls-6,.cls-7{stroke-width:2px}.cls-4{fill:#879196}.cls-5{fill:#879195}.cls-6{stroke:#879195}.cls-10,.cls-7{stroke:#16bf9f}.cls-10,.cls-11,.cls-12,.cls-13{stroke-linejoin:round}.cls-11{stroke:#869196}.cls-13{stroke:#849095}
        </style>
    </defs>
    <g id="graphic-del-financial-secondary-2" data-name="graphic-del-financial-secondary" transform="translate(327 153.845)">
        <g id="Group_5724" clip-path="url(#clip-path)" data-name="Group 5724" transform="translate(-327 -153.845)">
            <path id="Path_7532" d="M206.9 272.3A136.8 136.8 0 0 1 99.2 113.1" class="cls-3" data-name="Path 7532"/>
            <path id="Path_7533" d="M106.2 121.1l-1.7 1.1-5.4-8.3-7.8 6-1.2-1.6 9.5-7.3z" class="cls-4" data-name="Path 7533"/>
            <path id="Path_7534" d="M312.5 25.8a137 137 0 0 1 57.1 93.5" class="cls-3" data-name="Path 7534"/>
            <path id="Path_7535" d="M193.2 7.1a137.4 137.4 0 0 1 97.2 6.1" class="cls-3" data-name="Path 7535"/>
            <path id="Path_7536" d="M330.5 233.6a137.4 137.4 0 0 0 39.5-89" class="cls-3" data-name="Path 7536"/>
            <path id="Rectangle_8159" d="M0 0H3.5V3.47H0z" class="cls-5" data-name="Rectangle 8159" transform="translate(0 1.6)"/>
            <path id="Rectangle_8160" d="M0 0H3.5V3.47H0z" class="cls-5" data-name="Rectangle 8160" transform="translate(0 13.8)"/>
            <path id="Rectangle_8161" d="M0 0H3.5V3.47H0z" class="cls-5" data-name="Rectangle 8161" transform="translate(0 25.9)"/>
            <path id="Rectangle_8162" d="M0 0H3.5V3.47H0z" class="cls-5" data-name="Rectangle 8162" transform="translate(0 38.1)"/>
            <path id="Rectangle_8163" d="M0 0H3.5V3.47H0z" class="cls-5" data-name="Rectangle 8163" transform="translate(0 50.2)"/>
            <path id="Rectangle_8164" d="M0 0H3.5V3.47H0z" class="cls-5" data-name="Rectangle 8164" transform="translate(0 62.3)"/>
            <path id="Line_2075" d="M0 0L41.2 0" class="cls-6" data-name="Line 2075" transform="translate(10.5 3.2)"/>
            <path id="Line_2076" d="M0 0L30.8 0" class="cls-6" data-name="Line 2076" transform="translate(57.6 3.2)"/>
            <path id="Line_2077" d="M0 0L39.9 0" class="cls-7" data-name="Line 2077" transform="translate(31.2 15.4)"/>
            <path id="Line_2078" d="M0 0L12.1 0" class="cls-6" data-name="Line 2078" transform="translate(20.8 27.6)"/>
            <path id="Line_2079" d="M0 0L67.7 0" class="cls-6" data-name="Line 2079" transform="translate(38.1 27.6)"/>
            <path id="Line_2080" d="M0 0L18.7 0" class="cls-6" data-name="Line 2080" transform="translate(76.3 15.4)"/>
            <path id="Line_2081" d="M0 0L39.9 0" class="cls-6" data-name="Line 2081" transform="translate(31.2 39.7)"/>
            <path id="Line_2082" d="M0 0L12.1 0" class="cls-6" data-name="Line 2082" transform="translate(20.8 51.9)"/>
            <path id="Line_2083" d="M0 0L12.2 0" class="cls-6" data-name="Line 2083" transform="translate(38.1 51.9)"/>
            <path id="Line_2084" d="M0 0L53.7 0" class="cls-6" data-name="Line 2084" transform="translate(55.5 51.9)"/>
            <path id="Line_2085" d="M0 0L18.7 0" class="cls-7" data-name="Line 2085" transform="translate(76.3 39.7)"/>
            <path id="Line_2086" d="M0 0L36.4 0" class="cls-7" data-name="Line 2086" transform="translate(100.6 39.7)"/>
            <path id="Line_2087" d="M0 0L39.9 0" class="cls-6" data-name="Line 2087" transform="translate(15.6 64)"/>
            <path id="Line_2088" d="M0 0L18.7 0" class="cls-7" data-name="Line 2088" transform="translate(60.7 64)"/>
            <path id="Line_2089" d="M0 0L36.4 0" class="cls-6" data-name="Line 2089" transform="translate(85 64)"/>
            <path id="Rectangle_8165" d="M0 0H3.5V3.47H0z" class="cls-5" data-name="Rectangle 8165" transform="translate(0 74.5)"/>
            <path id="Rectangle_8166" d="M0 0H3.5V3.47H0z" class="cls-5" data-name="Rectangle 8166" transform="translate(0 86.6)"/>
            <path id="Line_2090" d="M0 0L12.1 0" class="cls-6" data-name="Line 2090" transform="translate(20.8 76.2)"/>
            <path id="Line_2091" d="M0 0L67.7 0" class="cls-7" data-name="Line 2091" transform="translate(38.1 76.2)"/>
            <path id="Line_2092" d="M0 0L39.9 0" class="cls-6" data-name="Line 2092" transform="translate(31.2 88.2)"/>
            <path id="Line_2093" d="M0 0L18.7 0" class="cls-7" data-name="Line 2093" transform="translate(76.3 88.2)"/>
            <path id="Line_2094" d="M0 0L36.4 0" class="cls-6" data-name="Line 2094" transform="translate(100.6 88.2)"/>
            <path id="Line_2095" fill="none" stroke="#16bf9f" stroke-dasharray="4 6" stroke-miterlimit="10" stroke-width="2px" d="M0 0L196.4 0" data-name="Line 2095" transform="translate(349.8 131.4)"/>
            <path id="Path_7537" fill="#16bf9f" d="M539.6 139.6l-1.4-1.5 7.2-6.7-7.2-6.7 1.4-1.5 8.8 8.2z" data-name="Path 7537"/>
            <path id="Rectangle_8167" d="M0 0H19.4V19.44H0z" class="cls-10" data-name="Rectangle 8167" transform="translate(477 139.3)"/>
            <path id="Rectangle_8168" d="M0 0H19.4V19.44H0z" class="cls-10" data-name="Rectangle 8168" transform="translate(447.8 188.3)"/>
            <path id="Rectangle_8169" d="M0 0H19.4V19.44H0z" class="cls-10" data-name="Rectangle 8169" transform="translate(431.6 104.4)"/>
            <path id="Rectangle_8170" d="M0 0H19.4V19.44H0z" class="cls-10" data-name="Rectangle 8170" transform="translate(434.9 152.6)"/>
            <path id="Rectangle_8171" d="M0 0H19.4V19.44H0z" class="cls-11" data-name="Rectangle 8171" transform="translate(386.3 91.1)"/>
            <path id="Rectangle_8172" d="M0 0H19.4V19.44H0z" class="cls-10" data-name="Rectangle 8172" transform="translate(457.5 81.4)"/>
            <path id="Rectangle_8173" d="M0 0H19.4V19.44H0z" class="cls-11" data-name="Rectangle 8173" transform="translate(399.2 139.3)"/>
            <path id="Rectangle_8174" d="M0 0H19.4V19.44H0z" class="cls-11" data-name="Rectangle 8174" transform="translate(386.3 172.1)"/>
            <path id="Rectangle_8175" d="M0 0H19.4V19.44H0z" class="cls-10" data-name="Rectangle 8175" transform="translate(324.4 68.4)"/>
            <path id="Rectangle_8176" d="M0 0H19.4V19.44H0z" class="cls-11" data-name="Rectangle 8176" transform="translate(496.4 61.9)"/>
            <path id="Path_7538" d="M581 99.8c0 2.9 4.7 5.4 12.4 6.9a94 94 0 0 0 18.2 1.6 99.6 99.6 0 0 0 15.6-1.1c8.3-1.3 13.9-3.7 14.8-6.6" class="cls-12" data-name="Path 7538"/>
            <circle id="Ellipse_172" cx="41.5" cy="41.5" r="41.5" class="cls-10" data-name="Ellipse 172" transform="translate(570 87)"/>
            <ellipse id="Ellipse_173" cx="23" cy="41.5" class="cls-12" data-name="Ellipse 173" rx="23" ry="41.5" transform="translate(588 87)"/>
            <path id="Line_2096" d="M0 0L83 0" class="cls-10" data-name="Line 2096" transform="translate(569 128)"/>
            <path id="Path_7539" d="M580.2 156.2c1.1-2.5 5.9-4.7 13.1-6a96 96 0 0 1 17.2-1.4 97.8 97.8 0 0 1 16.3 1.2c8.2 1.4 13.6 3.9 14.2 6.8v.2" class="cls-12" data-name="Path 7539"/>
            <path id="Line_2097" d="M0 0L0 81" class="cls-10" data-name="Line 2097" transform="translate(611 88)"/>
            <path id="Path_7540" d="M312.8 276.3V258l-10-5.7v-12.5l-19-11.5-10 6-10.1-6-18.9 11.5v12.5l-10 5.7v19l10 5.5v12.6l19.6 11.6 8.8-5.2 9 5.2 19.6-11.6v-12.6z" class="cls-10" data-name="Path 7540"/>
            <path id="Path_7541" d="M259.8 293.7h-8v-15h-14.2" class="cls-13" data-name="Path 7541"/>
            <path id="Line_2098" d="M14 0L0 0" class="cls-13" data-name="Line 2098" transform="translate(243.8 245.7)"/>
            <path id="Line_2099" d="M0 12L0 0" class="cls-13" data-name="Line 2099" transform="translate(250.8 245.7)"/>
            <path id="Line_2100" d="M0 68.3L0 0" class="cls-10" data-name="Line 2100" transform="translate(273.8 233.7)"/>
            <path id="Path_7542" d="M260.8 273.6v-14.9h12" class="cls-13" data-name="Path 7542"/>
            <path id="Path_7543" d="M286.8 277.7h7v-11h19" class="cls-13" data-name="Path 7543"/>
            <path id="Path_7544" d="M290.8 290.7h-6v14.6" class="cls-13" data-name="Path 7544"/>
            <circle id="Ellipse_174" cx="3.5" cy="3.5" r="3.5" class="cls-13" data-name="Ellipse 174" transform="translate(256.8 242.7)"/>
            <circle id="Ellipse_175" cx="3.5" cy="3.5" r="3.5" class="cls-13" data-name="Ellipse 175" transform="translate(246.8 257.7)"/>
            <circle id="Ellipse_176" cx="3.5" cy="3.5" r="3.5" class="cls-13" data-name="Ellipse 176" transform="translate(257.8 273.7)"/>
            <circle id="Ellipse_177" cx="3.5" cy="3.5" r="3.5" class="cls-13" data-name="Ellipse 177" transform="translate(259.8 289.7)"/>
            <circle id="Ellipse_178" cx="3.5" cy="3.5" r="3.5" class="cls-13" data-name="Ellipse 178" transform="translate(279.8 274.7)"/>
            <circle id="Ellipse_179" cx="3.5" cy="3.5" r="3.5" class="cls-13" data-name="Ellipse 179" transform="translate(290.8 286.7)"/>
            <path id="Path_7545" d="M290.8 246.7v4h-17" class="cls-13" data-name="Path 7545"/>
            <path id="Line_2101" d="M0 7L0 0" class="cls-13" data-name="Line 2101" transform="translate(282.8 250.7)"/>
            <circle id="Ellipse_180" cx="3.5" cy="3.5" r="3.5" class="cls-13" data-name="Ellipse 180" transform="translate(278.8 257.7)"/>
            <circle id="Ellipse_181" cx="3.5" cy="3.5" r="3.5" class="cls-13" data-name="Ellipse 181" transform="translate(286.8 239.7)"/>
            <path id="Path_7546" d="M254.8 120.3V97.6a2.1 2.1 0 0 1 2.1-2.1h40.8a2.1 2.1 0 0 1 2.1 2.1v29.9" class="cls-12" data-name="Path 7546"/>
            <path id="Line_2102" d="M17 0L0 0" class="cls-12" data-name="Line 2102" transform="translate(268.8 157.5)"/>
            <path id="Path_7547" d="M259.8 120.3V102a1.5 1.5 0 0 1 1.4-1.6h32.1a1.5 1.5 0 0 1 1.4 1.6v25.4" class="cls-10" data-name="Path 7547"/>
            <path id="Line_2103" d="M17 0L0 0" class="cls-10" data-name="Line 2103" transform="translate(268.8 145.5)"/>
            <path id="Path_7548" d="M279.8 151.5a2 2 0 1 1-2-2 2 2 0 0 1 2 2" class="cls-4" data-name="Path 7548"/>
            <path id="Path_7549" d="M198.8 169.5v3.5l.3.2a6.7 6.7 0 0 0 4 1.3h65a5.4 5.4 0 0 0 3.3-1.1l.5-.4v-3.5z" class="cls-12" data-name="Path 7549"/>
            <path id="Path_7550" d="M260.9 163.1a1.4 1.4 0 0 1-1.4 1.4h-47.2a1.4 1.4 0 0 1-1.4-1.4v-31.2a1.4 1.4 0 0 1 1.4-1.4h47a1.4 1.4 0 0 1 1.4 1.4z" class="cls-10" data-name="Path 7550"/>
            <rect id="Rectangle_8177" width="60" height="44" class="cls-12" data-name="Rectangle 8177" rx="1.5" transform="translate(205.8 125.5)"/>
            <path id="Line_2104" d="M21 0L0 0" class="cls-10" data-name="Line 2104" transform="translate(288.8 140.5)"/>
            <path id="Line_2105" d="M6 0L0 0" class="cls-12" data-name="Line 2105" transform="translate(297.8 136.5)"/>
            <path id="Path_7551" d="M307 173.5h-15.5a2.7 2.7 0 0 1-2.7-2.7V136a3.5 3.5 0 0 1 3.5-3.5h13.9a3.5 3.5 0 0 1 3.5 3.5v34.7a2.7 2.7 0 0 1-2.7 2.8z" class="cls-12" data-name="Path 7551"/>
            <path id="Line_2106" d="M21 0L0 0" class="cls-10" data-name="Line 2106" transform="translate(288.8 168.5)"/>
            <path id="Path_7552" d="M293.8 136.5a1 1 0 1 0 1-1 1 1 0 0 0-1 1" class="cls-4" data-name="Path 7552"/>
            <path id="Path_7553" d="M172 114a14 14 0 1 1 14 14 14 14 0 0 1-14-14" class="cls-3" data-name="Path 7553"/>
            <path id="Path_7554" d="M200 155h-39c1.6-26.2 25-26 25-26a22.7 22.7 0 0 1 14 4" class="cls-3" data-name="Path 7554"/>
        </g>
    </g>
</svg>
