<svg xmlns="http://www.w3.org/2000/svg" width="463.2" height="275.77" viewBox="0 0 463.2 275.77">
    <defs>
        <clipPath id="clip-path">
            <path id="Rectangle_8822" fill="none" d="M0 0H463.2V275.77H0z"/>
        </clipPath>
        <style>
            .cls-2,.cls-4,.cls-5,.cls-6,.cls-8{fill:none}.cls-2,.cls-5{stroke:#879196}.cls-2,.cls-4,.cls-6,.cls-8{stroke-linejoin:round}.cls-2,.cls-4,.cls-5,.cls-6,.cls-8{stroke-width:2px}.cls-4{stroke:#16bf9f}.cls-5{stroke-miterlimit:10}.cls-6{stroke:#869095}.cls-7{fill:#879196}.cls-8{stroke:#849095}
        </style>
    </defs>
    <g id="graphic-del-feature-2" transform="translate(231.6 137.885)">
        <g id="graphic-del-feature-2-2" transform="translate(-231.6 -137.885)">
            <path id="Line_3199" d="M0 0L73 0" class="cls-2" transform="translate(21.2 226.6)"/>
            <path id="Line_3200" d="M0 0L29 0" class="cls-2" transform="translate(109.2 226.6)"/>
            <path id="Line_3201" d="M0 0L110 0" class="cls-2" transform="translate(279.2 226.6)"/>
            <path id="Line_3202" d="M0 0L11 0" class="cls-2" transform="translate(400.2 226.6)"/>
            <g id="Group_5812" clip-path="url(#clip-path)">
                <path id="Line_3203" d="M0 0L39 0" class="cls-2" transform="translate(424.2 226.6)"/>
                <path id="Path_8650" d="M189.3 79.9a85.2 85.2 0 0 0-31 22.3" class="cls-2"/>
                <path id="Path_8651" d="M299.5 123.2A85.1 85.1 0 0 0 197 77.1" class="cls-2"/>
                <path id="Path_8652" d="M153.2 108.5a84.7 84.7 0 0 0-11.1 20.9 63.8 63.8 0 0 0-77 52.6" class="cls-2"/>
                <path id="Path_8653" d="M290.3 130.1a56.3 56.3 0 0 1 91.9 30.4" class="cls-2"/>
                <path id="Line_3204" d="M0 0L96.6 0" class="cls-4" transform="translate(169.1 80.3)"/>
                <path id="Line_3205" d="M0 0L48.1 0" class="cls-4" transform="translate(278.7 80.3)"/>
                <path id="Line_3206" d="M0 0L96.5 0" class="cls-4" transform="translate(143.7 50.8)"/>
                <path id="Line_3207" d="M0 0L48.1 0" class="cls-4" transform="translate(246.4 50.8)"/>
                <path id="Line_3208" d="M0 0L48.1 0" class="cls-4" transform="translate(161.3 109.3)"/>
                <path id="Line_3209" d="M0 0L48.1 0" class="cls-4" transform="translate(215.1 109.3)"/>
                <path id="Line_3210" d="M0 0L116 0" class="cls-4" transform="translate(154 94.8)"/>
                <path id="Line_3211" d="M0 0L32.5 0" class="cls-4" transform="translate(301.2 94.8)"/>
                <path id="Line_3212" d="M0 0L57.8 0" class="cls-4" transform="translate(243.6 21.8)"/>
                <path id="Line_3213" d="M0 0L57.7 0" class="cls-4" transform="translate(193.7 36.3)"/>
                <path id="Line_3214" d="M0 0L10.2 0" class="cls-4" transform="translate(257.3 36.3)"/>
                <path id="Line_3215" d="M0 0L48.1 0" class="cls-4" transform="translate(161.3 65.3)"/>
                <path id="Line_3216" d="M0 0L57.7 0" class="cls-4" transform="translate(217.2 65.3)"/>
                <path id="Line_3217" d="M0 0L10.2 0" class="cls-4" transform="translate(280.8 65.3)"/>
                <path id="Path_8654" d="M112.3 34.3v.7h-2.9v-.7" class="cls-5"/>
                <path id="Line_3218" d="M0 0L34 0" class="cls-5" transform="translate(141.2 38)"/>
                <path id="Line_3219" d="M0 0L27.4 0" class="cls-5" transform="translate(101.2 38)"/>
                <path id="Path_8655" d="M157.5 12.8a28.8 28.8 0 0 1 9.6 21.5" class="cls-5"/>
                <path id="Path_8656" d="M109.4 34.3a28.9 28.9 0 0 1 46.4-22.9" class="cls-5"/>
                <path id="Path_8657" d="M148.6 2.6a33.2 33.2 0 0 1 6.7 3" class="cls-4"/>
                <path id="Path_8658" d="M108.8 18.8a33.3 33.3 0 0 1 36.8-17" class="cls-4"/>
                <path id="Path_8659" d="M151.5 19.1a22.5 22.5 0 0 1 5.9 15.2" class="cls-5"/>
                <path id="Path_8660" d="M112.3 34.3a22.6 22.6 0 0 1 37-17.4" class="cls-5"/>
                <path id="Path_8661" d="M167.1 34.3v.7h-9.6v-.7" class="cls-5"/>
                <circle id="Ellipse_337" cx="7.4" cy="7.4" r="7.4" class="cls-5" transform="rotate(-76.7 88.163 -59.731)"/>
                <path id="Path_8662" d="M130.5 34.3a4.4 4.4 0 1 1 4.4 4.4" class="cls-4"/>
                <path id="Path_8663" d="M137.5 27.6l24.8-22.2 1.1 1.1-22.2 24.8" class="cls-4"/>
                <path id="Line_3220" d="M0 4.4L8 0" class="cls-4" transform="translate(154.4 18.8)"/>
                <path id="Line_3221" d="M0 2.3L9.6 0" class="cls-4" transform="translate(156.7 26.5)"/>
                <path id="Rectangle_8819" d="M0 0H44.3V6.92H0z" class="cls-4" transform="translate(379.2 73.6)"/>
                <path id="Rectangle_8820" d="M0 0H19.4V6.92H0z" class="cls-4" transform="translate(379.2 85.4)"/>
                <path id="Rectangle_8821" d="M0 0H19.4V6.92H0z" class="cls-4" transform="translate(404.1 85.4)"/>
                <path id="Line_3222" d="M0 0L19.4 0" class="cls-6" transform="translate(379.2 97.1)"/>
                <path id="Line_3223" d="M0 0L19.4 0" class="cls-6" transform="translate(404.1 97.1)"/>
                <path id="Line_3224" d="M0 0L19.4 0" class="cls-6" transform="translate(404.1 100.6)"/>
                <path id="Line_3225" d="M0 0L19.4 0" class="cls-6" transform="translate(404.1 104.1)"/>
                <path id="Line_3226" d="M0 0L19.4 0" class="cls-6" transform="translate(379.2 100.6)"/>
                <path id="Line_3227" d="M0 0L19.4 0" class="cls-6" transform="translate(379.2 104.1)"/>
                <path id="Line_3228" d="M0 0L6.9 0" class="cls-4" transform="translate(361.2 73.6)"/>
                <path id="Line_3229" d="M0 0L6.9 0" class="cls-6" transform="translate(361.2 81.2)"/>
                <path id="Line_3230" d="M0 0L6.9 0" class="cls-4" transform="translate(361.2 88.8)"/>
                <path id="Line_3231" d="M0 0L6.9 0" class="cls-6" transform="translate(361.2 97.1)"/>
                <path id="Line_3232" d="M0 0L74.7 0" class="cls-2" transform="translate(358.5 67.4)"/>
                <path id="Path_8664" d="M431.7 111.7a1.5 1.5 0 0 0 1.6-1.5v-51a1.5 1.5 0 0 0-1.6-1.5h-71.6a1.5 1.5 0 0 0-1.6 1.5v51a1.5 1.5 0 0 0 1.5 1.5z" class="cls-2"/>
                <path id="Line_3233" d="M0 0L3.5 0" class="cls-6" transform="translate(361.9 62.5)"/>
                <path id="Line_3234" d="M0 0L3.4 0" class="cls-6" transform="translate(367.5 62.5)"/>
                <path id="Line_3235" d="M0 0L3.5 0" class="cls-6" transform="translate(373 62.5)"/>
                <path id="Line_3236" d="M0 44.3L0 0" class="cls-2" transform="translate(370.9 67.4)"/>
                <path id="Path_8665" d="M191.2 274.8v-11.9l3.4-15.2" class="cls-2"/>
                <path id="Path_8666" d="M194.5 226.2c.1 8.6 2.1 17.3 13.8 17.8s15-8.6 15.5-17.3" class="cls-2"/>
                <path id="Path_8667" d="M202 212.9a26.2 26.2 0 0 0 18.6 2.8s2.6 11.1 4.1 11.1 3.5-4.9 2.8-11.7-5.1-17.1-17.7-17.8c-4.5-.2-4.2-3.2-5.6-3.2s-.3 4.2-1.3 4.6-2.9-1.6-3.6-1.1-.1 3.2-.8 3.7c-3.2 2.6-5.9 6.7-7.1 13-.6 3.3-.2 11.5 3.3 11.8.5 0-.6-3.5 2.8-6.3s.9-10.2 4.5-6.9z" class="cls-2"/>
                <path id="Path_8668" d="M197.5 247a11.5 11.5 0 0 0 11.7 9.9s10.4-.1 10.1-10.2" class="cls-2"/>
                <path id="Path_8669" d="M201.4 242.7v3.4c-4.5.5-16.9 3.3-20.5 9.2-2.6 4.4-3.2 6.9-3.2 19.5h64.1c.1-12.5.2-13.9-3.1-19.5s-16.6-8.7-22.2-9.2v-3.4" class="cls-2"/>
                <path id="Path_8670" d="M228.4 274.8v-11.9l-5.1-15.2" class="cls-2"/>
                <path id="Line_3237" d="M0 0L27 0" class="cls-4" transform="translate(196.3 261.3)"/>
                <path id="Line_3238" d="M0 0L27 0" class="cls-4" transform="translate(196.3 268)"/>
                <path id="Path_8671" d="M218.9 224.4a4 4 0 1 1-4-4 4 4 0 0 1 4 4z" class="cls-2"/>
                <path id="Path_8672" d="M207.5 224.4a4 4 0 1 1-4-4 4 4 0 0 1 4 4z" class="cls-2"/>
                <path id="Line_3239" d="M0 0L1.7 0" class="cls-2" transform="translate(208.1 224.1)"/>
                <path id="Path_8673" d="M204.8 201.9c1.2 2.1 7.4 4.3 10.1 4.3" class="cls-2"/>
                <path id="Path_8674" d="M250.3 166.1c-.3 8.5-2.9 18-16.2 17.5s-14-8.2-14.2-16.1v-11s17.3 3.7 30.4 0z" class="cls-5"/>
                <path id="Path_8675" d="M226.7 181.9v6.8l5.9 10.3a2.8 2.8 0 0 0 5.1 0l5.9-10.3v-6.8" class="cls-5"/>
                <path id="Path_8676" d="M233.5 217.3h33.7c.1-13.3.2-14.8-3.1-20.7s-16.1-9.1-20.5-9.7" class="cls-2"/>
                <path id="Path_8677" d="M226.7 186.9a50.9 50.9 0 0 0-11.8 3.4" class="cls-5"/>
                <path id="Line_3240" d="M0 0L0 6.8" class="cls-4" transform="translate(253.7 207.2)"/>
                <path id="Path_8678" d="M220 168.4c-4-2.5-9.4-16.2.2-25.9 6.9-7 21.6-9.7 31 1 4.5 5.1 8.3 18.4-.9 24.9" class="cls-5"/>
                <path id="Path_8679" d="M231.8 165.8a2.5 2.5 0 1 1-2.5-2.5 2.5 2.5 0 0 1 2.5 2.5" class="cls-7"/>
                <path id="Path_8680" d="M243.6 165.8a2.5 2.5 0 1 1-2.5-2.5 2.5 2.5 0 0 1 2.5 2.5" class="cls-7"/>
                <path id="Line_3241" d="M0 16.8L0 0" class="cls-4" transform="translate(235.1 200.5)"/>
                <path id="Path_8681" d="M165.8 167.5c.2 7.9 2.2 15.6 13.6 16s15.2-8.9 15.5-17.4" class="cls-5"/>
                <path id="Path_8682" d="M195.1 166.9c-.7.2 1-3.6-3.1-6.4-2.3-1.6-2.3-3.4-2.4-5a1.9 1.9 0 0 0-3-1.4A21 21 0 0 1 175 158a3.1 3.1 0 0 0-3 2.1c-1 2.9-3.6 5.8-6.5 8.2" class="cls-5"/>
                <path id="Path_8683" d="M171 181.9v5.1l6.8 12a2.8 2.8 0 0 0 5.1 0l6.6-12v-6.8" class="cls-5"/>
                <path id="Path_8684" d="M182.8 217.3H149c-.1-13.3.4-15.9 3.1-20.7 3.6-6.4 14.5-9.1 18.9-9.7" class="cls-2"/>
                <path id="Path_8685" d="M189.5 186.9a44.5 44.5 0 0 1 8.4 2.2" class="cls-5"/>
                <path id="Line_3242" d="M0 0L0 13.5" class="cls-5" transform="translate(162.5 203.8)"/>
                <path id="Path_8686" d="M159.2 190.3v-29.1a23.2 23.2 0 0 1 3.1-12.4c5.7-8.8 15-9.4 20.6-9.1 3.3.2 9.7 1.5 10.1 10.1 0 0 8.7-1.9 8.4 8.4v27" class="cls-5"/>
                <path id="Line_3243" d="M0 0L0 16.8" class="cls-5" transform="translate(181.1 200.5)"/>
                <path id="Path_8687" d="M177.7 167.5a2.5 2.5 0 1 1-2.5-2.5 2.5 2.5 0 0 1 2.5 2.5" class="cls-7"/>
                <path id="Path_8688" d="M187.8 167.5a2.5 2.5 0 1 1-2.5-2.5 2.5 2.5 0 0 1 2.5 2.5" class="cls-7"/>
                <path id="Path_8689" d="M181.3 156.7s-6.8 2.5-13.1-.5" class="cls-5"/>
                <path id="Path_8690" d="M163.1 169.6a16 16 0 0 0 4.4-3.2" class="cls-5"/>
                <path id="Path_8691" d="M174.3 208.1a2.5 2.5 0 1 1-2.5-2.5 2.5 2.5 0 0 1 2.5 2.5z" class="cls-4"/>
                <path id="Path_8692" d="M170.7 148.6a25.3 25.3 0 0 0 9.6 2.4" class="cls-2"/>
                <path id="Path_8693" d="M79 106.1V87.7l-10-5.6V69.6L50.1 58 40 64l-10.1-6L11 69.6v12.5L1 87.7v19.1l10 5.5v12.5l19.6 11.6 8.8-5.2 9 5.2L68 124.8v-12.5z" class="cls-4"/>
                <path id="Path_8694" d="M26 123.4h-8v-15H3.8" class="cls-8"/>
                <path id="Line_3244" d="M14 0L0 0" class="cls-8" transform="translate(10 75.4)"/>
                <path id="Line_3245" d="M0 12L0 0" class="cls-8" transform="translate(17 75.4)"/>
                <path id="Line_3246" d="M0 68.4L0 0" class="cls-4" transform="translate(40 63.4)"/>
                <path id="Path_8695" d="M27 103.4v-15h12" class="cls-8"/>
                <path id="Path_8696" d="M53 107.4h7v-11h19" class="cls-8"/>
                <path id="Path_8697" d="M57 120.4h-6v14.7" class="cls-8"/>
                <circle id="Ellipse_338" cx="3.5" cy="3.5" r="3.5" class="cls-8" transform="translate(23 72.4)"/>
                <circle id="Ellipse_339" cx="3.5" cy="3.5" r="3.5" class="cls-8" transform="translate(13 87.4)"/>
                <circle id="Ellipse_340" cx="3.5" cy="3.5" r="3.5" class="cls-8" transform="translate(24 103.4)"/>
                <circle id="Ellipse_341" cx="3.5" cy="3.5" r="3.5" class="cls-8" transform="translate(26 119.4)"/>
                <circle id="Ellipse_342" cx="3.5" cy="3.5" r="3.5" class="cls-8" transform="translate(46 104.4)"/>
                <circle id="Ellipse_343" cx="3.5" cy="3.5" r="3.5" class="cls-8" transform="translate(57 116.4)"/>
                <path id="Path_8698" d="M57 76.4v4H40" class="cls-8"/>
                <path id="Line_3247" d="M0 7L0 0" class="cls-8" transform="translate(49 80.4)"/>
                <circle id="Ellipse_344" cx="3.5" cy="3.5" r="3.5" class="cls-8" transform="translate(45 87.4)"/>
                <circle id="Ellipse_345" cx="3.5" cy="3.5" r="3.5" class="cls-8" transform="translate(53 69.4)"/>
            </g>
        </g>
    </g>
</svg>
