<svg xmlns="http://www.w3.org/2000/svg" width="808.8" height="457.67" viewBox="0 0 808.8 457.67">
    <defs>
        <clipPath id="clip-path">
            <path id="Rectangle_8150" fill="none" d="M0 0H808.8V457.67H0z" data-name="Rectangle 8150"/>
        </clipPath>
        <style>
            .cls-10,.cls-3,.cls-4,.cls-6,.cls-7{fill:none}.cls-3,.cls-7{stroke:#879196}.cls-10,.cls-3,.cls-4{stroke-miterlimit:10}.cls-10,.cls-4,.cls-6{stroke:#16bf9f}.cls-6,.cls-7{stroke-linejoin:round}.cls-10,.cls-6,.cls-7{stroke-width:2px}.cls-10{stroke-dasharray:4 6}
        </style>
    </defs>
    <g id="graphic-financial-services">
        <g id="graphic-financial-services-2" data-name="graphic-financial-services" transform="translate(404.4 228.835)">
            <g id="Group_5721" clip-path="url(#clip-path)" data-name="Group 5721" transform="translate(-404.4 -228.835)">
                <path id="Path_7457" d="M688.3 119.4h4.6a3 3 0 0 0 3-3V.5h-82.3v7.6" class="cls-3" data-name="Path 7457"/>
                <path id="Line_1985" d="M0 0L30.5 0" class="cls-3" data-name="Line 1985" transform="translate(613.6 88.9)"/>
                <path id="Line_1986" d="M0 0L45.8 0" class="cls-3" data-name="Line 1986" transform="translate(613.6 99.6)"/>
                <path id="Line_1987" d="M0 0L15.3 0" class="cls-3" data-name="Line 1987" transform="translate(613.6 110.3)"/>
                <path id="Path_7458" d="M615.2 66.1a6.1 6.1 0 1 0 12.2 0c0-3.4-2.8-5.5-6.1-6.1s-6.1-2.7-6.1-6.1a6.1 6.1 0 1 1 12.2 0" class="cls-4" data-name="Path 7458"/>
                <path id="Line_1988" d="M0 0L0 33.5" class="cls-4" data-name="Line 1988" transform="translate(621.2 43.2)"/>
                <path id="Path_7459" fill="#879196" d="M682.8 13.7v114.9a2.1 2.1 0 0 1-2 2.1h-76.3a2.1 2.1 0 0 1-2-2.1V13.7h80.3m1-1h-82.4v115.9a3 3 0 0 0 3 3.1h76.2a3 3 0 0 0 3-3.1z" data-name="Path 7459"/>
                <path id="Line_1989" d="M0 0L145.2 0" class="cls-6" data-name="Line 1989" transform="translate(249.3 95.8)"/>
                <path id="Line_1990" d="M0 0L72.3 0" class="cls-6" data-name="Line 1990" transform="translate(414.3 95.8)"/>
                <path id="Line_1991" d="M0 0L145.2 0" class="cls-6" data-name="Line 1991" transform="translate(211 51.5)"/>
                <path id="Line_1992" d="M0 0L72.4 0" class="cls-6" data-name="Line 1992" transform="translate(365.6 51.5)"/>
                <path id="Line_1993" d="M0 0L72.3 0" class="cls-6" data-name="Line 1993" transform="translate(237.5 139.5)"/>
                <path id="Line_1994" d="M0 0L72.3 0" class="cls-6" data-name="Line 1994" transform="translate(318.5 139.5)"/>
                <path id="Line_1995" d="M0 0L174.6 0" class="cls-6" data-name="Line 1995" transform="translate(226.4 117.7)"/>
                <path id="Line_1996" d="M0 0L86.9 0" class="cls-6" data-name="Line 1996" transform="translate(410 117.7)"/>
                <path id="Line_1997" d="M0 0L86.9 0" class="cls-6" data-name="Line 1997" transform="translate(361.4 7.8)"/>
                <path id="Line_1998" d="M0 0L87 0" class="cls-6" data-name="Line 1998" transform="translate(286.2 29.6)"/>
                <path id="Line_1999" d="M0 0L15.3 0" class="cls-6" data-name="Line 1999" transform="translate(382 29.6)"/>
                <path id="Line_2000" d="M0 0L72.3 0" class="cls-6" data-name="Line 2000" transform="translate(237.5 73.3)"/>
                <path id="Line_2001" d="M0 0L86.9 0" class="cls-6" data-name="Line 2001" transform="translate(321.6 73.3)"/>
                <path id="Line_2002" d="M0 0L15.4 0" class="cls-6" data-name="Line 2002" transform="translate(417.3 73.3)"/>
                <path id="Path_7460" d="M260.5 54.5a120.8 120.8 0 0 0-44 31.7" class="cls-7" data-name="Path 7460"/>
                <path id="Path_7461" d="M416.8 115.9a120.7 120.7 0 0 0-145.3-65.4" class="cls-7" data-name="Path 7461"/>
                <path id="Path_7462" d="M558.9 316.9h64.9a52.4 52.4 0 1 0 0-104.8 52.3 52.3 0 0 0-36.8 15.1" class="cls-7" data-name="Path 7462"/>
                <path id="Line_2003" d="M0 0L118.9 0" class="cls-7" data-name="Line 2003" transform="translate(107.4 316.9)"/>
                <path id="Path_7463" d="M96.2 316.9a59.4 59.4 0 1 1 15.9-116.7" class="cls-7" data-name="Path 7463"/>
                <path id="Path_7464" d="M209.4 95a120.2 120.2 0 0 0-15.7 29.6 90.5 90.5 0 0 0-109.4 74.7" class="cls-7" data-name="Path 7464"/>
                <path id="Path_7465" d="M609.5 214.4a49.735 49.735 0 0 0-76.8-49.8 79.9 79.9 0 0 0-116-48.5" class="cls-7" data-name="Path 7465"/>
                <path id="Path_7466" d="M403.7 125.6A79.8 79.8 0 0 1 534 168.7" class="cls-7" data-name="Path 7466"/>
                <path id="Path_7467" fill="#16bf9f" d="M209.2 316.8a40.5 40.5 0 1 1-40.5-40.5 40.5 40.5 0 0 1 40.5 40.5" data-name="Path 7467"/>
                <path id="Path_7468" fill="#fff" d="M188.9 302.3l-26.1 26.2-14.3-14.3-2 2 16.3 16.2 28.1-28.2-2-1.9" data-name="Path 7468"/>
                <path id="Path_7469" d="M259.8 393.9H25a24.1 24.1 0 0 1-24-24V143.4a24.1 24.1 0 0 1 24-24h104.3" class="cls-10" data-name="Path 7469"/>
                <path id="Path_7470" d="M522.8 359.9h275a10 10 0 0 1 10 10v27a10 10 0 0 1-10 10h-36.2a10 10 0 0 1-10-10v-317a10 10 0 0 0-10-10h-40.7" class="cls-10" data-name="Path 7470"/>
                <path id="Rectangle_8147" d="M0 0H27V26.99H0z" class="cls-6" data-name="Rectangle 8147" transform="translate(398.3 155.9)"/>
                <path id="Rectangle_8148" d="M0 0H27V26.99H0z" class="cls-6" data-name="Rectangle 8148" transform="translate(425.3 167.5)"/>
                <path id="Line_2004" d="M0 0L0 34.7" class="cls-7" data-name="Line 2004" transform="translate(398.3 182.9)"/>
                <path id="Line_2005" d="M0 73.2L0 0" class="cls-6" data-name="Line 2005" transform="translate(286.4 317.9)"/>
                <path id="Line_2006" d="M0 0L0 66.6" class="cls-6" data-name="Line 2006" transform="translate(305.7 320.1)"/>
                <path id="Line_2007" d="M0 73.2L0 0" class="cls-6" data-name="Line 2007" transform="translate(336.6 317.9)"/>
                <path id="Line_2008" d="M0 0L0 66.6" class="cls-6" data-name="Line 2008" transform="translate(355.8 320.1)"/>
                <path id="Line_2009" d="M0 73.2L0 0" class="cls-6" data-name="Line 2009" transform="translate(386.7 317.9)"/>
                <path id="Line_2010" d="M0 0L0 66.6" class="cls-6" data-name="Line 2010" transform="translate(406 320.1)"/>
                <path id="Line_2011" d="M0 73.2L0 0" class="cls-6" data-name="Line 2011" transform="translate(436.8 317.9)"/>
                <path id="Line_2012" d="M0 0L0 66.6" class="cls-6" data-name="Line 2012" transform="translate(456.1 320.1)"/>
                <path id="Line_2013" d="M0 73.2L0 0" class="cls-6" data-name="Line 2013" transform="translate(487 317.9)"/>
                <path id="Line_2014" d="M0 0L0 66.6" class="cls-6" data-name="Line 2014" transform="translate(506.2 320.1)"/>
                <path id="Path_7471" d="M313.4 298.6v19.3h-34.7v-19.3" class="cls-7" data-name="Path 7471"/>
                <path id="Path_7472" d="M363.6 298.6v19.3h-34.7v-19.3" class="cls-7" data-name="Path 7472"/>
                <path id="Path_7473" d="M413.7 298.6v19.3H379v-19.3" class="cls-7" data-name="Path 7473"/>
                <path id="Path_7474" d="M463.8 298.6v19.3h-34.7v-19.3" class="cls-7" data-name="Path 7474"/>
                <path id="Path_7475" d="M513.9 298.6v19.3h-34.7v-19.3" class="cls-7" data-name="Path 7475"/>
                <path id="Rectangle_8149" d="M0 0H262.2V38.56H0z" class="cls-7" data-name="Rectangle 8149" transform="translate(267.2 418.1)"/>
                <path id="Path_7476" d="M529.4 290.9H267.2v-19.3l133-46.3 129.2 46.3z" class="cls-7" data-name="Path 7476"/>
                <path id="Path_7477" d="M313.4 410.4v-19.3h-34.7v19.3" class="cls-7" data-name="Path 7477"/>
                <path id="Path_7478" d="M363.6 410.4v-19.3h-34.7v19.3" class="cls-7" data-name="Path 7478"/>
                <path id="Path_7479" d="M413.7 410.4v-19.3H379v19.3" class="cls-7" data-name="Path 7479"/>
                <path id="Path_7480" d="M463.8 410.4v-19.3h-34.7v19.3" class="cls-7" data-name="Path 7480"/>
                <path id="Path_7481" d="M513.9 410.4v-19.3h-34.7v19.3" class="cls-7" data-name="Path 7481"/>
            </g>
        </g>
    </g>
</svg>
