<svg xmlns="http://www.w3.org/2000/svg" id="graphic-del-ps-industry" width="742" height="414.42" viewBox="0 0 742 414.42">
    <defs>
        <clipPath id="clip-path">
            <path id="Rectangle_8635" fill="none" d="M0 0H742V414.42H0z"/>
        </clipPath>
        <style>
            .cls-2,.cls-4,.cls-6,.cls-7{fill:none}.cls-2,.cls-7{stroke:#16bf9f}.cls-2,.cls-4,.cls-6{stroke-linejoin:round}.cls-2,.cls-4,.cls-6,.cls-7{stroke-width:2px}.cls-4{stroke:#879196}.cls-6{stroke:#fff}.cls-7{stroke-miterlimit:10;stroke-dasharray:4 6}
        </style>
    </defs>
    <g id="graphic-del-ps-industry-2" transform="translate(371 207.21)">
        <g id="Group_6103" transform="translate(-371 -207.21)">
            <path id="Line_1388" d="M0 0L131.1 0" class="cls-2" transform="translate(246 97.4)"/>
            <path id="Line_1389" d="M0 0L65.3 0" class="cls-2" transform="translate(394.9 97.4)"/>
            <path id="Line_1390" d="M0 0L131.1 0" class="cls-2" transform="translate(211.5 57.4)"/>
            <path id="Line_1391" d="M0 0L65.2 0" class="cls-2" transform="translate(351.1 57.4)"/>
            <path id="Line_1392" d="M0 0L65.3 0" class="cls-2" transform="translate(235.4 136.9)"/>
            <path id="Line_1393" d="M0 0L65.3 0" class="cls-2" transform="translate(308.5 136.9)"/>
            <path id="Line_1394" d="M0 0L157.6 0" class="cls-2" transform="translate(225.4 117.2)"/>
            <path id="Line_1395" d="M0 0L78.4 0" class="cls-2" transform="translate(391.1 117.2)"/>
            <path id="Line_1396" d="M0 0L78.4 0" class="cls-2" transform="translate(347.2 18)"/>
            <path id="Line_1397" d="M0 0L78.4 0" class="cls-2" transform="translate(279.4 37.7)"/>
            <path id="Line_1398" d="M0 0L13.9 0" class="cls-2" transform="translate(365.8 37.7)"/>
            <path id="Line_1399" d="M0 0L65.3 0" class="cls-2" transform="translate(235.4 77.1)"/>
            <path id="Line_1400" d="M0 0L78.4 0" class="cls-2" transform="translate(311.3 77.1)"/>
            <path id="Line_1401" d="M0 0L13.9 0" class="cls-2" transform="translate(397.7 77.1)"/>
            <path id="Line_1402" d="M0 0L131.1 0" class="cls-2" transform="translate(211.5 192.8)"/>
            <path id="Line_1403" d="M0 0L65.2 0" class="cls-2" transform="translate(351.1 192.8)"/>
            <path id="Line_1404" d="M0 0L78.4 0" class="cls-2" transform="translate(347.2 153.3)"/>
            <path id="Line_1405" d="M0 0L78.4 0" class="cls-2" transform="translate(279.4 173)"/>
            <path id="Line_1406" d="M0 0L13.9 0" class="cls-2" transform="translate(365.8 173)"/>
            <g id="Group_6102" clip-path="url(#clip-path)">
                <path id="Path_7977" d="M256.2 60.1a109 109 0 0 0-39.7 28.6" class="cls-4"/>
                <path id="Path_7978" d="M397.3 115.6a108.9 108.9 0 0 0-131.2-59.1" class="cls-4"/>
                <path id="Path_7979" d="M525.5 296.9h58.6a47.3 47.3 0 0 0 0-94.6 47.2 47.2 0 0 0-33.2 13.6" class="cls-4"/>
                <path id="Line_1407" d="M0 0L107.4 0" class="cls-4" transform="translate(118 296.9)"/>
                <path id="Line_1408" d="M0 0L107.4 0" class="cls-4" transform="translate(469.9 296.9)"/>
                <path id="Line_1409" d="M0 0L29.2 0" class="cls-4" transform="translate(427.5 296.9)"/>
                <path id="Line_1410" d="M0 0L53.6 0" class="cls-4" transform="translate(233.5 296.9)"/>
                <path id="Path_7980" d="M107.9 296.9a53.6 53.6 0 1 1 14.3-105.3" class="cls-4"/>
                <path id="Path_7981" d="M210 96.7a108.5 108.5 0 0 0-14.2 26.7 81.7 81.7 0 0 0-98.7 67.4" class="cls-4"/>
                <path id="Path_7982" d="M571.1 204.4a44.848 44.848 0 0 0-69.3-44.9 72.1 72.1 0 0 0-104.7-43.7" class="cls-4"/>
                <path id="Path_7983" d="M385.4 124.3A72 72 0 0 1 503 163.2" class="cls-4"/>
                <path id="Path_7984" fill="#16bf9f" d="M209.3 296.1a36.5 36.5 0 1 1-36.5-36.5 36.5 36.5 0 0 1 36.5 36.5"/>
                <path id="Path_7985" d="M389.8 271.5v-13.2a26.5 26.5 0 0 0-26.5-26.5h-17a26.5 26.5 0 0 0-26.5 26.5v13.2" class="cls-4"/>
                <path id="Rectangle_8624" d="M0 0H94.6V18.51H0z" class="cls-4" transform="translate(307.5 271.5)"/>
                <path id="Line_1411" d="M0 0L0 3.3" class="cls-4" transform="translate(313.6 279.9)"/>
                <path id="Line_1412" d="M0 0L0 3.3" class="cls-4" transform="translate(330.1 279.9)"/>
                <path id="Line_1413" d="M0 0L0 3.3" class="cls-4" transform="translate(346.5 279.9)"/>
                <path id="Line_1414" d="M0 0L0 3.3" class="cls-4" transform="translate(363 279.9)"/>
                <path id="Line_1415" d="M0 0L0 3.3" class="cls-4" transform="translate(379.5 279.9)"/>
                <path id="Line_1416" d="M0 0L0 3.3" class="cls-4" transform="translate(395.9 279.9)"/>
                <path id="Line_1417" d="M0 0L0 26.7" class="cls-4" transform="translate(313.6 296.2)"/>
                <path id="Line_1418" d="M0 0L0 26.7" class="cls-4" transform="translate(334.2 296.2)"/>
                <path id="Line_1419" d="M0 0L0 26.7" class="cls-4" transform="translate(354.8 296.2)"/>
                <path id="Line_1420" d="M0 0L0 26.7" class="cls-4" transform="translate(375.3 296.2)"/>
                <path id="Line_1421" d="M0 0L0 26.7" class="cls-4" transform="translate(395.9 296.2)"/>
                <path id="Path_7986" d="M323.6 353.8l31.2-12.4 31.2 12.4" class="cls-4"/>
                <path id="Line_1422" d="M0 0L0 16.4" class="cls-4" transform="translate(321.9 368.2)"/>
                <path id="Line_1423" d="M0 0L0 16.4" class="cls-4" transform="translate(305.4 368.2)"/>
                <path id="Line_1424" d="M0 0L0 16.4" class="cls-4" transform="translate(288.8 368.2)"/>
                <path id="Line_1425" d="M0 0L0 16.4" class="cls-4" transform="translate(420.8 368.2)"/>
                <path id="Line_1426" d="M0 0L0 16.4" class="cls-4" transform="translate(404.3 368.2)"/>
                <path id="Line_1427" d="M0 0L0 16.4" class="cls-4" transform="translate(387.7 368.2)"/>
                <path id="Path_7987" d="M272.5 390.8V354a4.4 4.4 0 0 1 4.4-4.4h19v-7.8a12.8 12.8 0 0 1 12.9-12.7h88.6a12.8 12.8 0 0 1 12.9 12.7v7.8h22.3a4.4 4.4 0 0 1 4.4 4.4v36.8" class="cls-4"/>
                <path id="Path_7988" d="M332.1 397h-65.8v16.4h176.9V397h-65.8" class="cls-4"/>
                <path id="Path_7989" d="M356.8 357.8h-4a12.4 12.4 0 0 0-12.4 12.4v32.9h28.8v-32.9a12.4 12.4 0 0 0-12.4-12.4z" class="cls-4"/>
                <path id="Path_7990" d="M365.1 232.4v-4.1a6.4 6.4 0 0 0-6.4-6.4h-7.8a6.4 6.4 0 0 0-6.4 6.4v4.1" class="cls-4"/>
                <path id="Line_1428" d="M0 8.6L0 0" class="cls-4" transform="translate(354.8 211.9)"/>
                <path id="Path_7991" d="M193.5 291.5h-3.7a17.5 17.5 0 0 0-1.8-4.3l2.6-2.7a.9.9 0 0 0 0-1.3l-5.1-5.1a.9.9 0 0 0-1.3 0l-2.7 2.7a17.5 17.5 0 0 0-4.3-1.8v-3.7a.9.9 0 0 0-.9-.9h-7.2a.9.9 0 0 0-.9.9v3.7a17.5 17.5 0 0 0-4.3 1.8l-2.6-2.7a.9.9 0 0 0-1.3 0l-5.1 5.1a.9.9 0 0 0 0 1.3l2.6 2.7a17.6 17.6 0 0 0-1.8 4.3H152a.9.9 0 0 0-.9.9v7.2a.9.9 0 0 0 .9.9h3.7a17.5 17.5 0 0 0 1.8 4.3l-2.6 2.7a.9.9 0 0 0 0 1.3l5.1 5.1a.9.9 0 0 0 1.3 0l2.6-2.7a17.5 17.5 0 0 0 4.3 1.8v3.7a.9.9 0 0 0 .9.9h7.2a.9.9 0 0 0 .9-.9V313a17.5 17.5 0 0 0 4.3-1.8l2.7 2.7a.9.9 0 0 0 1.3 0l5.1-5.1a.9.9 0 0 0 0-1.3l-2.6-2.7a17.5 17.5 0 0 0 1.8-4.3h3.7a.9.9 0 0 0 .9-.9v-7.2a.9.9 0 0 0-.9-.9z" class="cls-6"/>
                <path id="Path_7992" d="M181 296.1a8.3 8.3 0 1 1-8.3-8.3 8.3 8.3 0 0 1 8.3 8.3z" class="cls-6"/>
                <path id="Path_7993" d="M260.3 376.4H50a12 12 0 0 1-12-12V49.9a12 12 0 0 0-12-12H13a12 12 0 0 0-12 12v15.2a12 12 0 0 0 12 12h196.3" class="cls-7"/>
                <path id="Path_7994" d="M690.1 12.1c-9.1 0-15.7 2.6-15.7 5.8v27.9c0 2.3 3 4.3 8.5 5.2l3.8.5h6.6l3.8-.5c5.5-.9 8.5-2.9 8.5-5.2V17.9c.2-3.2-6.4-5.8-15.5-5.8z" class="cls-4"/>
                <path id="Path_7995" d="M705.8 17.6c0 2.7-6.7 5.1-15.8 5.1s-14.2-1.8-15.5-4.1" class="cls-4"/>
                <path id="Path_7996" d="M705.9 28.2c-1.1 2.4-7.5 4.1-15.9 4.1s-13.7-1.5-15.5-3.5" class="cls-4"/>
                <path id="Path_7997" d="M705.8 38.1c-1.2 2.3-7.5 3.9-15.8 3.9s-13.9-1.4-15.6-3.5" class="cls-4"/>
                <path id="Path_7998" d="M685.7 9.9V6.8c0-3.2-6.6-5.8-15.7-5.8s-15.7 2.6-15.7 5.8v27.8c0 2.3 3 4.3 8.5 5.2l3.8.5h5" class="cls-4"/>
                <path id="Path_7999" d="M685.7 7c-.8 2.5-7.1 4.6-15.6 4.6s-15.4-2.2-15.7-4.9" class="cls-4"/>
                <path id="Path_8000" d="M672.2 21.2h-2.1c-9.1 0-15.7-2.1-15.7-4.9" class="cls-4"/>
                <path id="Path_8001" d="M672.3 30.8h-2.2c-9.1 0-15.7-2-15.7-4.7" class="cls-4"/>
                <rect id="Rectangle_8625" width="32.9" height="32.88" class="cls-4" rx=".7" transform="translate(663.7 255.3)"/>
                <rect id="Rectangle_8626" width="20.4" height="20.35" class="cls-4" rx="1" transform="translate(669.9 261.5)"/>
                <path id="Line_1429" d="M0 0L5.2 0" class="cls-4" transform="translate(658.5 265.2)"/>
                <path id="Line_1430" d="M0 0L5.2 0" class="cls-4" transform="translate(658.5 258.4)"/>
                <path id="Line_1431" d="M0 0L5.2 0" class="cls-4" transform="translate(658.5 272)"/>
                <path id="Line_1432" d="M0 0L5.2 0" class="cls-4" transform="translate(658.5 278.8)"/>
                <path id="Line_1433" d="M0 0L5.2 0" class="cls-4" transform="translate(658.5 285.5)"/>
                <path id="Line_1434" d="M0 5.2L0 0" class="cls-4" transform="translate(673.1 288.2)"/>
                <path id="Line_1435" d="M0 5.2L0 0" class="cls-4" transform="translate(666.3 288.2)"/>
                <path id="Line_1436" d="M0 5.2L0 0" class="cls-4" transform="translate(679.9 288.2)"/>
                <path id="Line_1437" d="M0 5.2L0 0" class="cls-4" transform="translate(686.6 288.2)"/>
                <path id="Line_1438" d="M0 5.2L0 0" class="cls-4" transform="translate(693.4 288.2)"/>
                <path id="Line_1439" d="M0 5.2L0 0" class="cls-4" transform="translate(673.1 250.1)"/>
                <path id="Line_1440" d="M0 5.2L0 0" class="cls-4" transform="translate(666.3 250.1)"/>
                <path id="Line_1441" d="M0 5.2L0 0" class="cls-4" transform="translate(679.9 250.1)"/>
                <path id="Line_1442" d="M0 5.2L0 0" class="cls-4" transform="translate(686.6 250.1)"/>
                <path id="Line_1443" d="M0 5.2L0 0" class="cls-4" transform="translate(693.4 250.1)"/>
                <path id="Line_1444" d="M0 0L5.2 0" class="cls-4" transform="translate(696.6 265.2)"/>
                <path id="Line_1445" d="M0 0L5.2 0" class="cls-4" transform="translate(696.6 258.4)"/>
                <path id="Line_1446" d="M0 0L5.2 0" class="cls-4" transform="translate(696.6 272)"/>
                <path id="Line_1447" d="M0 0L5.2 0" class="cls-4" transform="translate(696.6 278.8)"/>
                <path id="Line_1448" d="M0 0L5.2 0" class="cls-4" transform="translate(696.6 285.5)"/>
                <path id="Rectangle_8627" d="M0 0H4.3V4.33H0z" class="cls-4" transform="translate(678.3 191.2)"/>
                <path id="Rectangle_8628" d="M0 0H4.3V4.33H0z" class="cls-4" transform="translate(689.1 194.1)"/>
                <path id="Rectangle_8629" d="M0 0H4.3V4.33H0z" class="cls-4" transform="translate(672.5 199.9)"/>
                <path id="Rectangle_8630" d="M0 0H4.3V4.33H0z" class="cls-4" transform="translate(682.6 201.3)"/>
                <path id="Rectangle_8631" d="M0 0H4.3V4.33H0z" class="cls-4" transform="translate(667.5 215)"/>
                <path id="Rectangle_8632" d="M0 0H4.3V4.33H0z" class="cls-4" transform="translate(677.6 210)"/>
                <path id="Rectangle_8633" d="M0 0H4.3V4.33H0z" class="cls-4" transform="translate(670.4 186.9)"/>
                <path id="Rectangle_8634" d="M0 0H4.3V4.33H0z" class="cls-4" transform="translate(681.2 182.6)"/>
                <path id="Path_8002" d="M686.3 191.2h11.5v28.2h10.8v-39l-28.2-18.8-28.8 18.8v39h11.6v-28.2h3.6" class="cls-4"/>
                <path id="Line_1449" d="M0 16.9L5.3 0" class="cls-4" transform="translate(672.3 116.5)"/>
                <path id="Line_1450" d="M0 0L21 0" class="cls-4" transform="translate(651.2 109.1)"/>
                <path id="Line_1451" d="M0 0L10.6 20.9" class="cls-4" transform="translate(666.6 78.1)"/>
                <path id="Line_1452" d="M8.3 0L0 10.9" class="cls-4" transform="translate(685.5 88.1)"/>
                <path id="Path_8003" d="M687.6 114.4a9.5 9.5 0 1 1 0-13.4 9.5 9.5 0 0 1 0 13.4z" class="cls-4"/>
                <path id="Path_8004" d="M642.6 113.3a5.2 5.2 0 1 1 7.3 0 5.2 5.2 0 0 1-7.3 0z" class="cls-4"/>
                <path id="Path_8005" d="M661.3 77.4a5.2 5.2 0 1 1 3.933.7 5.2 5.2 0 0 1-3.933-.7z" class="cls-4"/>
                <path id="Line_1453" d="M20.1 12L0 0" class="cls-4" transform="translate(689 112.3)"/>
                <path id="Path_8006" d="M713.9 122.1a5.2 5.2 0 1 1-5.2 5.2 5.2 5.2 0 0 1 5.2-5.2z" class="cls-4"/>
                <path id="Path_8007" d="M675.5 140.4a5.2 5.2 0 1 0-6.8 2.8 5.2 5.2 0 0 0 6.8-2.8z" class="cls-4"/>
                <path id="Path_8008" d="M693.2 87.6a5.2 5.2 0 1 1 7.3 0 5.2 5.2 0 0 1-7.3 0z" class="cls-4"/>
                <path id="Path_8009" d="M449.8 376.4H729a12 12 0 0 0 12-12V40.2c0-6.6-4.5-12-10-12h-10" class="cls-7"/>
                <path id="Line_1454" d="M174.7 0L0 0" class="cls-7" transform="translate(456.7 28.2)"/>
            </g>
        </g>
    </g>
</svg>
