<svg xmlns="http://www.w3.org/2000/svg" id="graphic-del-ps-benefits-2" width="501.5" height="252.53" viewBox="0 0 501.5 252.53">
    <defs>
        <clipPath id="clip-path">
            <path id="Rectangle_8489" fill="none" d="M0 0H501.5V252.53H0z"/>
        </clipPath>
        <style>
            .cls-2,.cls-4,.cls-5,.cls-6{fill:none}.cls-2{stroke:#879196}.cls-2,.cls-4,.cls-5,.cls-6{stroke-linejoin:round;stroke-width:2px}.cls-4{stroke:#869095}.cls-5{stroke:#16bf9f}.cls-6{stroke:#869196}
        </style>
    </defs>
    <g id="graphic-del-ps-benefits-2-2" transform="translate(250.75 126.265)">
        <g id="graphic-del-ps-benefits-2-3" transform="translate(-250.75 -126.265)">
            <path id="Line_956" d="M0 0L29.3 0" class="cls-2" transform="translate(37.9 113.3)"/>
            <path id="Rectangle_8466" d="M0 0H5.4V5.36H0z" class="cls-2" transform="rotate(-.2 31583.998 -8162.253)"/>
            <path id="Line_957" d="M0 0L29.3 0" class="cls-2" transform="translate(37.9 125.6)"/>
            <path id="Rectangle_8467" d="M0 0H5.4V5.37H0z" class="cls-2" transform="rotate(-.2 35107.656 -8139.774)"/>
            <path id="Line_958" d="M0 0L29.3 0" class="cls-2" transform="translate(37.9 137.9)"/>
            <path id="Rectangle_8468" d="M0 0H5.4V5.37H0z" class="cls-2" transform="rotate(-.2 38631.078 -8145.943)"/>
            <path id="Line_959" d="M0 49.2L0 0" class="cls-2" transform="translate(15.6 102.5)"/>
            <g id="Group_6091" clip-path="url(#clip-path)">
                <path id="Line_960" d="M0 0L83.1 0" class="cls-2" transform="translate(1 102.5)"/>
                <path id="Path_7763" d="M82.3 151.7A1.7 1.7 0 0 0 84 150V93.4a1.7 1.7 0 0 0-1.7-1.7H2.8A1.7 1.7 0 0 0 1 93.4V150a1.7 1.7 0 0 0 1.7 1.7z" class="cls-2"/>
                <path id="Line_961" d="M0 0L3.9 0" class="cls-4" transform="translate(4.8 97.1)"/>
                <path id="Line_962" d="M0 0L3.8 0" class="cls-4" transform="translate(11 97.1)"/>
                <path id="Line_963" d="M0 0L3.8 0" class="cls-4" transform="translate(17.2 97.1)"/>
                <path id="Line_964" d="M0 0L39.2 0" class="cls-2" transform="translate(445.9 138.6)"/>
                <path id="Path_7764" d="M452 139l6.1-14.2h5.2l3.8 5.2 4.6-16.4 7 25.4" class="cls-5"/>
                <path id="Line_965" d="M0 49.2L0 0" class="cls-5" transform="translate(432 102.5)"/>
                <path id="Line_966" d="M0 0L83.1 0" class="cls-5" transform="translate(417.4 102.5)"/>
                <path id="Path_7765" d="M498.7 151.7a1.7 1.7 0 0 0 1.7-1.7V93.4a1.7 1.7 0 0 0-1.7-1.7h-79.5a1.7 1.7 0 0 0-1.7 1.7V150a1.7 1.7 0 0 0 1.7 1.7z" class="cls-2"/>
                <path id="Line_967" d="M0 0L3.9 0" class="cls-4" transform="translate(421.2 97.1)"/>
                <path id="Line_968" d="M0 0L3.8 0" class="cls-4" transform="translate(427.4 97.1)"/>
                <path id="Line_969" d="M0 0L3.9 0" class="cls-4" transform="translate(433.5 97.1)"/>
                <path id="Path_7766" d="M219.3 19.6V2.9a1.9 1.9 0 0 1 1.9-1.9h30.1" class="cls-4"/>
                <path id="Path_7767" d="M253 70.3h-31.8a1.9 1.9 0 0 1-1.9-1.9V55.2" class="cls-4"/>
                <path id="Line_970" d="M0 0L0 28.3" class="cls-4" transform="translate(267.2 17.1)"/>
                <path id="Line_971" d="M0 0L21.3 0" class="cls-4" transform="translate(238.8 29.4)"/>
                <path id="Line_972" d="M0 0L21.3 0" class="cls-4" transform="translate(238.8 38.3)"/>
                <path id="Line_973" d="M0 0L22.2 0" class="cls-4" transform="translate(237.9 48.1)"/>
                <path id="Line_974" d="M0 0L25.6 0" class="cls-4" transform="translate(228.3 56.9)"/>
                <path id="Line_975" d="M0 0L16.9 0" class="cls-4" transform="translate(229.9 19.6)"/>
                <path id="Path_7768" d="M251.2 17h16l-16-16z" class="cls-4"/>
                <path id="Path_7769" d="M201.8 43.4l1.3 2.7a.6.6 0 0 0 .7.3l3.2-.9a13.7 13.7 0 0 0 4.1 3.8l-.7 3.3a.6.6 0 0 0 .4.7l2.8 1a.6.6 0 0 0 .7-.3l1.6-2.9a13.6 13.6 0 0 0 5.6-.2l1.9 2.8a.6.6 0 0 0 .7.2l2.7-1.2a.6.6 0 0 0 .3-.7l-.9-3.2a13.6 13.6 0 0 0 3.8-4.1l3.3.7a.6.6 0 0 0 .7-.4l1-2.8a.6.6 0 0 0-.3-.7l-2.9-1.6a13.6 13.6 0 0 0-.2-5.6l2.8-1.9a.6.6 0 0 0 .2-.7l-1.3-2.7a.6.6 0 0 0-.7-.3l-3.2.9a13.7 13.7 0 0 0-4.1-3.8l.7-3.3a.6.6 0 0 0-.4-.7l-2.8-1a.6.6 0 0 0-.7.3l-1.6 2.9a13.7 13.7 0 0 0-5.6.2l-1.9-2.8a.6.6 0 0 0-.7-.2l-2.7 1.3a.6.6 0 0 0-.3.7l.9 3.2a13.6 13.6 0 0 0-3.8 4.1l-3.3-.7a.6.6 0 0 0-.7.4l-1 2.8a.6.6 0 0 0 .3.7l2.9 1.6a13.7 13.7 0 0 0 .2 5.6l-2.8 1.8a.6.6 0 0 0-.2.7zm12.7-12.5a7.5 7.5 0 1 1-3.4 9.2 7.5 7.5 0 0 1 3.4-9.2z" class="cls-5"/>
                <path id="Path_7770" d="M255.7 63.2a13.3 13.3 0 1 0 3.86-9.469 13.3 13.3 0 0 0-3.86 9.469z" class="cls-4"/>
                <path id="Path_7771" d="M269.9 69.4l6.2-6.2h-16" class="cls-5"/>
                <path id="Line_976" d="M0 0L6.2 6.3" class="cls-5" transform="translate(269.9 56.9)"/>
                <path id="Rectangle_8469" d="M0 0H10.8V10.8H0z" class="cls-6" transform="translate(112.4 108.5)"/>
                <path id="Rectangle_8470" d="M0 0H10.8V10.8H0z" class="cls-6" transform="translate(128.6 135.7)"/>
                <path id="Rectangle_8471" d="M0 0H10.8V10.8H0z" class="cls-6" transform="translate(137.6 89.1)"/>
                <path id="Rectangle_8472" d="M0 0H10.8V10.8H0z" class="cls-5" transform="translate(135.8 115.9)"/>
                <path id="Rectangle_8473" d="M0 0H10.8V10.8H0z" class="cls-6" transform="translate(162.8 81.7)"/>
                <path id="Rectangle_8474" d="M0 0H10.8V10.8H0z" class="cls-5" transform="translate(123.2 76.3)"/>
                <path id="Rectangle_8475" d="M0 0H10.8V10.8H0z" class="cls-6" transform="translate(155.6 108.5)"/>
                <path id="Rectangle_8476" d="M0 0H10.8V10.8H0z" class="cls-6" transform="translate(162.8 126.7)"/>
                <path id="Rectangle_8477" d="M0 0H10.8V10.8H0z" class="cls-5" transform="translate(197.2 69.1)"/>
                <path id="Rectangle_8478" d="M0 0H10.8V10.8H0z" class="cls-6" transform="translate(101.6 65.5)"/>
                <path id="Rectangle_8479" d="M0 0H10.8V10.8H0z" class="cls-6" transform="translate(302.4 108.5)"/>
                <path id="Rectangle_8480" d="M0 0H10.8V10.8H0z" class="cls-6" transform="translate(318.6 135.7)"/>
                <path id="Rectangle_8481" d="M0 0H10.8V10.8H0z" class="cls-6" transform="translate(327.6 89.1)"/>
                <path id="Rectangle_8482" d="M0 0H10.8V10.8H0z" class="cls-5" transform="translate(325.8 115.9)"/>
                <path id="Rectangle_8483" d="M0 0H10.8V10.8H0z" class="cls-6" transform="translate(352.8 81.7)"/>
                <path id="Rectangle_8484" d="M0 0H10.8V10.8H0z" class="cls-5" transform="translate(313.2 76.3)"/>
                <path id="Rectangle_8485" d="M0 0H10.8V10.8H0z" class="cls-6" transform="translate(345.6 108.5)"/>
                <path id="Rectangle_8486" d="M0 0H10.8V10.8H0z" class="cls-6" transform="translate(352.8 126.7)"/>
                <path id="Rectangle_8487" d="M0 0H10.8V10.8H0z" class="cls-5" transform="translate(387.2 69.1)"/>
                <path id="Rectangle_8488" d="M0 0H10.8V10.8H0z" class="cls-6" transform="translate(291.6 65.5)"/>
                <path id="Line_977" d="M0 0L73 0" class="cls-2" transform="translate(52.1 207.5)"/>
                <path id="Line_978" d="M0 0L29 0" class="cls-2" transform="translate(140.1 207.5)"/>
                <path id="Line_979" d="M0 0L110 0" class="cls-2" transform="translate(310.1 207.5)"/>
                <path id="Line_980" d="M0 0L11 0" class="cls-2" transform="translate(431.1 207.5)"/>
                <path id="Line_981" d="M0 0L39 0" class="cls-2" transform="translate(455.1 207.5)"/>
                <circle id="Ellipse_112" cx="2.1" cy="2.1" r="2.1" class="cls-4" transform="translate(210.9 225.2)"/>
                <path id="Path_7772" d="M249.6 145.7a2.1 2.1 0 1 1-2.1-2.1 2.1 2.1 0 0 1 2.1 2.1z" class="cls-4"/>
                <path id="Path_7773" d="M296.7 225.9a2.1 2.1 0 1 1-2.1-2.1 2.1 2.1 0 0 1 2.1 2.1z" class="cls-4"/>
                <path id="Path_7774" d="M263.5 192.7a3.5 3.5 0 1 1-3.5-3.5 3.5 3.5 0 0 1 3.5 3.5z" class="cls-4"/>
                <path id="Path_7775" d="M281.4 165.1a2.1 2.1 0 1 1-2.1-2.1 2.1 2.1 0 0 1 2.1 2.1z" class="cls-4"/>
                <circle id="Ellipse_113" cx="2.1" cy="2.1" r="2.1" class="cls-4" transform="translate(187.4 211.4)"/>
                <circle id="Ellipse_114" cx="2.1" cy="2.1" r="2.1" class="cls-4" transform="translate(245.4 247.4)"/>
                <path id="Line_982" d="M0 0L71.9 0" class="cls-4" transform="translate(221.3 225.9)"/>
                <path id="Line_983" d="M14.6 57.1L0 0" class="cls-4" transform="translate(279.2 166.8)"/>
                <path id="Line_984" d="M86.9 0L0 47" class="cls-4" transform="translate(190.4 165.9)"/>
                <path id="Line_985" d="M0 0L32.2 20.9" class="cls-5" transform="translate(214.1 227.8)"/>
                <path id="Line_986" d="M0 0L16.1 8.2" class="cls-4" transform="translate(190.2 214.9)"/>
                <path id="Line_987" d="M0 99.6L0 0" class="cls-5" transform="translate(247.5 148.5)"/>
                <path id="Line_988" d="M33.8 0L0 77.8" class="cls-5" transform="translate(213.2 147.7)"/>
                <path id="Line_989" d="M73.3 0L0 0" class="cls-4" transform="translate(203.3 165.1)"/>
                <path id="Path_7776" d="M202.6 165.1a2.1 2.1 0 1 1-2.1-2.1 2.1 2.1 0 0 1 2.1 2.1z" class="cls-4"/>
                <path id="Line_990" d="M11.3 0L0 45.3" class="cls-4" transform="translate(189.4 166.7)"/>
                <path id="Line_991" d="M0 0L6.9 0" class="cls-4" transform="translate(261.4 241.2)"/>
                <path id="Line_992" d="M0 0L6.9 0" class="cls-4" transform="translate(271.1 241.2)"/>
                <path id="Line_993" d="M0 0L13.8 0" class="cls-4" transform="translate(185.3 227.3)"/>
                <path id="Line_994" d="M6.9 0L0 0" class="cls-4" transform="translate(224 155.4)"/>
                <path id="Line_995" d="M5.5 0L0 0" class="cls-4" transform="translate(211.6 148.5)"/>
                <path id="Line_996" d="M5.5 0L0 0" class="cls-4" transform="translate(203.3 148.5)"/>
                <path id="Line_997" d="M6.9 0L0 0" class="cls-4" transform="translate(192.2 148.5)"/>
                <path id="Line_998" d="M7 0L0 0" class="cls-4" transform="translate(182.5 148.5)"/>
                <path id="Path_7777" d="M294.6 246a4.8 4.8 0 1 1-4.8-4.8 4.8 4.8 0 0 1 4.8 4.8z" class="cls-4"/>
            </g>
        </g>
    </g>
</svg>
