<svg xmlns="http://www.w3.org/2000/svg" id="graphic-del-benefit-2" width="490" height="230.87" viewBox="0 0 490 230.87">
    <defs>
        <clipPath id="clip-path">
            <path id="Rectangle_8663" fill="none" d="M0 0H490V230.87H0z" data-name="Rectangle 8663"/>
        </clipPath>
        <style>
            .cls-10,.cls-11,.cls-2,.cls-3,.cls-4,.cls-5,.cls-9{fill:none}.cls-2,.cls-9{stroke:#869196}.cls-2,.cls-3,.cls-4{stroke-linejoin:round}.cls-10,.cls-11,.cls-2,.cls-3,.cls-4,.cls-5,.cls-9{stroke-width:2px}.cls-10,.cls-3{stroke:#16bf9f}.cls-11,.cls-4{stroke:#879196}.cls-5{stroke:#869095;stroke-linecap:square}.cls-10,.cls-11,.cls-5,.cls-9{stroke-miterlimit:10}.cls-6{clip-path:url(#clip-path)}
        </style>
    </defs>
    <g id="graphic-del-benefit-2-2" data-name="graphic-del-benefit-2" transform="translate(245 115.435)">
        <g id="Group_5790" data-name="Group 5790" transform="translate(-245 -115.435)">
            <path id="Rectangle_8643" d="M0 0H10.5V10.51H0z" class="cls-2" data-name="Rectangle 8643" transform="translate(314 107.7)"/>
            <path id="Rectangle_8644" d="M0 0H10.5V10.51H0z" class="cls-2" data-name="Rectangle 8644" transform="translate(329.8 134.2)"/>
            <path id="Rectangle_8645" d="M0 0H10.5V10.51H0z" class="cls-2" data-name="Rectangle 8645" transform="translate(338.5 88.8)"/>
            <path id="Rectangle_8646" d="M0 0H10.5V10.51H0z" class="cls-3" data-name="Rectangle 8646" transform="translate(336.8 114.9)"/>
            <path id="Rectangle_8647" d="M0 0H10.5V10.51H0z" class="cls-2" data-name="Rectangle 8647" transform="translate(363 81.6)"/>
            <path id="Rectangle_8648" d="M0 0H10.5V10.51H0z" class="cls-3" data-name="Rectangle 8648" transform="translate(324.5 76.4)"/>
            <path id="Rectangle_8649" d="M0 0H10.5V10.51H0z" class="cls-2" data-name="Rectangle 8649" transform="translate(356 107.7)"/>
            <path id="Rectangle_8650" d="M0 0H10.5V10.51H0z" class="cls-2" data-name="Rectangle 8650" transform="translate(363 125.4)"/>
            <path id="Rectangle_8651" d="M0 0H10.5V10.51H0z" class="cls-3" data-name="Rectangle 8651" transform="translate(396.5 69.4)"/>
            <path id="Rectangle_8652" d="M0 0H10.5V10.51H0z" class="cls-2" data-name="Rectangle 8652" transform="translate(303.5 65.9)"/>
            <path id="Rectangle_8653" d="M0 0H10.5V10.51H0z" class="cls-2" data-name="Rectangle 8653" transform="translate(103 107.7)"/>
            <path id="Rectangle_8654" d="M0 0H10.5V10.51H0z" class="cls-2" data-name="Rectangle 8654" transform="translate(118.8 134.2)"/>
            <path id="Rectangle_8655" d="M0 0H10.5V10.51H0z" class="cls-2" data-name="Rectangle 8655" transform="translate(127.5 88.8)"/>
            <path id="Rectangle_8656" d="M0 0H10.5V10.51H0z" class="cls-3" data-name="Rectangle 8656" transform="translate(125.8 114.9)"/>
            <path id="Rectangle_8657" d="M0 0H10.5V10.51H0z" class="cls-2" data-name="Rectangle 8657" transform="translate(152 81.6)"/>
            <path id="Rectangle_8658" d="M0 0H10.5V10.51H0z" class="cls-3" data-name="Rectangle 8658" transform="translate(113.5 76.4)"/>
            <path id="Rectangle_8659" d="M0 0H10.5V10.51H0z" class="cls-2" data-name="Rectangle 8659" transform="translate(145 107.7)"/>
            <path id="Rectangle_8660" d="M0 0H10.5V10.51H0z" class="cls-2" data-name="Rectangle 8660" transform="translate(152 125.4)"/>
            <path id="Rectangle_8661" d="M0 0H10.5V10.51H0z" class="cls-3" data-name="Rectangle 8661" transform="translate(185.5 69.4)"/>
            <path id="Rectangle_8662" d="M0 0H10.5V10.51H0z" class="cls-2" data-name="Rectangle 8662" transform="translate(92.5 65.9)"/>
            <path id="Line_3015" d="M0 0L73 0" class="cls-4" data-name="Line 3015" transform="translate(41.8 208.7)"/>
            <path id="Line_3016" d="M0 0L68.2 0" class="cls-4" data-name="Line 3016" transform="translate(129.8 208.7)"/>
            <path id="Line_3017" d="M0 0L110 0" class="cls-4" data-name="Line 3017" transform="translate(299.8 208.7)"/>
            <path id="Line_3018" d="M0 0L11 0" class="cls-4" data-name="Line 3018" transform="translate(420.8 208.7)"/>
            <path id="Line_3019" d="M0 0L39 0" class="cls-4" data-name="Line 3019" transform="translate(444.8 208.7)"/>
            <path id="Line_3020" d="M4 0L0 0" class="cls-5" data-name="Line 3020" transform="translate(225.8 38)"/>
            <path id="Line_3021" d="M4 0L0 0" class="cls-5" data-name="Line 3021" transform="translate(225.8 12)"/>
            <path id="Line_3022" d="M2 0L0 0" class="cls-5" data-name="Line 3022" transform="translate(225.8 51)"/>
            <path id="Line_3023" d="M2 0L0 0" class="cls-5" data-name="Line 3023" transform="translate(225.8 25)"/>
            <path id="Line_3024" d="M78 0L0 0" class="cls-5" data-name="Line 3024" transform="translate(214.8 64)"/>
            <g id="Group_5788" class="cls-6" data-name="Group 5788">
                <path id="Path_8450" fill="none" stroke="#16bf9f" stroke-linecap="square" stroke-linejoin="round" stroke-width="2px" d="M229.8 60l24-30h12l21-28.6" data-name="Path 8450"/>
            </g>
            <path id="Path_8451" fill="#16bf9f" d="M287.8 0l-9.4 1.8.3 1.6 7.7-1.5 1 7.8 1.5-.2z" data-name="Path 8451"/>
            <path id="Line_3025" d="M0 55L0 0" class="cls-5" data-name="Line 3025" transform="translate(220.8 5)"/>
            <g id="Group_5789" class="cls-6" data-name="Group 5789">
                <path id="Path_8452" d="M293.8 224.3v-48.4a2 2 0 0 0-2.1-1.9h-82.4a2 2 0 0 0-2.1 1.9v48.4" class="cls-2" data-name="Path 8452"/>
                <path id="Path_8453" d="M289.7 229.9a8.3 8.3 0 0 0 5.2-1.9l.3-.2v-4.9h-89.4v4.9l.3.2a8.3 8.3 0 0 0 5.2 1.9z" class="cls-2" data-name="Path 8453"/>
                <path id="Path_8454" d="M233.9 143.5c-.2 8.4 2.5 18.3 15.8 18.3s15.8-9.4 16.3-18.3" class="cls-9" data-name="Path 8454"/>
                <path id="Path_8455" d="M242.3 128.8s9.7 5.8 18.7 4.1c0 0 2.8 12.7 6.1 11.3 1.4-.6 4.7-9.8 1.9-16.2s1.6-6.6-.6-13.4c-.8-2.3-8.2 3.9-10.4 2.6a21.4 21.4 0 0 0-8.9-2.6c-4.9-.3-10.2 2.6-11.8 4-3.4 3-5.5 5-6.7 11.9-.7 3.6-.1 14.7 3.6 15.2.9.1-1.7-5.7 3-9.1s1.2-11.6 5.1-7.8z" class="cls-9" data-name="Path 8455"/>
                <path id="Path_8456" d="M256.1 170.4l2.8-6.5v-4.1" class="cls-10" data-name="Path 8456"/>
                <path id="Path_8457" d="M240.6 159.8v4.1l4.4 6.5" class="cls-10" data-name="Path 8457"/>
                <path id="Path_8458" d="M282.6 174c-7-7-20.1-10.4-23.5-10.8" class="cls-10" data-name="Path 8458"/>
                <path id="Path_8459" d="M240.6 162.8c-3.9.5-18.1 4.2-22.2 11.2" class="cls-10" data-name="Path 8459"/>
                <path id="Path_8460" d="M256.4 118.9c-1.1 1.1-4.9 2.2-8 2.3" class="cls-9" data-name="Path 8460"/>
                <path id="Path_8461" d="M471.4 126l17.1-16.7a1.3 1.3 0 0 0 0-1.9l-11-11a1.3 1.3 0 0 0-1.9 0l-4.1 4.1a9.6 9.6 0 0 1-13.6 0 8.1 8.1 0 0 0-11.4 0l-9 7.9a4.5 4.5 0 0 0 5.7 6.8l1.6-1.2c4.1-3.5 6-3.1 7.6-1.8l16.8 17" class="cls-11" data-name="Path 8461"/>
                <path id="Path_8462" d="M410.7 118.6l-9.3-9.3a1.3 1.3 0 0 1 0-1.9l11-11a1.3 1.3 0 0 1 1.9 0l4.1 4.1a9.6 9.6 0 0 0 13.6 0 8.1 8.1 0 0 1 10.8-.6" class="cls-11" data-name="Path 8462"/>
                <path id="Path_8463" d="M420.9 118.2a3.9 3.9 0 0 0-5.6 0l-7.9 7.9a3.96 3.96 0 0 0 5.6 5.6l7.9-7.9a3.9 3.9 0 0 0 0-5.6z" class="cls-11" data-name="Path 8463"/>
                <path id="Path_8464" d="M431.1 130.3a3.9 3.9 0 0 0-5.6 0l-7.9 7.9a3.96 3.96 0 0 0 5.6 5.6l7.9-7.9a3.9 3.9 0 0 0 0-5.6z" class="cls-11" data-name="Path 8464"/>
                <path id="Path_8465" d="M436.4 136.4a3.9 3.9 0 0 0-5.6 0l-6 6a3.96 3.96 0 0 0 5.6 5.6l6-6a3.9 3.9 0 0 0 0-5.6z" class="cls-11" data-name="Path 8465"/>
                <path id="Path_8466" d="M427.3 122.8a3.9 3.9 0 0 0-5.6 0L410 134.5a3.96 3.96 0 1 0 5.6 5.6l11.7-11.7a3.9 3.9 0 0 0 0-5.6z" class="cls-11" data-name="Path 8466"/>
                <path id="Path_8467" d="M455.6 126.7l7.9 7.9a3.96 3.96 0 1 0 5.6-5.6" class="cls-11" data-name="Path 8467"/>
                <path id="Path_8468" d="M443.8 137.5l9.6 9.5a3.96 3.96 0 0 0 5.6-5.6l-9.4-9.5" class="cls-11" data-name="Path 8468"/>
                <path id="Path_8469" d="M439.3 144.4l6.9 6.6a3.96 3.96 0 0 0 5.6-5.6l-5.4-5.4" class="cls-11" data-name="Path 8469"/>
                <path id="Path_8470" d="M452.5 134.9l8.4 8.4a3.96 3.96 0 1 0 5.6-5.6l-8.6-8.7" class="cls-11" data-name="Path 8470"/>
                <path id="Line_3026" d="M0 0L0 8" class="cls-10" data-name="Line 3026" transform="translate(443 159.9)"/>
                <path id="Line_3027" d="M0 0L0 6" class="cls-10" data-name="Line 3027" transform="translate(451 157.9)"/>
                <path id="Line_3028" d="M0 0L0 6" class="cls-10" data-name="Line 3028" transform="translate(435 157.9)"/>
                <path id="Line_3029" d="M0 0L0 3" class="cls-10" data-name="Line 3029" transform="translate(459 155.9)"/>
                <path id="Line_3030" d="M0 0L0 3" class="cls-10" data-name="Line 3030" transform="translate(427 155.9)"/>
                <path id="Line_3031" d="M0 9L0 0" class="cls-10" data-name="Line 3031" transform="translate(443 76.9)"/>
                <path id="Line_3032" d="M0 6L0 0" class="cls-10" data-name="Line 3032" transform="translate(435 80.9)"/>
                <path id="Line_3033" d="M0 6L0 0" class="cls-10" data-name="Line 3033" transform="translate(451 80.9)"/>
                <path id="Line_3034" d="M0 3L0 0" class="cls-10" data-name="Line 3034" transform="translate(427 85.9)"/>
                <path id="Line_3035" d="M0 3L0 0" class="cls-10" data-name="Line 3035" transform="translate(459 85.9)"/>
                <path id="Path_8471" d="M3.2 93a30 30 0 1 0 11.5-13.9" class="cls-11" data-name="Path 8471"/>
                <path id="Path_8472" d="M11.4 81.5a30.2 30.2 0 0 0-6.6 8" class="cls-11" data-name="Path 8472"/>
                <path id="Path_8473" d="M51 118.3a24.2 24.2 0 1 1 3-5.9" class="cls-11" data-name="Path 8473"/>
                <path id="Path_8474" d="M57.3 118.3L80 141.1a7.8 7.8 0 0 1-11 11l-22.4-22.4" class="cls-11" data-name="Path 8474"/>
                <path id="Line_3036" d="M7.7 0L0 8" class="cls-11" data-name="Line 3036" transform="translate(66.5 138.4)"/>
                <path id="Line_3037" d="M7.8 0L0 8" class="cls-11" data-name="Line 3037" transform="translate(62.2 134.2)"/>
            </g>
        </g>
    </g>
</svg>
