<svg xmlns="http://www.w3.org/2000/svg" id="graphic-del-financial-secondary" width="654" height="415.9" viewBox="0 0 654 415.9">
    <defs>
        <clipPath id="clip-path">
            <path id="Rectangle_9159" fill="none" d="M0 0H654V415.9H0z"/>
        </clipPath>
        <style>
            .cls-3{fill:#879196}.cls-4{fill:#879195}.cls-5{fill:#16bf9f}.cls-6{fill:#869196}.cls-7{fill:#849095}.cls-8{fill:#869095}
        </style>
    </defs>
    <g id="graphic-del-financial-secondary-2" transform="translate(327 207.95)">
        <g id="graphic-del-financial-secondary-3" clip-path="url(#clip-path)" transform="translate(-327 -207.95)">
            <path id="Path_9161" d="M206.7 381.4A137.8 137.8 0 0 1 98.2 221.2l2 .4a135.8 135.8 0 0 0 106.9 157.9z" class="cls-3"/>
            <path id="Path_9162" d="M106.2 229.3l-1.7 1.1-5.4-8.3-7.8 6-1.2-1.6 9.5-7.3z" class="cls-3"/>
            <path id="Path_9163" d="M368.6 227.6a136 136 0 0 0-56.7-92.8l1.1-1.6a138 138 0 0 1 57.5 94.2z" class="cls-3"/>
            <path id="Path_9164" d="M289.9 122.3a136.1 136.1 0 0 0-96.5-6l-.6-1.9a138.2 138.2 0 0 1 97.9 6.1z" class="cls-3"/>
            <path id="Path_9165" d="M331.2 342.5l-1.4-1.4a136.2 136.2 0 0 0 39.3-88.3h2a138.2 138.2 0 0 1-39.8 89.6" class="cls-3"/>
            <path id="Rectangle_9106" d="M0 0H3.5V3.47H0z" class="cls-4" transform="translate(0 109.8)"/>
            <path id="Rectangle_9107" d="M0 0H3.5V3.47H0z" class="cls-4" transform="translate(0 122)"/>
            <path id="Rectangle_9108" d="M0 0H3.5V3.47H0z" class="cls-4" transform="translate(0 134.1)"/>
            <path id="Rectangle_9109" d="M0 0H3.5V3.47H0z" class="cls-4" transform="translate(0 146.3)"/>
            <path id="Rectangle_9110" d="M0 0H3.5V3.47H0z" class="cls-4" transform="translate(0 158.4)"/>
            <path id="Rectangle_9111" d="M0 0H3.5V3.47H0z" class="cls-4" transform="translate(0 170.5)"/>
            <path id="Rectangle_9112" d="M0 0H41.2V2H0z" class="cls-4" transform="translate(10.5 110.4)"/>
            <path id="Rectangle_9113" d="M0 0H30.8V2H0z" class="cls-4" transform="translate(57.6 110.4)"/>
            <path id="Rectangle_9114" d="M0 0H39.9V2H0z" class="cls-5" transform="translate(31.2 122.6)"/>
            <path id="Rectangle_9115" d="M0 0H12.1V2H0z" class="cls-4" transform="translate(20.8 134.9)"/>
            <path id="Rectangle_9116" d="M0 0H67.6V2H0z" class="cls-4" transform="translate(38.1 134.9)"/>
            <path id="Rectangle_9117" d="M0 0H18.7V2H0z" class="cls-4" transform="translate(76.3 122.6)"/>
            <path id="Rectangle_9118" d="M0 0H39.9V2H0z" class="cls-4" transform="translate(31.2 146.9)"/>
            <path id="Rectangle_9119" d="M0 0H12.1V2H0z" class="cls-4" transform="translate(20.8 159.1)"/>
            <path id="Rectangle_9120" d="M0 0H12.1V2H0z" class="cls-4" transform="translate(38.1 159.1)"/>
            <path id="Rectangle_9121" d="M0 0H53.8V2H0z" class="cls-4" transform="translate(55.5 159.1)"/>
            <path id="Rectangle_9122" d="M0 0H18.7V2H0z" class="cls-5" transform="translate(76.3 146.9)"/>
            <path id="Rectangle_9123" d="M0 0H36.4V2H0z" class="cls-5" transform="translate(100.6 146.9)"/>
            <path id="Rectangle_9124" d="M0 0H39.9V2H0z" class="cls-4" transform="translate(15.6 171.2)"/>
            <path id="Rectangle_9125" d="M0 0H18.7V2H0z" class="cls-5" transform="translate(60.7 171.2)"/>
            <path id="Rectangle_9126" d="M0 0H36.4V2H0z" class="cls-4" transform="translate(85 171.2)"/>
            <path id="Rectangle_9127" d="M0 0H3.5V3.47H0z" class="cls-4" transform="translate(0 182.7)"/>
            <path id="Rectangle_9128" d="M0 0H3.5V3.47H0z" class="cls-4" transform="translate(0 194.8)"/>
            <path id="Rectangle_9129" d="M0 0H12.1V2H0z" class="cls-4" transform="translate(20.8 183.4)"/>
            <path id="Rectangle_9130" d="M0 0H67.6V2H0z" class="cls-5" transform="translate(38.1 183.4)"/>
            <path id="Rectangle_9131" d="M0 0H39.9V2H0z" class="cls-4" transform="translate(31.2 195.5)"/>
            <path id="Rectangle_9132" d="M0 0H18.7V2H0z" class="cls-5" transform="translate(76.3 195.5)"/>
            <path id="Rectangle_9133" d="M0 0H36.4V2H0z" class="cls-4" transform="translate(100.6 195.5)"/>
            <path id="Path_9166" d="M543.8 240.6h-4v-2h4zm-10 0h-4v-2h4zm-10 0h-4v-2h4zm-10 0h-4v-2h4zm-10 0h-4v-2h4zm-10 0h-4v-2h4zm-10 0h-4v-2h4zm-10 0h-4v-2h4zm-10 0h-4v-2h4zm-10 0h-4v-2h4zm-10 0h-4v-2h4zm-10 0h-4v-2h4zm-10 0h-4v-2h4zm-10 0h-4v-2h4zm-10 0h-4v-2h4zm-10 0h-4v-2h4zm-10 0h-4v-2h4zm-10 0h-4v-2h4zm-10 0h-4v-2h4zm-10 0h-4v-2h4z" class="cls-5"/>
            <path id="Path_9167" d="M539.6 247.8l-1.4-1.5 7.2-6.7-7.2-6.7 1.4-1.5 8.8 8.2z" class="cls-5"/>
            <path id="Path_9168" d="M496.4 268H477a1 1 0 0 1-1-1v-19.5a1 1 0 0 1 1-1h19.4a1 1 0 0 1 1 1V267a1 1 0 0 1-1 1m-18.4-2h17.4v-17.5H478z" class="cls-5"/>
            <path id="Path_9169" d="M467.2 316.9h-19.4a1 1 0 0 1-1-1v-19.4a1 1 0 0 1 1-1h19.4a1 1 0 0 1 1 1v19.4a1 1 0 0 1-1 1m-18.4-2h17.4v-17.4h-17.4z" class="cls-5"/>
            <path id="Path_9170" d="M451.1 233h-19.5a1 1 0 0 1-1-1v-19.4a1 1 0 0 1 1-1H451a1 1 0 0 1 1 1V232a1 1 0 0 1-1 1m-18.4-2H450v-17.4h-17.4z" class="cls-5"/>
            <path id="Path_9171" d="M454.3 281.3h-19.4a1 1 0 0 1-1-1v-19.5a1 1 0 0 1 1-1h19.4a1 1 0 0 1 1 1v19.4a1 1 0 0 1-1 1m-18.4-2h17.4v-17.4h-17.4z" class="cls-5"/>
            <path id="Path_9172" d="M405.7 219.7h-19.4a1 1 0 0 1-1-1v-19.4a1 1 0 0 1 1-1h19.4a1 1 0 0 1 1 1v19.4a1 1 0 0 1-1 1m-18.4-2h17.4v-17.4h-17.4z" class="cls-6"/>
            <path id="Path_9173" d="M477 210h-19.5a1 1 0 0 1-1-1v-19.4a1 1 0 0 1 1-1H477a1 1 0 0 1 1 1V209a1 1 0 0 1-1 1m-18.4-2H476v-17.4h-17.5z" class="cls-5"/>
            <path id="Path_9174" d="M418.7 268h-19.5a1 1 0 0 1-1-1v-19.5a1 1 0 0 1 1-1h19.4a1 1 0 0 1 1 1V267a1 1 0 0 1-1 1m-18.4-2h17.4v-17.5h-17.4z" class="cls-6"/>
            <path id="Path_9175" d="M405.7 300.7h-19.4a1 1 0 0 1-1-1v-19.4a1 1 0 0 1 1-1h19.4a1 1 0 0 1 1 1v19.4a1 1 0 0 1-1 1m-18.4-2h17.4v-17.4h-17.4z" class="cls-6"/>
            <path id="Path_9176" d="M343.9 197h-19.5a1 1 0 0 1-1-1v-19.4a1 1 0 0 1 1-1h19.4a1 1 0 0 1 1 1V196a1 1 0 0 1-1 1m-18.4-2h17.4v-17.4h-17.4z" class="cls-5"/>
            <path id="Path_9177" d="M515.8 190.6h-19.4a1 1 0 0 1-1-1v-19.5a1 1 0 0 1 1-1h19.4a1 1 0 0 1 1 1v19.4a1 1 0 0 1-1 1m-18.4-2h17.4v-17.4h-17.4z" class="cls-6"/>
            <path id="Path_9178" d="M611.6 217.6a95.4 95.4 0 0 1-18.4-1.6c-8.5-1.7-13.2-4.5-13.2-7.9h2c0 1.7 3 4.2 11.6 6a93.3 93.3 0 0 0 18 1.6 99.6 99.6 0 0 0 15.4-1.1c9.4-1.5 13.4-4 14-5.9l1.9.6c-1.4 4.3-10.4 6.4-15.6 7.2a100.2 100.2 0 0 1-15.7 1.1" class="cls-3"/>
            <path id="Path_9179" d="M611.5 279.2a42.5 42.5 0 1 1 42.5-42.5 42.5 42.5 0 0 1-42.5 42.5m0-83a40.5 40.5 0 1 0 40.5 40.5 40.5 40.5 0 0 0-40.5-40.5" class="cls-5"/>
            <path id="Path_9180" d="M611 279.2c-13.2 0-24-19.1-24-42.5s10.8-42.5 24-42.5 24 19.1 24 42.5-10.8 42.5-24 42.5m0-83c-12.1 0-22 18.2-22 40.5s9.9 40.5 22 40.5 22-18.2 22-40.5-9.9-40.5-22-40.5" class="cls-3"/>
            <path id="Rectangle_9134" d="M0 0H83V2H0z" class="cls-5" transform="translate(569 235.2)"/>
            <path id="Path_9181" d="M642 265.2h-2c-.5-1.8-4.2-4.3-13.3-5.9h-.1a97.4 97.4 0 0 0-16.1-1.2 95.3 95.3 0 0 0-17 1.4c-6.8 1.3-11.5 3.3-12.4 5.4l-1.8-.8c1.7-3.8 9.4-5.8 13.9-6.6a97.4 97.4 0 0 1 17.4-1.4 99.5 99.5 0 0 1 16.4 1.3c5.2.9 14.1 3.1 15 7.5v.4z" class="cls-3"/>
            <path id="Rectangle_9135" d="M0 0H2V81H0z" class="cls-5" transform="translate(610 196.2)"/>
            <path id="Path_9182" d="M282.2 415.9h-.5l-8.5-4.9-8.3 4.9a1 1 0 0 1-1 0l-19.6-11.6a1 1 0 0 1-.5-.9v-12l-9.5-5.2a1 1 0 0 1-.5-.9v-19a1 1 0 0 1 .5-.9l9.5-5.4v-12a1 1 0 0 1 .5-.9l18.9-11.6a1 1 0 0 1 1 0l9.5 5.7 9.5-5.7a1 1 0 0 1 1 0l18.9 11.6a1 1 0 0 1 .5.9v11.9l9.5 5.4a1 1 0 0 1 .5.9v18.3a1 1 0 0 1-.5.9l-10.5 5.9v12a1 1 0 0 1-.5.9l-19.6 11.6h-.5m-9-7.2h.5l8.5 4.9 18.6-11v-12a1 1 0 0 1 .5-.9l10.5-5.9v-16.9l-9.5-5.4a1 1 0 0 1-.5-.9v-11.9l-18-10.9-9.5 5.7a1 1 0 0 1-1.1-.1l-9.5-5.7-18 10.9v11.9a1 1 0 0 1-.5.9l-9.5 5.4v17.9l9.5 5.2a1 1 0 0 1 .5.9v12l18.6 11 8.3-4.9h.5" class="cls-5"/>
            <path id="Path_9183" d="M259.8 402.9h-8a1 1 0 0 1-1-1v-14h-13.2v-2h14.2a1 1 0 0 1 1 1v14h7z" class="cls-7"/>
            <path id="Rectangle_9136" d="M0 0H14V2H0z" class="cls-7" transform="translate(243.8 352.9)"/>
            <path id="Rectangle_9137" d="M0 0H2V12H0z" class="cls-7" transform="translate(249.8 353.9)"/>
            <path id="Rectangle_9138" d="M0 0H2V68.35H0z" class="cls-5" transform="translate(272.8 341.9)"/>
            <path id="Path_9184" d="M261.8 381.8h-2v-15a1 1 0 0 1 1-1h12v2h-11z" class="cls-7"/>
            <path id="Path_9185" d="M293.8 386.9h-7v-2h6v-10a1 1 0 0 1 1-1h19v2h-18v10a1 1 0 0 1-1 1" class="cls-7"/>
            <path id="Path_9186" d="M285.8 413.5h-2v-14.6a1 1 0 0 1 1-1h6v2h-5z" class="cls-7"/>
            <path id="Path_9187" d="M260.3 358.9a4.5 4.5 0 1 1 4.5-4.5 4.5 4.5 0 0 1-4.5 4.5m0-7a2.5 2.5 0 1 0 2.5 2.5 2.5 2.5 0 0 0-2.5-2.5" class="cls-7"/>
            <path id="Path_9188" d="M250.3 373.9a4.5 4.5 0 1 1 4.5-4.5 4.5 4.5 0 0 1-4.5 4.5m0-7a2.5 2.5 0 1 0 2.5 2.5 2.5 2.5 0 0 0-2.5-2.5" class="cls-7"/>
            <path id="Path_9189" d="M261.3 389.9a4.5 4.5 0 1 1 4.5-4.5 4.5 4.5 0 0 1-4.5 4.5m0-7a2.5 2.5 0 1 0 2.5 2.5 2.5 2.5 0 0 0-2.5-2.5" class="cls-7"/>
            <path id="Path_9190" d="M263.3 405.9a4.5 4.5 0 1 1 4.5-4.5 4.5 4.5 0 0 1-4.5 4.5m0-7a2.5 2.5 0 1 0 2.5 2.5 2.5 2.5 0 0 0-2.5-2.5" class="cls-7"/>
            <path id="Path_9191" d="M283.3 390.9a4.5 4.5 0 1 1 4.5-4.5 4.5 4.5 0 0 1-4.5 4.5m0-7a2.5 2.5 0 1 0 2.5 2.5 2.5 2.5 0 0 0-2.5-2.5" class="cls-7"/>
            <path id="Path_9192" d="M294.3 402.9a4.5 4.5 0 1 1 4.5-4.5 4.5 4.5 0 0 1-4.5 4.5m0-7a2.5 2.5 0 1 0 2.5 2.5 2.5 2.5 0 0 0-2.5-2.5" class="cls-7"/>
            <path id="Path_9193" d="M290.8 359.9h-17v-2h16v-3h2v4a1 1 0 0 1-1 1" class="cls-7"/>
            <path id="Rectangle_9139" d="M0 0H2V7H0z" class="cls-7" transform="translate(281.8 358.9)"/>
            <path id="Path_9194" d="M282.3 373.9a4.5 4.5 0 1 1 4.5-4.5 4.5 4.5 0 0 1-4.5 4.5m0-7a2.5 2.5 0 1 0 2.5 2.5 2.5 2.5 0 0 0-2.5-2.5" class="cls-7"/>
            <path id="Path_9195" d="M290.3 355.9a4.5 4.5 0 1 1 4.5-4.5 4.5 4.5 0 0 1-4.5 4.5m0-7a2.5 2.5 0 1 0 2.5 2.5 2.5 2.5 0 0 0-2.5-2.5" class="cls-7"/>
            <path id="Path_9196" d="M300.8 235.7h-2v-29.9a1.1 1.1 0 0 0-1.1-1.1h-40.8a1.1 1.1 0 0 0-1.1 1.1v22.8h-2v-22.8a3.1 3.1 0 0 1 3.1-3.1h40.8a3.1 3.1 0 0 1 3.1 3.1z" class="cls-3"/>
            <path id="Rectangle_9140" d="M0 0H17V2H0z" class="cls-3" transform="translate(268.8 264.7)"/>
            <path id="Path_9197" d="M295.8 235.7h-2v-25.4a.5.5 0 0 0-.4-.6h-32.2a.5.5 0 0 0-.4.6v18.3h-2v-18.3a2.5 2.5 0 0 1 2.4-2.6h32.1a2.5 2.5 0 0 1 2.4 2.6z" class="cls-5"/>
            <path id="Rectangle_9141" d="M0 0H17V2H0z" class="cls-5" transform="translate(268.8 252.7)"/>
            <path id="Path_9198" d="M279.8 259.7a2 2 0 1 1-2-2 2 2 0 0 1 2 2" class="cls-3"/>
            <path id="Path_9199" d="M268 283.7h-65a7.7 7.7 0 0 1-4.6-1.5l-.3-.2a1 1 0 0 1-.4-.8v-3.5a1 1 0 0 1 1-1h73a1 1 0 0 1 1 1v3.5a1 1 0 0 1-.4.8l-.5.4a6.4 6.4 0 0 1-3.9 1.3m-68.2-3a5.7 5.7 0 0 0 3.3 1h65a4.4 4.4 0 0 0 2.7-.9h.1v-2h-71z" class="cls-3"/>
            <path id="Path_9200" d="M259.5 273.7h-47.2a2.4 2.4 0 0 1-2.4-2.4v-31.2a2.4 2.4 0 0 1 2.4-2.4h47a2.4 2.4 0 0 1 2.4 2.4l.3 31.2a2.4 2.4 0 0 1-2.4 2.4m-47.2-34a.4.4 0 0 0-.4.4v31.2a.4.4 0 0 0 .4.4h47.2a.4.4 0 0 0 .4-.4l-.3-31.2a.4.4 0 0 0-.4-.4z" class="cls-5"/>
            <path id="Path_9201" d="M264.3 278.7h-57.1a2.5 2.5 0 0 1-2.5-2.5v-41.1a2.5 2.5 0 0 1 2.5-2.5h57.1a2.5 2.5 0 0 1 2.5 2.5v41.1a2.5 2.5 0 0 1-2.5 2.5m-57.1-44a.5.5 0 0 0-.5.5v41.1a.5.5 0 0 0 .5.5h57.1a.5.5 0 0 0 .5-.5v-41.2a.5.5 0 0 0-.5-.5z" class="cls-3"/>
            <path id="Rectangle_9142" d="M0 0H21V2H0z" class="cls-5" transform="translate(288.8 247.7)"/>
            <path id="Rectangle_9143" d="M0 0H6V2H0z" class="cls-3" transform="translate(297.8 243.7)"/>
            <path id="Path_9202" d="M307 282.7h-15.5a3.7 3.7 0 0 1-3.7-3.7v-34.8a4.5 4.5 0 0 1 4.5-4.5h13.9a4.5 4.5 0 0 1 4.5 4.5V279a3.7 3.7 0 0 1-3.7 3.7m-14.7-41a2.5 2.5 0 0 0-2.5 2.5V279a1.7 1.7 0 0 0 1.7 1.7H307a1.7 1.7 0 0 0 1.7-1.7v-34.8a2.5 2.5 0 0 0-2.5-2.5z" class="cls-3"/>
            <path id="Rectangle_9144" d="M0 0H21V2H0z" class="cls-5" transform="translate(288.8 275.7)"/>
            <path id="Path_9203" d="M293.8 244.7a1 1 0 1 0 1-1 1 1 0 0 0-1 1" class="cls-3"/>
            <path id="Path_9204" d="M186 237.2a15 15 0 1 1 15-15 15 15 0 0 1-15 15m0-28a13 13 0 1 0 13 13 13 13 0 0 0-13-13" class="cls-3"/>
            <path id="Path_9205" d="M200 264.2h-40.1v-1.1c1.6-26.2 24.6-26.9 25.9-26.9a23.5 23.5 0 0 1 14.6 4.2l-1.2 1.6a21.8 21.8 0 0 0-13.3-3.8h-.2c-1.4 0-21.8.4-23.9 24H200z" class="cls-3"/>
            <path id="Path_9206" d="M490 84h-2V54h-8v30h-2V53a1 1 0 0 1 1-1h10a1 1 0 0 1 1 1z" class="cls-8"/>
            <path id="Path_9207" d="M506 84h-2V46h-8v38h-2V45a1 1 0 0 1 1-1h10a1 1 0 0 1 1 1z" class="cls-8"/>
            <path id="Path_9208" d="M522 84h-2V68h-8v16h-2V67a1 1 0 0 1 1-1h10a1 1 0 0 1 1 1z" class="cls-8"/>
            <path id="Rectangle_9145" d="M0 0H48V2H0z" class="cls-8" transform="translate(476 85)"/>
            <path id="Rectangle_9146" d="M0 0H2V64H0z" class="cls-3" transform="translate(456 35)"/>
            <path id="Rectangle_9147" d="M0 0H108V2H0z" class="cls-3" transform="translate(438 34)"/>
            <path id="Path_9209" d="M440.2 100a3.2 3.2 0 0 1-3.2-3.2V23.2a3.2 3.2 0 0 1 3.3-3.2h103.4a3.2 3.2 0 0 1 3.3 3.2v73.6a3.2 3.2 0 0 1-3.3 3.2zm.1-78a1.2 1.2 0 0 0-1.3 1.2v73.6a1.2 1.2 0 0 0 1.2 1.2h103.5a1.2 1.2 0 0 0 1.3-1.2V23.2a1.2 1.2 0 0 0-1.3-1.2z" class="cls-3"/>
            <path id="Rectangle_9148" d="M0 0H5V2H0z" class="cls-8" transform="translate(443 27)"/>
            <path id="Rectangle_9149" d="M0 0H5V2H0z" class="cls-8" transform="translate(451 27)"/>
            <path id="Rectangle_9150" d="M0 0H5V2H0z" class="cls-8" transform="translate(459 27)"/>
            <path id="Path_9210" d="M301.8 150.4h-2V61.1a1 1 0 0 1 1-1h86.4v2h-85.4z" class="cls-3"/>
            <path id="Rectangle_9151" d="M0 0H5.8V2H0z" class="cls-3" transform="translate(395.8 60.1)"/>
            <path id="Rectangle_9152" d="M0 0H11.5V2H0z" class="cls-3" transform="translate(408.8 60.1)"/>
            <path id="Path_9211" d="M490 84h-2V54h-8v30h-2V53a1 1 0 0 1 1-1h10a1 1 0 0 1 1 1z" class="cls-5"/>
            <path id="Path_9212" d="M506 84h-2V46h-8v38h-2V45a1 1 0 0 1 1-1h10a1 1 0 0 1 1 1z" class="cls-5"/>
            <path id="Path_9213" d="M522 84h-2V68h-8v16h-2V67a1 1 0 0 1 1-1h10a1 1 0 0 1 1 1z" class="cls-5"/>
            <path id="Rectangle_9153" d="M0 0H48V2H0z" class="cls-8" transform="translate(476 85)"/>
            <path id="Rectangle_9154" d="M0 0H2V64H0z" class="cls-3" transform="translate(456 35)"/>
            <path id="Rectangle_9155" d="M0 0H108V2H0z" class="cls-3" transform="translate(438 34)"/>
            <path id="Path_9214" d="M440.2 100a3.2 3.2 0 0 1-3.2-3.2V23.2a3.2 3.2 0 0 1 3.3-3.2h103.4a3.2 3.2 0 0 1 3.3 3.2v73.6a3.2 3.2 0 0 1-3.3 3.2zm.1-78a1.2 1.2 0 0 0-1.3 1.2v73.6a1.2 1.2 0 0 0 1.2 1.2h103.5a1.2 1.2 0 0 0 1.3-1.2V23.2a1.2 1.2 0 0 0-1.3-1.2z" class="cls-3"/>
            <path id="Rectangle_9156" d="M0 0H5V2H0z" class="cls-5" transform="translate(443 27)"/>
            <path id="Rectangle_9157" d="M0 0H5V2H0z" class="cls-5" transform="translate(451 27)"/>
            <path id="Rectangle_9158" d="M0 0H5V2H0z" class="cls-5" transform="translate(459 27)"/>
        </g>
    </g>
</svg>
