<svg xmlns="http://www.w3.org/2000/svg" id="graphic-features-2" width="442" height="216.79" viewBox="0 0 442 216.79">
    <defs>
        <clipPath id="clip-path">
            <path id="Rectangle_4868" fill="none" d="M0 0H442V216.79H0z" data-name="Rectangle 4868"/>
        </clipPath>
        <style>
            .cls-3,.cls-4,.cls-5,.cls-6,.cls-7,.cls-8{fill:none}.cls-2{clip-path:url(#clip-path)}.cls-3{stroke:#879196}.cls-3,.cls-4,.cls-5,.cls-6,.cls-7,.cls-8{stroke-linejoin:round;stroke-width:2px}.cls-4,.cls-7{stroke:#527fff}.cls-5,.cls-6{stroke:#869196}.cls-5{stroke-linecap:round}.cls-7{stroke-linecap:square}.cls-8{stroke:#869095}
        </style>
    </defs>
    <g id="graphic-features-2-2" data-name="graphic-features-2" transform="translate(221 108.395)">
        <g id="Group_2861" data-name="Group 2861" transform="translate(-221 -108.395)">
            <g id="Group_2859" class="cls-2" data-name="Group 2859">
                <path id="Line_1672" d="M0 0L73 0" class="cls-3" data-name="Line 1672" transform="translate(0 205.8)"/>
            </g>
            <path id="Line_1673" d="M0 0L29 0" class="cls-3" data-name="Line 1673" transform="translate(88 205.8)"/>
            <path id="Line_1674" d="M0 0L67 0" class="cls-3" data-name="Line 1674" transform="translate(301 205.8)"/>
            <path id="Line_1675" d="M0 0L11 0" class="cls-3" data-name="Line 1675" transform="translate(379 205.8)"/>
            <g id="Group_2860" class="cls-2" data-name="Group 2860">
                <path id="Line_1676" d="M0 0L39 0" class="cls-3" data-name="Line 1676" transform="translate(403 205.8)"/>
                <path id="Path_4774" d="M168.1 59.1a85.2 85.2 0 0 0-31 22.3" class="cls-3" data-name="Path 4774"/>
                <path id="Path_4775" d="M278.3 102.4a85.1 85.1 0 0 0-102.5-46.1" class="cls-3" data-name="Path 4775"/>
                <path id="Path_4776" d="M132 87.7a84.7 84.7 0 0 0-11.1 20.9 63.8 63.8 0 0 0-77.1 52.6" class="cls-3" data-name="Path 4776"/>
                <path id="Path_4777" d="M269 109.3a56.3 56.3 0 0 1 91.9 30.4" class="cls-3" data-name="Path 4777"/>
                <path id="Line_1677" d="M0 0L96.5 0" class="cls-4" data-name="Line 1677" transform="translate(147.9 59.5)"/>
                <path id="Line_1678" d="M0 0L48.1 0" class="cls-4" data-name="Line 1678" transform="translate(257.5 59.5)"/>
                <path id="Line_1679" d="M0 0L96.6 0" class="cls-4" data-name="Line 1679" transform="translate(122.4 30)"/>
                <path id="Line_1680" d="M0 0L48.1 0" class="cls-4" data-name="Line 1680" transform="translate(225.2 30)"/>
                <path id="Line_1681" d="M0 0L48 0" class="cls-4" data-name="Line 1681" transform="translate(140.1 88.6)"/>
                <path id="Line_1682" d="M0 0L48.1 0" class="cls-4" data-name="Line 1682" transform="translate(193.9 88.6)"/>
                <path id="Line_1683" d="M0 0L116 0" class="cls-4" data-name="Line 1683" transform="translate(132.7 74.1)"/>
                <path id="Line_1684" d="M0 0L32.4 0" class="cls-4" data-name="Line 1684" transform="translate(280 74.1)"/>
                <path id="Line_1685" d="M0 0L57.7 0" class="cls-4" data-name="Line 1685" transform="translate(222.4 1)"/>
                <path id="Line_1686" d="M0 0L57.7 0" class="cls-4" data-name="Line 1686" transform="translate(172.5 15.5)"/>
                <path id="Line_1687" d="M0 0L10.2 0" class="cls-4" data-name="Line 1687" transform="translate(236.1 15.5)"/>
                <path id="Line_1688" d="M0 0L48 0" class="cls-4" data-name="Line 1688" transform="translate(140.1 44.6)"/>
                <path id="Line_1689" d="M0 0L57.7 0" class="cls-4" data-name="Line 1689" transform="translate(196 44.6)"/>
                <path id="Line_1690" d="M0 0L10.2 0" class="cls-4" data-name="Line 1690" transform="translate(259.6 44.6)"/>
                <path id="Path_4778" d="M243.4 193.6v-26.1h20.9a3.1 3.1 0 0 1 2.6 1.3l7.3 20.5a4.2 4.2 0 0 1 .5 1.7v3.9" class="cls-3" data-name="Path 4778"/>
                <path id="Line_1691" d="M0 3.9L0 0" class="cls-3" data-name="Line 1691" transform="translate(236.8 189.7)"/>
                <path id="Line_1692" d="M0 0L0 3.9" class="cls-3" data-name="Line 1692" transform="translate(140.2 189.7)"/>
                <path id="Path_4779" d="M248.6 172.7h11.7c1.4 0 2.7.1 3.1 1.4l3.4 10.4h-18.2z" class="cls-3" data-name="Path 4779"/>
                <path id="Path_4780" d="M272.1 205.3h3.9v-5.2h-1.3l-2.7-3.9H136.3v3.9H135v5.2h2.6" class="cls-3" data-name="Path 4780"/>
                <path id="Line_1693" d="M0 0L10.4 0" class="cls-3" data-name="Line 1693" transform="translate(240.8 205.3)"/>
                <path id="Path_4781" d="M253.8 208a7.8 7.8 0 1 1 7.8 7.8 7.8 7.8 0 0 1-7.8-7.8z" class="cls-3" data-name="Path 4781"/>
                <path id="Path_4782" d="M257.7 208a3.9 3.9 0 1 1 3.9 3.9 3.9 3.9 0 0 1-3.9-3.9z" class="cls-4" data-name="Path 4782"/>
                <path id="Line_1694" d="M0 0L14.4 0" class="cls-3" data-name="Line 1694" transform="translate(182 205.3)"/>
                <circle id="Ellipse_125" cx="7.8" cy="7.8" r="7.8" class="cls-3" data-name="Ellipse 125" transform="translate(199 200.2)"/>
                <circle id="Ellipse_126" cx="3.9" cy="3.9" r="3.9" class="cls-4" data-name="Ellipse 126" transform="translate(202.9 204.1)"/>
                <circle id="Ellipse_127" cx="7.8" cy="7.8" r="7.8" class="cls-3" data-name="Ellipse 127" transform="translate(222.5 200.2)"/>
                <circle id="Ellipse_128" cx="3.9" cy="3.9" r="3.9" class="cls-4" data-name="Ellipse 128" transform="translate(226.4 204.1)"/>
                <path id="Line_1695" d="M0 0L7.8 0" class="cls-3" data-name="Line 1695" transform="translate(155.9 205.3)"/>
                <path id="Line_1696" d="M0 0L7.9 0" class="cls-3" data-name="Line 1696" transform="translate(214.6 205.3)"/>
                <circle id="Ellipse_129" cx="7.8" cy="7.8" r="7.8" class="cls-3" data-name="Ellipse 129" transform="translate(140.3 200.2)"/>
                <circle id="Ellipse_130" cx="3.9" cy="3.9" r="3.9" class="cls-4" data-name="Ellipse 130" transform="translate(144.2 204.1)"/>
                <circle id="Ellipse_131" cx="7.8" cy="7.8" r="7.8" class="cls-3" data-name="Ellipse 131" transform="translate(163.8 200.2)"/>
                <circle id="Ellipse_132" cx="3.9" cy="3.9" r="3.9" class="cls-4" data-name="Ellipse 132" transform="translate(167.7 204.1)"/>
                <path id="Rectangle_4869" d="M0 0H103.1V31.33H0z" class="cls-3" data-name="Rectangle 4869" transform="translate(136.3 157)"/>
                <path id="Line_1697" d="M0 0L3.9 0" class="cls-3" data-name="Line 1697" transform="translate(247.3 189.7)"/>
                <path id="Rectangle_4870" d="M0 0H22.2V20.89H0z" class="cls-4" data-name="Rectangle 4870" transform="translate(144.1 162.3)"/>
                <path id="Rectangle_4871" d="M0 0H22.2V20.89H0z" class="cls-4" data-name="Rectangle 4871" transform="translate(176.8 162.3)"/>
                <path id="Rectangle_4872" d="M0 0H22.2V20.89H0z" class="cls-4" data-name="Rectangle 4872" transform="translate(209.4 162.3)"/>
                <ellipse id="Ellipse_133" cx="6.8" cy="6.2" class="cls-5" data-name="Ellipse 133" rx="6.8" ry="6.2" transform="translate(194 102.6)"/>
                <ellipse id="Ellipse_134" cx="6.8" cy="6.2" class="cls-5" data-name="Ellipse 134" rx="6.8" ry="6.2" transform="translate(212.4 119.2)"/>
                <ellipse id="Ellipse_135" cx="6.8" cy="6.2" class="cls-5" data-name="Ellipse 135" rx="6.8" ry="6.2" transform="translate(176 119.2)"/>
                <path id="Line_1698" d="M0 0L0 33.7" class="cls-6" data-name="Line 1698" transform="translate(201.3 114.7)"/>
                <path id="Path_4783" d="M194.5 148.4v-23.1H189" class="cls-6" data-name="Path 4783"/>
                <path id="Path_4784" d="M212.9 125.3h-5.5v23.1" class="cls-6" data-name="Path 4784"/>
                <path id="Path_4785" d="M182.9 118.8a18.7 18.7 0 0 1 10.7-9.8" class="cls-7" data-name="Path 4785"/>
                <path id="Path_4786" d="M219 132.1c-2.9 6.5-9.9 11.1-18 11.1s-15.1-4.6-18-11.1" class="cls-7" data-name="Path 4786"/>
                <path id="Path_4787" d="M208.2 109a18.7 18.7 0 0 1 10.7 9.8" class="cls-7" data-name="Path 4787"/>
                <path id="Rectangle_4873" d="M0 0H44.3V6.92H0z" class="cls-4" data-name="Rectangle 4873" transform="translate(362.4 52.4)"/>
                <path id="Rectangle_4874" d="M0 0H19.4V6.92H0z" class="cls-4" data-name="Rectangle 4874" transform="translate(362.4 64.2)"/>
                <path id="Rectangle_4875" d="M0 0H19.4V6.92H0z" class="cls-4" data-name="Rectangle 4875" transform="translate(387.3 64.2)"/>
                <path id="Line_1699" d="M0 0L19.4 0" class="cls-8" data-name="Line 1699" transform="translate(362.4 76)"/>
                <path id="Line_1700" d="M0 0L19.4 0" class="cls-8" data-name="Line 1700" transform="translate(387.3 76)"/>
                <path id="Line_1701" d="M0 0L19.4 0" class="cls-8" data-name="Line 1701" transform="translate(387.3 79.4)"/>
                <path id="Line_1702" d="M0 0L19.4 0" class="cls-8" data-name="Line 1702" transform="translate(387.3 82.9)"/>
                <path id="Line_1703" d="M0 0L19.4 0" class="cls-8" data-name="Line 1703" transform="translate(362.4 79.4)"/>
                <path id="Line_1704" d="M0 0L19.4 0" class="cls-8" data-name="Line 1704" transform="translate(362.4 82.9)"/>
                <path id="Line_1705" d="M0 0L6.9 0" class="cls-4" data-name="Line 1705" transform="translate(344.4 52.4)"/>
                <path id="Line_1706" d="M0 0L6.9 0" class="cls-8" data-name="Line 1706" transform="translate(344.4 60)"/>
                <path id="Line_1707" d="M0 0L6.9 0" class="cls-4" data-name="Line 1707" transform="translate(344.4 67.7)"/>
                <path id="Line_1708" d="M0 0L6.9 0" class="cls-8" data-name="Line 1708" transform="translate(344.4 76)"/>
                <path id="Line_1709" d="M0 0L74.7 0" class="cls-3" data-name="Line 1709" transform="translate(341.7 46.2)"/>
                <path id="Path_4788" d="M414.9 90.5a1.5 1.5 0 0 0 1.6-1.5V38a1.5 1.5 0 0 0-1.6-1.5h-71.6a1.5 1.5 0 0 0-1.6 1.5v51a1.5 1.5 0 0 0 1.5 1.5z" class="cls-3" data-name="Path 4788"/>
                <path id="Line_1710" d="M0 0L3.5 0" class="cls-8" data-name="Line 1710" transform="translate(345.1 41.4)"/>
                <path id="Line_1711" d="M0 0L3.4 0" class="cls-8" data-name="Line 1711" transform="translate(350.7 41.4)"/>
                <path id="Line_1712" d="M0 0L3.5 0" class="cls-8" data-name="Line 1712" transform="translate(356.2 41.4)"/>
                <path id="Line_1713" d="M0 44.3L0 0" class="cls-3" data-name="Line 1713" transform="translate(354.1 46.2)"/>
                <path id="Path_4789" d="M80.9 47.5a29.9 29.9 0 0 1-40.6 41.1" class="cls-3" data-name="Path 4789"/>
                <path id="Path_4790" d="M29.1 77.5a29.9 29.9 0 0 1 40.6-41.1" class="cls-3" data-name="Path 4790"/>
                <path id="Path_4791" d="M62.8 62.3a7.5 7.5 0 1 1-7.5-7.5 7.5 7.5 0 0 1 7.5 7.5z" class="cls-3" data-name="Path 4791"/>
                <path id="Path_4792" d="M57.9 65.1a3.9 3.9 0 1 1 1-2.6" class="cls-4" data-name="Path 4792"/>
                <path id="Path_4793" d="M79.5 38.9L65.4 72.1a1 1 0 0 1-.7.8l-33 14.4a1 1 0 0 1-1.2-1.2l13.8-33.5a1 1 0 0 1 .8-.8l33.2-14.1a1 1 0 0 1 1.2 1.2z" class="cls-3" data-name="Path 4793"/>
                <path id="Line_1714" d="M0 0L4.5 4.3" class="cls-3" data-name="Line 1714" transform="translate(60.7 67.4)"/>
                <path id="Line_1715" d="M0 0L5.3 5" class="cls-3" data-name="Line 1715" transform="translate(44.6 52.1)"/>
                <path id="Line_1716" d="M0 0L0 7.1" class="cls-4" data-name="Line 1716" transform="translate(54.9 32.7)"/>
                <path id="Line_1717" d="M0 0L0 7.1" class="cls-4" data-name="Line 1717" transform="translate(54.9 85.5)"/>
                <path id="Line_1718" d="M0 0L7.1 0" class="cls-4" data-name="Line 1718" transform="translate(25 62.7)"/>
                <path id="Line_1719" d="M0 0L7 0" class="cls-4" data-name="Line 1719" transform="translate(77.8 62.7)"/>
            </g>
        </g>
    </g>
</svg>
