<svg xmlns="http://www.w3.org/2000/svg" id="graphic-manufacturing" width="795.4" height="539.65" viewBox="0 0 795.4 539.65">
    <defs>
        <clipPath id="clip-path">
            <path id="Rectangle_3066" fill="none" d="M0 0H795.4V539.65H0z" data-name="Rectangle 3066"/>
        </clipPath>
        <style>
            .cls-2,.cls-4,.cls-5,.cls-8{fill:none}.cls-2,.cls-8{stroke:#527fff}.cls-2,.cls-4,.cls-5{stroke-linejoin:round}.cls-2,.cls-4,.cls-5,.cls-8{stroke-width:2px}.cls-3{clip-path:url(#clip-path)}.cls-4{stroke:#879196}.cls-5{stroke:#869095}.cls-7{fill:#fff}.cls-8{stroke-miterlimit:10;stroke-dasharray:4 6}
        </style>
    </defs>
    <g id="graphic-manufacturing-2" data-name="graphic-manufacturing" transform="translate(397.7 269.825)">
        <g id="Group_1806" data-name="Group 1806" transform="translate(-397.7 -269.825)">
            <path id="Line_188" d="M0 0L145.3 0" class="cls-2" data-name="Line 188" transform="translate(315.5 89.1)"/>
            <path id="Line_189" d="M0 0L72.3 0" class="cls-2" data-name="Line 189" transform="translate(480.5 89.1)"/>
            <path id="Line_190" d="M0 0L145.3 0" class="cls-2" data-name="Line 190" transform="translate(277.2 44.7)"/>
            <path id="Line_191" d="M0 0L72.3 0" class="cls-2" data-name="Line 191" transform="translate(431.9 44.7)"/>
            <path id="Line_192" d="M0 0L72.3 0" class="cls-2" data-name="Line 192" transform="translate(303.7 132.8)"/>
            <path id="Line_193" d="M0 0L72.4 0" class="cls-2" data-name="Line 193" transform="translate(384.7 132.8)"/>
            <path id="Line_194" d="M0 0L174.6 0" class="cls-2" data-name="Line 194" transform="translate(292.7 110.9)"/>
            <path id="Line_195" d="M0 0L86.9 0" class="cls-2" data-name="Line 195" transform="translate(476.2 110.9)"/>
            <g id="Group_1804" class="cls-3" data-name="Group 1804">
                <path id="Line_196" d="M0 0L86.9 0" class="cls-2" data-name="Line 196" transform="translate(427.6 1)"/>
            </g>
            <path id="Line_197" d="M0 0L86.9 0" class="cls-2" data-name="Line 197" transform="translate(352.5 22.9)"/>
            <path id="Line_198" d="M0 0L15.4 0" class="cls-2" data-name="Line 198" transform="translate(448.2 22.9)"/>
            <path id="Line_199" d="M0 0L72.3 0" class="cls-2" data-name="Line 199" transform="translate(303.7 66.6)"/>
            <path id="Line_200" d="M0 0L87 0" class="cls-2" data-name="Line 200" transform="translate(387.8 66.6)"/>
            <path id="Line_201" d="M0 0L15.3 0" class="cls-2" data-name="Line 201" transform="translate(483.6 66.6)"/>
            <path id="Line_202" d="M0 0L145.3 0" class="cls-2" data-name="Line 202" transform="translate(277.2 194.7)"/>
            <path id="Line_203" d="M0 0L72.3 0" class="cls-2" data-name="Line 203" transform="translate(431.9 194.7)"/>
            <path id="Line_204" d="M0 0L86.9 0" class="cls-2" data-name="Line 204" transform="translate(427.6 151)"/>
            <path id="Line_205" d="M0 0L86.9 0" class="cls-2" data-name="Line 205" transform="translate(352.5 172.9)"/>
            <path id="Line_206" d="M0 0L15.4 0" class="cls-2" data-name="Line 206" transform="translate(448.2 172.9)"/>
            <g id="Group_1805" class="cls-3" data-name="Group 1805">
                <path id="Path_2868" d="M326.7 47.7a120.8 120.8 0 0 0-44 31.7" class="cls-4" data-name="Path 2868"/>
                <path id="Path_2869" d="M483.1 109.2a120.7 120.7 0 0 0-145.4-65.5" class="cls-4" data-name="Path 2869"/>
                <path id="Path_2870" d="M625.2 310.1h64.9a52.4 52.4 0 1 0 0-104.8 52.3 52.3 0 0 0-36.8 15.1" class="cls-4" data-name="Path 2870"/>
                <path id="Line_207" d="M0 0L119 0" class="cls-4" data-name="Line 207" transform="translate(173.6 310.1)"/>
                <path id="Line_208" d="M0 0L119 0" class="cls-4" data-name="Line 208" transform="translate(563.6 310.1)"/>
                <path id="Line_209" d="M0 0L32.4 0" class="cls-4" data-name="Line 209" transform="translate(516.6 310.1)"/>
                <path id="Line_210" d="M0 0L59.4 0" class="cls-4" data-name="Line 210" transform="translate(301.6 310.1)"/>
                <path id="Path_2871" d="M162.5 310.1a59.4 59.4 0 1 1 15.9-116.7" class="cls-4" data-name="Path 2871"/>
                <path id="Path_2872" d="M275.6 88.3a120.2 120.2 0 0 0-15.7 29.6 90.5 90.5 0 0 0-109.4 74.7" class="cls-4" data-name="Path 2872"/>
                <path id="Path_2873" d="M675.7 207.6a49.736 49.736 0 0 0-76.8-49.8 79 79 0 0 0-3.6-10.3 79.9 79.9 0 0 0-73.4-48.4 79.1 79.1 0 0 0-39 10.2" class="cls-4" data-name="Path 2873"/>
                <path id="Path_2874" d="M470 118.9A79.8 79.8 0 0 1 600.3 162" class="cls-4" data-name="Path 2874"/>
                <path id="Line_211" d="M0 25.3L22 0" class="cls-5" data-name="Line 211" transform="translate(728.7 38.5)"/>
                <path id="Line_212" d="M0 0L21.9 25.3" class="cls-5" data-name="Line 212" transform="translate(728.7 70.8)"/>
                <path id="Line_213" d="M32.4 0L0 0" class="cls-5" data-name="Line 213" transform="translate(730.2 67.3)"/>
                <path id="Path_2875" d="M774.7 19.5a5 5 0 1 1-5-5 5 5 0 0 1 5 5z" class="cls-5" data-name="Path 2875"/>
                <path id="Path_2876" d="M759.2 35a5 5 0 1 1-5-5 5 5 0 0 1 5 5z" class="cls-5" data-name="Path 2876"/>
                <path id="Path_2877" d="M777.1 44.6a2.5 2.5 0 1 1-2.5-2.5 2.5 2.5 0 0 1 2.5 2.5z" class="cls-5" data-name="Path 2877"/>
                <path id="Path_2878" d="M777.1 88.6a2.5 2.5 0 1 1-2.5-2.5 2.5 2.5 0 0 1 2.5 2.5z" class="cls-5" data-name="Path 2878"/>
                <path id="Path_2879" d="M794.4 67.3a5 5 0 1 1-5-5 5 5 0 0 1 5 5z" class="cls-5" data-name="Path 2879"/>
                <path id="Path_2880" d="M772.5 67.3a5 5 0 1 1-5-5 5 5 0 0 1 5 5z" class="cls-5" data-name="Path 2880"/>
                <path id="Path_2881" d="M759.2 99.6a5 5 0 1 1-5-5 5 5 0 0 1 5 5z" class="cls-5" data-name="Path 2881"/>
                <circle id="Ellipse_20" cx="5" cy="5" r="5" class="cls-5" data-name="Ellipse 20" transform="rotate(-.2 31989.473 -218979.789)"/>
                <path id="Line_214" d="M9.5 23.1L0 0" class="cls-5" data-name="Line 214" transform="translate(756.1 39.6)"/>
                <path id="Line_215" d="M0 22.9L9.5 0" class="cls-5" data-name="Line 215" transform="translate(756.1 71.9)"/>
                <path id="Line_216" d="M0 0L12 0" class="cls-5" data-name="Line 216" transform="translate(772.5 67.3)"/>
                <path id="Line_217" d="M0 0L8.4 8.4" class="cls-5" data-name="Line 217" transform="translate(757.6 103)"/>
                <path id="Line_218" d="M0 9.8L9.7 0" class="cls-5" data-name="Line 218" transform="translate(757.1 22.3)"/>
                <path id="Path_2882" d="M747.3 14.8a2.5 2.5 0 1 1-2.5-2.5 2.5 2.5 0 0 1 2.5 2.5z" class="cls-5" data-name="Path 2882"/>
                <path id="Path_2883" d="M747.3 118.4a2.5 2.5 0 1 1-2.5-2.5 2.5 2.5 0 0 1 2.5 2.5z" class="cls-5" data-name="Path 2883"/>
                <path id="Path_2884" d="M730.2 67.3a5 5 0 1 1-5-5 5 5 0 0 1 5 5z" class="cls-5" data-name="Path 2884"/>
                <path id="Line_219" d="M21.9 0L0 25.2" class="cls-5" data-name="Line 219" transform="translate(700.1 70.8)"/>
                <path id="Line_220" d="M21.9 25L0 0" class="cls-5" data-name="Line 220" transform="translate(700.1 38.5)"/>
                <path id="Line_221" d="M0 0L32 0" class="cls-5" data-name="Line 221" transform="translate(688.2 67.3)"/>
                <path id="Path_2885" d="M676.1 115a5 5 0 1 1 5 5 5 5 0 0 1-5-5z" class="cls-5" data-name="Path 2885"/>
                <path id="Path_2886" d="M691.6 99.6a5 5 0 1 1 5 5 5 5 0 0 1-5-5z" class="cls-5" data-name="Path 2886"/>
                <path id="Path_2887" d="M673.6 90a2.5 2.5 0 1 1 2.5 2.5 2.5 2.5 0 0 1-2.5-2.5z" class="cls-5" data-name="Path 2887"/>
                <path id="Path_2888" d="M673.6 46a2.5 2.5 0 1 1 2.5 2.5 2.5 2.5 0 0 1-2.5-2.5z" class="cls-5" data-name="Path 2888"/>
                <path id="Path_2889" d="M656.3 67.3a5 5 0 1 1 5 5 5 5 0 0 1-5-5z" class="cls-5" data-name="Path 2889"/>
                <path id="Path_2890" d="M678.3 67.3a5 5 0 1 1 5 5 5 5 0 0 1-5-5z" class="cls-5" data-name="Path 2890"/>
                <path id="Path_2891" d="M691.6 35a5 5 0 1 1 5 5 5 5 0 0 1-5-5z" class="cls-5" data-name="Path 2891"/>
                <path id="Path_2892" d="M676.1 19.5a5 5 0 1 1 5 5 5 5 0 0 1-5-5z" class="cls-5" data-name="Path 2892"/>
                <path id="Path_2893" d="M701.2 101.5l16.3 6.7h16.1l16-6.7" class="cls-5" data-name="Path 2893"/>
                <path id="Line_222" d="M0 0L9.5 23.1" class="cls-5" data-name="Line 222" transform="translate(685.1 71.9)"/>
                <path id="Line_223" d="M9.5 0L0 23" class="cls-5" data-name="Line 223" transform="translate(685.1 39.7)"/>
                <path id="Path_2894" d="M749.6 33.1l-16.4-6.8h-16.1l-16 6.8" class="cls-5" data-name="Path 2894"/>
                <path id="Line_224" d="M12.1 0L0 0" class="cls-5" data-name="Line 224" transform="translate(666.2 67.3)"/>
                <path id="Line_225" d="M8.4 8.5L0 0" class="cls-5" data-name="Line 225" transform="translate(684.7 23.1)"/>
                <path id="Line_226" d="M9.7 0L0 9.7" class="cls-5" data-name="Line 226" transform="translate(683.9 102.5)"/>
                <path id="Path_2895" d="M703.4 119.8a2.5 2.5 0 1 1 2.5 2.5 2.5 2.5 0 0 1-2.5-2.5z" class="cls-5" data-name="Path 2895"/>
                <path id="Path_2896" d="M703.4 16.2a2.5 2.5 0 1 1 2.5 2.5 2.5 2.5 0 0 1-2.5-2.5z" class="cls-5" data-name="Path 2896"/>
                <path id="Line_227" d="M0 0L0 30" class="cls-5" data-name="Line 227" transform="translate(398.9 256.8)"/>
                <path id="Line_228" d="M0 0L0 71.4" class="cls-5" data-name="Line 228" transform="translate(398.9 360.9)"/>
                <path id="Path_2897" d="M372.7 311.8a26.3 26.3 0 1 0 26.3-26.3 26.3 26.3 0 0 0-26.3 26.3z" class="cls-5" data-name="Path 2897"/>
                <path id="Path_2898" d="M385.8 311.8a13.1 13.1 0 1 0 13.1-13.1 13.1 13.1 0 0 0-13.1 13.1z" class="cls-5" data-name="Path 2898"/>
                <path id="Path_2899" d="M414 480.1a26.3 26.3 0 1 0-30 0" class="cls-5" data-name="Path 2899"/>
                <path id="Path_2900" d="M410.2 334.7v26.2h-22.5v-26.2" class="cls-5" data-name="Path 2900"/>
                <path id="Line_229" d="M0 0L0 30" class="cls-5" data-name="Line 229" transform="translate(477.8 256.8)"/>
                <path id="Line_230" d="M0 0L0 71.4" class="cls-5" data-name="Line 230" transform="translate(477.8 360.9)"/>
                <path id="Path_2901" d="M451.5 311.8a26.3 26.3 0 1 0 26.3-26.3 26.3 26.3 0 0 0-26.3 26.3z" class="cls-5" data-name="Path 2901"/>
                <path id="Path_2902" d="M464.6 311.8a13.1 13.1 0 1 0 13.1-13.1 13.1 13.1 0 0 0-13.1 13.1z" class="cls-5" data-name="Path 2902"/>
                <path id="Path_2903" d="M492.8 480.1a26.3 26.3 0 1 0-30 0" class="cls-5" data-name="Path 2903"/>
                <path id="Path_2904" d="M489 334.7v26.2h-22.5v-26.2" class="cls-5" data-name="Path 2904"/>
                <path id="Path_2905" d="M346.4 257.2H534a7.5 7.5 0 1 0 0-15H346.4a7.5 7.5 0 0 0 0 15z" class="cls-5" data-name="Path 2905"/>
                <path id="Line_231" d="M0 0L22.5 0" class="cls-5" data-name="Line 231" transform="translate(395.2 523.6)"/>
                <path id="Line_232" d="M0 0L22.5 0" class="cls-5" data-name="Line 232" transform="translate(357.7 523.6)"/>
                <path id="Line_233" d="M0 0L22.5 0" class="cls-5" data-name="Line 233" transform="translate(507.8 523.6)"/>
                <path id="Line_234" d="M0 0L22.6 0" class="cls-5" data-name="Line 234" transform="translate(470.2 523.6)"/>
                <path id="Line_235" d="M0 0L22.5 0" class="cls-5" data-name="Line 235" transform="translate(432.7 523.6)"/>
                <path id="Rectangle_3067" d="M0 0H202.7V30.02H0z" class="cls-5" data-name="Rectangle 3067" transform="translate(342.6 508.6)"/>
                <path id="Path_2906" fill="#527fff" d="M273.3 310.4a40.5 40.5 0 1 1-40.5-40.5 40.5 40.5 0 0 1 40.5 40.5" data-name="Path 2906"/>
                <path id="Path_2907" d="M222.6 332l.5-.4-4.2-4.3 17-17 3.8 3.7-17.5 17.6.4.4.5-.4-.5.4.5.4 18.4-18.4-5.6-5.5-18.8 18.8 5.5 5.6.5-.5z" class="cls-7" data-name="Path 2907"/>
                <path id="Path_2908" d="M238.7 312.2l10.1-10.1-.9-.9-10.1 10.1" class="cls-7" data-name="Path 2908"/>
                <path id="Path_2909" d="M255.3 296.9l.4-.4-2.7-2.7-5 4.2a2.758 2.758 0 1 0 3.9 3.9l4.2-5-.4-.4-.4.4-.5-.4-3.9 4.6a1.488 1.488 0 1 1-2.1-2.1l4.1-3.5 1.9 1.9.4-.4-.5-.4.5.4" class="cls-7" data-name="Path 2909"/>
                <path id="Path_2910" d="M242.2 316.6l11.3 11.3-3.8 3.7-11.3-11.3-.9.9 12.2 12.2 5.5-5.5-12.1-12.2z" class="cls-7" data-name="Path 2910"/>
                <path id="Path_2911" d="M229.8 311.6l-4.8-4.8 3.8-3.8 4.4 4.4.9-.8-5.3-5.4-5.6 5.6 5.7 5.7z" class="cls-7" data-name="Path 2911"/>
                <path id="Path_2912" d="M239.4 289.8a8.3 8.3 0 0 0-6-2.3 14.4 14.4 0 0 0-9.9 4.5l-10.3 10.3-.4.4 2.9 2.9-3.7 3.7 2.2 2.2 10.2-4.3-.5-1.2-9.4 3.9-.7-.7 3.7-3.7-3.4-3.4-.4.4.4.4 10.3-10.3a13.2 13.2 0 0 1 9-4.2 7.1 7.1 0 0 1 5.1 2l.9-.9" class="cls-7" data-name="Path 2912"/>
                <path id="Path_2913" d="M229.2 301.7l-3.6-3.6 3.5-3.5-.9-.9-4.4 4.4 4.5 4.5z" class="cls-7" data-name="Path 2913"/>
                <path id="Path_2914" d="M209.4 311.2l3.6 3.6.8-.8-3.6-3.6" class="cls-7" data-name="Path 2914"/>
                <path id="Path_2915" d="M380 396.2H21a20.1 20.1 0 0 0-20 20v20a20.1 20.1 0 0 0 20 20h26a20.1 20.1 0 0 0 20-20v-333a20.1 20.1 0 0 1 20-20h174" class="cls-8" data-name="Path 2915"/>
                <path id="Path_2916" d="M491 396.2h283a20.1 20.1 0 0 0 20-20v-226a20.1 20.1 0 0 0-20-20H620a20.1 20.1 0 0 1-20-20v-23a20.1 20.1 0 0 1 20-20h23" class="cls-8" data-name="Path 2916"/>
            </g>
        </g>
    </g>
</svg>
