<svg xmlns="http://www.w3.org/2000/svg" id="graphic-del-benefit-1" width="465.2" height="229.09" viewBox="0 0 465.2 229.09">
    <defs>
        <clipPath id="clip-path">
            <path id="Rectangle_8358" fill="none" d="M0 0H465.2V229.09H0z" data-name="Rectangle 8358"/>
        </clipPath>
        <style>
            .cls-3,.cls-4,.cls-5,.cls-6{fill:none}.cls-3,.cls-5{stroke:#879196}.cls-3,.cls-4,.cls-6{stroke-linejoin:round}.cls-3,.cls-4,.cls-5,.cls-6{stroke-width:2px}.cls-4{stroke:#16bf9f}.cls-5{stroke-miterlimit:10}.cls-6{stroke:#869196}.cls-7{fill:#879196}
        </style>
    </defs>
    <g id="graphic-del-benefit-1-2" data-name="graphic-del-benefit-1" transform="translate(232.6 114.545)">
        <g id="Group_5747" clip-path="url(#clip-path)" data-name="Group 5747" transform="translate(-232.6 -114.545)">
            <path id="Path_7820" d="M248.9 13c-8.6 1.6-19.2-1.4-24.2-9-5 7.6-14.5 10.6-23.1 9l-4-.6a1.9 1.9 0 0 0-2.2 1.9v53.9a1.9 1.9 0 0 0 1 1.7l27.4 15.4a1.9 1.9 0 0 0 1.9 0L253 69.9a1.9 1.9 0 0 0 1-1.7V14.4a1.9 1.9 0 0 0-2.3-1.9z" class="cls-3" data-name="Path 7820"/>
            <path id="Path_7821" d="M201.1 66V18.8a30.4 30.4 0 0 0 5 .4 28.6 28.6 0 0 0 18.7-6.7 31 31 0 0 0 19.6 6.7l3.9-.2v47l-23.6 13.2z" class="cls-4" data-name="Path 7821"/>
            <path id="Line_2467" d="M47.1 14.9L0 0" class="cls-4" data-name="Line 2467" transform="translate(201.2 25.7)"/>
            <path id="Line_2468" d="M27.1 8.5L0 0" class="cls-3" data-name="Line 2468" transform="translate(201.2 39.3)"/>
            <path id="Line_2469" d="M4.8 1.6L0 0" class="cls-3" data-name="Line 2469" transform="translate(231 48.6)"/>
            <path id="Line_2470" d="M9.8 3.1L0 0" class="cls-3" data-name="Line 2470" transform="translate(238.5 51)"/>
            <path id="Path_7822" d="M11.1 111.6v.8h-3v-.8" class="cls-5" data-name="Path 7822"/>
            <path id="Line_2471" d="M0 0L34 0" class="cls-5" data-name="Line 2471" transform="translate(40 115.3)"/>
            <path id="Line_2472" d="M0 0L27.4 0" class="cls-5" data-name="Line 2472" transform="translate(0 115.3)"/>
            <path id="Path_7823" d="M56.3 90.2a28.8 28.8 0 0 1 9.6 21.5" class="cls-5" data-name="Path 7823"/>
            <path id="Path_7824" d="M8.1 111.6a28.9 28.9 0 0 1 46.4-22.9" class="cls-5" data-name="Path 7824"/>
            <path id="Path_7825" d="M47.4 80a33.2 33.2 0 0 1 6.6 3" class="cls-4" data-name="Path 7825"/>
            <path id="Path_7826" d="M7.6 96.1a33.3 33.3 0 0 1 36.8-16.9" class="cls-4" data-name="Path 7826"/>
            <path id="Path_7827" d="M50.3 96.4a22.5 22.5 0 0 1 5.9 15.2" class="cls-5" data-name="Path 7827"/>
            <path id="Path_7828" d="M11.1 111.6a22.6 22.6 0 0 1 37-17.4" class="cls-5" data-name="Path 7828"/>
            <path id="Path_7829" d="M65.9 111.6v.8h-9.7v-.8" class="cls-5" data-name="Path 7829"/>
            <circle id="Ellipse_272" cx="7.4" cy="7.4" r="7.4" class="cls-5" data-name="Ellipse 272" transform="translate(26.3 104.2)"/>
            <path id="Path_7830" d="M29.2 111.6a4.4 4.4 0 1 1 4.4 4.4" class="cls-4" data-name="Path 7830"/>
            <path id="Path_7831" d="M36.3 105l24.8-22.2 1.1 1L40 108.6" class="cls-4" data-name="Path 7831"/>
            <path id="Line_2473" d="M0 4.4L8 0" class="cls-4" data-name="Line 2473" transform="translate(53.2 96.1)"/>
            <path id="Line_2474" d="M0 2.4L9.6 0" class="cls-4" data-name="Line 2474" transform="translate(55.5 103.8)"/>
            <path id="Rectangle_8337" d="M0 0H10.5V10.51H0z" class="cls-6" data-name="Rectangle 8337" transform="translate(294 98.7)"/>
            <path id="Rectangle_8338" d="M0 0H10.5V10.51H0z" class="cls-6" data-name="Rectangle 8338" transform="translate(309.8 125.2)"/>
            <path id="Rectangle_8339" d="M0 0H10.5V10.51H0z" class="cls-6" data-name="Rectangle 8339" transform="translate(318.5 79.9)"/>
            <path id="Rectangle_8340" d="M0 0H10.5V10.51H0z" class="cls-4" data-name="Rectangle 8340" transform="translate(316.8 105.9)"/>
            <path id="Rectangle_8341" d="M0 0H10.5V10.51H0z" class="cls-6" data-name="Rectangle 8341" transform="translate(343.1 72.6)"/>
            <path id="Rectangle_8342" d="M0 0H10.5V10.51H0z" class="cls-4" data-name="Rectangle 8342" transform="translate(304.5 67.4)"/>
            <path id="Rectangle_8343" d="M0 0H10.5V10.51H0z" class="cls-6" data-name="Rectangle 8343" transform="translate(336 98.7)"/>
            <path id="Rectangle_8344" d="M0 0H10.5V10.51H0z" class="cls-6" data-name="Rectangle 8344" transform="translate(343.1 116.4)"/>
            <path id="Rectangle_8345" d="M0 0H10.5V10.51H0z" class="cls-4" data-name="Rectangle 8345" transform="translate(376.5 60.4)"/>
            <path id="Rectangle_8346" d="M0 0H10.5V10.51H0z" class="cls-6" data-name="Rectangle 8346" transform="translate(283.5 56.9)"/>
            <path id="Rectangle_8347" d="M0 0H10.5V10.51H0z" class="cls-6" data-name="Rectangle 8347" transform="translate(83 98.7)"/>
            <path id="Rectangle_8348" d="M0 0H10.5V10.51H0z" class="cls-6" data-name="Rectangle 8348" transform="translate(98.8 125.2)"/>
            <path id="Rectangle_8349" d="M0 0H10.5V10.51H0z" class="cls-6" data-name="Rectangle 8349" transform="translate(107.5 79.9)"/>
            <path id="Rectangle_8350" d="M0 0H10.5V10.51H0z" class="cls-4" data-name="Rectangle 8350" transform="translate(105.8 105.9)"/>
            <path id="Rectangle_8351" d="M0 0H10.5V10.51H0z" class="cls-6" data-name="Rectangle 8351" transform="translate(132.1 72.6)"/>
            <path id="Rectangle_8352" d="M0 0H10.5V10.51H0z" class="cls-4" data-name="Rectangle 8352" transform="translate(93.5 67.4)"/>
            <path id="Rectangle_8353" d="M0 0H10.5V10.51H0z" class="cls-6" data-name="Rectangle 8353" transform="translate(125 98.7)"/>
            <path id="Rectangle_8354" d="M0 0H10.5V10.51H0z" class="cls-6" data-name="Rectangle 8354" transform="translate(132.1 116.4)"/>
            <path id="Rectangle_8355" d="M0 0H10.5V10.51H0z" class="cls-4" data-name="Rectangle 8355" transform="translate(165.5 60.4)"/>
            <path id="Rectangle_8356" d="M0 0H10.5V10.51H0z" class="cls-6" data-name="Rectangle 8356" transform="translate(72.5 56.9)"/>
            <path id="Line_2475" d="M0 0L73 0" class="cls-3" data-name="Line 2475" transform="translate(21.8 199.7)"/>
            <path id="Line_2476" d="M0 0L68.2 0" class="cls-3" data-name="Line 2476" transform="translate(109.8 199.7)"/>
            <path id="Line_2477" d="M0 0L110 0" class="cls-3" data-name="Line 2477" transform="translate(279.8 199.7)"/>
            <path id="Line_2478" d="M0 0L11 0" class="cls-3" data-name="Line 2478" transform="translate(400.8 199.7)"/>
            <path id="Line_2479" d="M0 0L39 0" class="cls-3" data-name="Line 2479" transform="translate(424.8 199.7)"/>
            <path id="Path_7832" d="M419.2 83v-7l2-9" class="cls-3" data-name="Path 7832"/>
            <path id="Path_7833" d="M421.1 54.2c.1 5.1 1.3 10.2 8.2 10.5s8.9-5.1 9.2-10.2" class="cls-3" data-name="Path 7833"/>
            <path id="Path_7834" d="M425.5 46.4a15.5 15.5 0 0 0 11 1.7s1.5 6.6 2.4 6.6 2.1-2.9 1.6-6.9-3-10.1-10.5-10.5c-2.7-.1-2.5-1.9-3.3-1.9s-.1 2.5-.7 2.7-1.7-.9-2.2-.7-.1 1.9-.5 2.2a12.3 12.3 0 0 0-4.2 7.7c-.4 1.9-.1 6.8 1.9 7 .3 0-.3-2.1 1.7-3.7s.7-6.2 2.8-4.2z" class="cls-3" data-name="Path 7834"/>
            <path id="Path_7835" d="M422.9 66.6a6.8 6.8 0 0 0 6.9 5.9s6.2 0 6-6" class="cls-3" data-name="Path 7835"/>
            <path id="Path_7836" d="M425.2 64v2c-2.7.3-10 1.9-12.1 5.5s-1.9 4.1-1.9 11.5h38c0-7.4.1-8.2-1.9-11.5s-9.8-5.1-13.1-5.5v-2" class="cls-3" data-name="Path 7836"/>
            <path id="Path_7837" d="M441.2 83v-7l-3-9" class="cls-3" data-name="Path 7837"/>
            <path id="Line_2480" d="M0 0L16 0" class="cls-4" data-name="Line 2480" transform="translate(422.2 75)"/>
            <path id="Line_2481" d="M0 0L16 0" class="cls-4" data-name="Line 2481" transform="translate(422.2 79)"/>
            <circle id="Ellipse_273" cx="2.4" cy="2.4" r="2.4" class="cls-3" data-name="Ellipse 273" transform="translate(430.8 50.8)"/>
            <circle id="Ellipse_274" cx="2.4" cy="2.4" r="2.4" class="cls-3" data-name="Ellipse 274" transform="translate(424 50.8)"/>
            <path id="Line_2482" d="M0 0L1 0" class="cls-3" data-name="Line 2482" transform="translate(429.2 53)"/>
            <path id="Path_7838" d="M427.2 39.9c.7 1.3 4.4 2.6 6 2.5" class="cls-3" data-name="Path 7838"/>
            <path id="Path_7839" d="M454.2 18.6c-.2 5-1.7 10.6-9.6 10.3s-8.3-4.8-8.4-9.5V13s10.3 2.2 18 0z" class="cls-5" data-name="Path 7839"/>
            <path id="Path_7840" d="M440.2 28v4l3.5 6.1a1.7 1.7 0 0 0 3 0l3.5-6.1v-4" class="cls-5" data-name="Path 7840"/>
            <path id="Path_7841" d="M444.2 49h19.9c0-7.9.1-8.8-1.8-12.3s-9.5-5.4-12.1-5.7" class="cls-3" data-name="Path 7841"/>
            <path id="Path_7842" d="M440.2 31a30.1 30.1 0 0 0-7 2" class="cls-5" data-name="Path 7842"/>
            <path id="Line_2483" d="M0 0L0 4" class="cls-4" data-name="Line 2483" transform="translate(456.2 43)"/>
            <path id="Path_7843" d="M436.2 20c-2.4-1.5-5.6-9.6.1-15.4 4.1-4.1 12.8-5.7 18.3.6 2.7 3 4.9 10.9-.5 14.8" class="cls-5" data-name="Path 7843"/>
            <path id="Path_7844" d="M443.2 18.5a1.5 1.5 0 1 1-1.5-1.5 1.5 1.5 0 0 1 1.5 1.5" class="cls-7" data-name="Path 7844"/>
            <path id="Path_7845" d="M450.2 18.5a1.5 1.5 0 1 1-1.5-1.5 1.5 1.5 0 0 1 1.5 1.5" class="cls-7" data-name="Path 7845"/>
            <path id="Line_2484" d="M0 10L0 0" class="cls-4" data-name="Line 2484" transform="translate(445.2 39)"/>
            <path id="Path_7846" d="M404.1 19.5c.1 4.7 1.3 9.2 8.1 9.5s9-5.3 9.2-10.3" class="cls-5" data-name="Path 7846"/>
            <path id="Path_7847" d="M421.4 19.1c-.4.1.6-2.1-1.8-3.8a3.3 3.3 0 0 1-1.4-3 1.1 1.1 0 0 0-1.8-.8 12.5 12.5 0 0 1-6.9 2.3 1.8 1.8 0 0 0-1.8 1.2 12 12 0 0 1-3.8 4.8" class="cls-5" data-name="Path 7847"/>
            <path id="Path_7848" d="M407.2 28v3l4 7.1a1.7 1.7 0 0 0 3 0l3.9-7.1v-4" class="cls-5" data-name="Path 7848"/>
            <path id="Path_7849" d="M414.2 49h-20c0-7.9.2-9.4 1.8-12.3s8.6-5.4 11.2-5.7" class="cls-3" data-name="Path 7849"/>
            <path id="Path_7850" d="M418.2 31a26.4 26.4 0 0 1 5 1.3" class="cls-5" data-name="Path 7850"/>
            <path id="Line_2485" d="M0 0L0 8" class="cls-5" data-name="Line 2485" transform="translate(402.2 41)"/>
            <path id="Path_7851" d="M400.2 33V15.7a13.7 13.7 0 0 1 1.8-7.3c3.4-5.2 8.9-5.6 12.2-5.4s5.7.9 6 6c0 0 5.2-1.2 5 5v16" class="cls-5" data-name="Path 7851"/>
            <path id="Line_2486" d="M0 0L0 10" class="cls-5" data-name="Line 2486" transform="translate(413.2 39)"/>
            <path id="Path_7852" d="M411.2 19.5a1.5 1.5 0 1 1-1.5-1.5 1.5 1.5 0 0 1 1.5 1.5" class="cls-7" data-name="Path 7852"/>
            <path id="Path_7853" d="M417.2 19.5a1.5 1.5 0 1 1-1.5-1.5 1.5 1.5 0 0 1 1.5 1.5" class="cls-7" data-name="Path 7853"/>
            <path id="Path_7854" d="M413.3 13.1a11.1 11.1 0 0 1-7.8-.3" class="cls-5" data-name="Path 7854"/>
            <path id="Path_7855" d="M402.5 20.7a9.5 9.5 0 0 0 2.6-1.9" class="cls-5" data-name="Path 7855"/>
            <circle id="Ellipse_275" cx="1.5" cy="1.5" r="1.5" class="cls-4" data-name="Ellipse 275" transform="translate(406.2 42)"/>
            <path id="Path_7856" d="M407 8.3a14.9 14.9 0 0 0 5.7 1.4" class="cls-3" data-name="Path 7856"/>
            <path id="Path_7857" d="M226.9 187.2a1.8 1.8 0 1 1-1.8-1.8 1.8 1.8 0 0 1 1.8 1.8" class="cls-7" data-name="Path 7857"/>
            <path id="Path_7858" d="M268.1 175.1V190a2.1 2.1 0 0 1-2.1 2.1h-81.8a2.1 2.1 0 0 1-2.1-2.1v-57.8a2.1 2.1 0 0 1 2.1-2.1H266a2.1 2.1 0 0 1 2.1 2.1v5.9" class="cls-3" data-name="Path 7858"/>
            <path id="Line_2487" d="M0 0L85 0" class="cls-3" data-name="Line 2487" transform="translate(182.1 182.1)"/>
            <path id="Line_2488" d="M0 0L0 10.9" class="cls-3" data-name="Line 2488" transform="translate(229.1 192.1)"/>
            <path id="Line_2489" d="M0 10.8L0 0" class="cls-3" data-name="Line 2489" transform="translate(220.1 192.2)"/>
            <path id="Rectangle_8357" d="M0 0H40V5H0z" class="cls-3" data-name="Rectangle 8357" transform="translate(205.1 203.1)"/>
            <circle id="Ellipse_276" cx="15" cy="15" r="15" class="cls-3" data-name="Ellipse 276" transform="translate(249.1 141.1)"/>
            <path id="Path_7859" d="M265.1 163.1l7-7h-18" class="cls-3" data-name="Path 7859"/>
            <path id="Line_2490" d="M0 0L7 7" class="cls-3" data-name="Line 2490" transform="translate(265.1 149.1)"/>
        </g>
    </g>
</svg>
