<svg xmlns="http://www.w3.org/2000/svg" width="504.2" height="265.14" viewBox="0 0 504.2 265.14">
    <defs>
        <clipPath id="clip-path">
            <path id="Rectangle_8491" fill="none" d="M0 0H504.2V265.14H0z"/>
        </clipPath>
        <style>
            .cls-3,.cls-4,.cls-5,.cls-6{fill:none}.cls-3{stroke:#869095}.cls-3,.cls-4,.cls-5,.cls-6{stroke-linejoin:round;stroke-width:2px}.cls-4{stroke:#16bf9f}.cls-5{stroke:#849095}.cls-6{stroke:#879196}
        </style>
    </defs>
    <g id="graphic-del-ps-fetures-2">
        <g id="graphic-del-ps-fetures-2-2" transform="translate(252.1 132.57)">
            <g id="graphic-del-ps-fetures-2-3" clip-path="url(#clip-path)" transform="translate(-252.1 -132.57)">
                <path id="Path_7778" d="M432.8 89.8a1.6 1.6 0 1 1-1.6-1.6 1.6 1.6 0 0 1 1.6 1.6z" class="cls-3"/>
                <path id="Path_7779" d="M459.6 26.5a1.6 1.6 0 1 1-1.6-1.6 1.6 1.6 0 0 1 1.6 1.6z" class="cls-3"/>
                <path id="Path_7780" d="M496.2 88.8a1.6 1.6 0 1 1-1.6-1.6 1.6 1.6 0 0 1 1.6 1.6z" class="cls-3"/>
                <path id="Path_7781" d="M470.4 63a2.7 2.7 0 1 1-2.7-2.7 2.7 2.7 0 0 1 2.7 2.7z" class="cls-3"/>
                <path id="Path_7782" d="M484.3 41.5a1.6 1.6 0 1 1-1.6-1.6 1.6 1.6 0 0 1 1.6 1.6z" class="cls-3"/>
                <path id="Path_7783" d="M414.5 79.1a1.6 1.6 0 1 1-1.6-1.6 1.6 1.6 0 0 1 1.6 1.6z" class="cls-3"/>
                <path id="Path_7784" d="M459.6 107a1.6 1.6 0 1 1-1.6-1.6 1.6 1.6 0 0 1 1.6 1.6z" class="cls-3"/>
                <path id="Line_999" d="M0 0L55.9 0" class="cls-3" transform="translate(437.6 88.8)"/>
                <path id="Line_1000" d="M11.4 44.3L0 0" class="cls-3" transform="translate(482.6 42.9)"/>
                <path id="Line_1001" d="M67.4 0L0 36.4" class="cls-3" transform="translate(413.7 42.2)"/>
                <path id="Line_1002" d="M0 0L24.9 16.3" class="cls-4" transform="translate(432.1 90.2)"/>
                <path id="Line_1003" d="M0 0L12.5 6.4" class="cls-3" transform="translate(413.5 80.2)"/>
                <path id="Line_1004" d="M0 77.4L0 0" class="cls-4" transform="translate(458 28.6)"/>
                <path id="Line_1005" d="M26.2 0L0 60.4" class="cls-4" transform="translate(431.4 28)"/>
                <path id="Line_1006" d="M56.9 0L0 0" class="cls-3" transform="translate(423.7 41.5)"/>
                <path id="Path_7785" d="M423.1 41.5a1.6 1.6 0 1 1-1.6-1.6 1.6 1.6 0 0 1 1.6 1.6z" class="cls-3"/>
                <path id="Line_1007" d="M8.7 0L0 35.2" class="cls-3" transform="translate(412.9 42.8)"/>
                <path id="Line_1008" d="M0 0L5.3 0" class="cls-3" transform="translate(468.8 100.6)"/>
                <path id="Line_1009" d="M0 0L5.4 0" class="cls-3" transform="translate(476.3 100.6)"/>
                <path id="Line_1010" d="M0 0L10.8 0" class="cls-3" transform="translate(409.7 89.8)"/>
                <path id="Line_1011" d="M5.3 0L0 0" class="cls-3" transform="translate(439.8 34)"/>
                <path id="Line_1012" d="M4.3 0L0 0" class="cls-3" transform="translate(430.1 28.6)"/>
                <path id="Line_1013" d="M4.3 0L0 0" class="cls-3" transform="translate(423.7 28.6)"/>
                <path id="Line_1014" d="M5.4 0L0 0" class="cls-3" transform="translate(415.1 28.6)"/>
                <path id="Line_1015" d="M5.3 0L0 0" class="cls-3" transform="translate(407.6 28.6)"/>
                <circle id="Ellipse_115" cx="3.8" cy="3.8" r="3.8" class="cls-3" transform="translate(487 100.5)"/>
                <path id="Path_7786" d="M79 134.6v-18.3l-10-5.7V98.1L50.1 86.5l-10.1 6-10.1-6L11 98.1v12.5l-10 5.7v19l10 5.5v12.6L30.6 165l8.8-5.3 9 5.3L68 153.4v-12.6z" class="cls-4"/>
                <path id="Path_7787" d="M26 151.9h-8v-15H3.8" class="cls-5"/>
                <path id="Line_1016" d="M14 0L0 0" class="cls-5" transform="translate(10 103.9)"/>
                <path id="Line_1017" d="M0 12L0 0" class="cls-5" transform="translate(17 103.9)"/>
                <path id="Line_1018" d="M0 68.4L0 0" class="cls-4" transform="translate(40 91.9)"/>
                <path id="Path_7788" d="M27 131.9v-15h12" class="cls-5"/>
                <path id="Path_7789" d="M53 135.9h7v-11h19" class="cls-5"/>
                <path id="Path_7790" d="M57 148.9h-6v14.7" class="cls-5"/>
                <circle id="Ellipse_116" cx="3.5" cy="3.5" r="3.5" class="cls-5" transform="translate(23 100.9)"/>
                <circle id="Ellipse_117" cx="3.5" cy="3.5" r="3.5" class="cls-5" transform="translate(13 115.9)"/>
                <circle id="Ellipse_118" cx="3.5" cy="3.5" r="3.5" class="cls-5" transform="translate(24 131.9)"/>
                <circle id="Ellipse_119" cx="3.5" cy="3.5" r="3.5" class="cls-5" transform="translate(26 147.9)"/>
                <circle id="Ellipse_120" cx="3.5" cy="3.5" r="3.5" class="cls-5" transform="translate(46 132.9)"/>
                <circle id="Ellipse_121" cx="3.5" cy="3.5" r="3.5" class="cls-5" transform="translate(57 144.9)"/>
                <path id="Path_7791" d="M57 104.9v4H40" class="cls-5"/>
                <path id="Line_1019" d="M0 7L0 0" class="cls-5" transform="translate(49 108.9)"/>
                <circle id="Ellipse_122" cx="3.5" cy="3.5" r="3.5" class="cls-5" transform="translate(45 115.9)"/>
                <circle id="Ellipse_123" cx="3.5" cy="3.5" r="3.5" class="cls-5" transform="translate(53 97.9)"/>
                <path id="Line_1020" d="M0 0L73 0" class="cls-6" transform="translate(62.2 205.8)"/>
                <path id="Line_1021" d="M0 0L29 0" class="cls-6" transform="translate(150.2 205.8)"/>
                <path id="Line_1022" d="M0 0L67 0" class="cls-6" transform="translate(363.2 205.8)"/>
                <path id="Line_1023" d="M0 0L11 0" class="cls-6" transform="translate(441.2 205.8)"/>
                <path id="Line_1024" d="M0 0L39 0" class="cls-6" transform="translate(465.2 205.8)"/>
                <path id="Path_7792" d="M230.2 59.1a85.2 85.2 0 0 0-31 22.3" class="cls-6"/>
                <path id="Path_7793" d="M340.4 102.4A85.1 85.1 0 0 0 238 56.3" class="cls-6"/>
                <path id="Path_7794" d="M194.2 87.7a84.7 84.7 0 0 0-11.1 20.9 63.8 63.8 0 0 0-77.1 52.6" class="cls-6"/>
                <path id="Path_7795" d="M331.2 109.3a56.3 56.3 0 0 1 91.8 30.3" class="cls-6"/>
                <path id="Line_1025" d="M0 0L96.6 0" class="cls-4" transform="translate(210 59.5)"/>
                <path id="Line_1026" d="M0 0L48 0" class="cls-4" transform="translate(319.7 59.5)"/>
                <path id="Line_1027" d="M0 0L96.5 0" class="cls-4" transform="translate(184.6 30)"/>
                <path id="Line_1028" d="M0 0L48 0" class="cls-4" transform="translate(287.4 30)"/>
                <path id="Line_1029" d="M0 0L48.1 0" class="cls-4" transform="translate(202.2 88.6)"/>
                <path id="Line_1030" d="M0 0L48 0" class="cls-4" transform="translate(256.1 88.6)"/>
                <path id="Line_1031" d="M0 0L116 0" class="cls-4" transform="translate(194.9 74.1)"/>
                <path id="Line_1032" d="M0 0L32.5 0" class="cls-4" transform="translate(342.1 74.1)"/>
                <path id="Line_1033" d="M0 0L57.8 0" class="cls-4" transform="translate(284.5 1)"/>
                <path id="Line_1034" d="M0 0L57.8 0" class="cls-4" transform="translate(234.6 15.5)"/>
                <path id="Line_1035" d="M0 0L10.2 0" class="cls-4" transform="translate(298.2 15.5)"/>
                <path id="Line_1036" d="M0 0L48.1 0" class="cls-4" transform="translate(202.2 44.6)"/>
                <path id="Line_1037" d="M0 0L57.8 0" class="cls-4" transform="translate(258.1 44.6)"/>
                <path id="Line_1038" d="M0 0L10.2 0" class="cls-4" transform="translate(321.7 44.6)"/>
                <path id="Line_1039" d="M20 0L0 20" class="cls-3" transform="translate(211.9 243.4)"/>
                <path id="Line_1040" d="M20.8 0L0 20.7" class="cls-3" transform="translate(305.8 148.8)"/>
                <path id="Path_7796" d="M326.6 255.3v8.8h-8.9" class="cls-3"/>
                <path id="Path_7797" d="M297 264.1h-17.8m-38.2 0h17.5" class="cls-3"/>
                <path id="Path_7798" d="M211.2 217.3v17.3m0-56v17" class="cls-3"/>
                <path id="Path_7799" d="M220.1 148.8h-8.9v8.9" class="cls-3"/>
                <path id="Path_7800" d="M279.2 148.8H297m-56 0h17.5" class="cls-3"/>
                <path id="Line_1041" d="M0 0L0 17" class="cls-3" transform="translate(326.6 217.3)"/>
                <path id="Line_1042" d="M0 0L0 17" class="cls-3" transform="translate(326.6 178.6)"/>
                <path id="Path_7801" d="M310.3 148.8h16.3v16.3" class="cls-3"/>
                <path id="Path_7802" d="M227.5 264.1h-16.3v-16.2" class="cls-3"/>
                <path id="Rectangle_8490" d="M0 0H59.2V59.15H0z" class="cls-4" transform="translate(239.3 176.9)"/>
                <path id="Path_7803" d="M156.2 70.6V31.4l-34-19.6-34 19.6v39.2l34 19.7z" class="cls-6"/>
                <path id="Path_7804" d="M88.2 31.1l34 19.7 34-19.7" class="cls-6"/>
                <path id="Line_1043" d="M0 0L0 39.5" class="cls-6" transform="translate(122.2 51)"/>
                <path id="Path_7805" d="M139.2 60.9V41.3l-17-9.9-17 9.9v19.6l17 9.8z" class="cls-4"/>
                <path id="Path_7806" d="M104.7 40.8l17.5 10.1 17.5-10.1" class="cls-6"/>
                <path id="Line_1044" d="M0 0L0 20.3" class="cls-6" transform="translate(122.2 51.1)"/>
            </g>
        </g>
    </g>
</svg>
