<svg xmlns="http://www.w3.org/2000/svg" id="graphic-benefits-2" width="442" height="239.53" viewBox="0 0 442 239.53">
    <defs>
        <clipPath id="clip-path">
            <path id="Rectangle_4845" fill="none" d="M0 0H442V239.53H0z" data-name="Rectangle 4845"/>
        </clipPath>
        <style>
            .cls-3,.cls-4,.cls-5,.cls-6,.cls-7,.cls-8{fill:none}.cls-3{stroke:#879196}.cls-3,.cls-4,.cls-7,.cls-8{stroke-linejoin:round}.cls-3,.cls-4,.cls-5,.cls-6,.cls-7,.cls-8{stroke-width:2px}.cls-4,.cls-5{stroke:#527fff}.cls-5,.cls-6{stroke-miterlimit:10}.cls-6,.cls-7{stroke:#869196}.cls-8{stroke:#869095}
        </style>
    </defs>
    <g id="graphic-benefits-2-2" data-name="graphic-benefits-2" transform="translate(221 119.765)">
        <g id="Group_2857" clip-path="url(#clip-path)" data-name="Group 2857" transform="translate(-221 -119.765)">
            <path id="Path_4726" d="M221.8 10.1h16a1.9 1.9 0 0 1 1.7 1.1l9.6 18.9" class="cls-3" data-name="Path 4726"/>
            <path id="Path_4727" d="M167.3 52.8H161a1 1 0 0 1-1-1v-4.4a1 1 0 0 1 1-1h6.3" class="cls-3" data-name="Path 4727"/>
            <path id="Path_4728" d="M198.2 53.3a8.6 8.6 0 1 1-8.6-8.6 8.6 8.6 0 0 1 8.6 8.6z" class="cls-3" data-name="Path 4728"/>
            <path id="Path_4729" d="M189.5 57.4a4.1 4.1 0 1 1 4.1-4.1 4.1 4.1 0 0 1-4.1 4.1z" class="cls-3" data-name="Path 4729"/>
            <path id="Path_4730" d="M246.3 53.3a8.6 8.6 0 1 1-8.6-8.6 8.6 8.6 0 0 1 8.6 8.6z" class="cls-3" data-name="Path 4730"/>
            <path id="Path_4731" d="M237.7 57.4a4.1 4.1 0 1 1 4.1-4.1 4.1 4.1 0 0 1-4.1 4.1z" class="cls-3" data-name="Path 4731"/>
            <path id="Line_1622" d="M9.1 0L0 0" class="cls-3" data-name="Line 1622" transform="translate(154.5 30.1)"/>
            <path id="Line_1623" d="M9.1 0L0 0" class="cls-3" data-name="Line 1623" transform="translate(154.5 17.4)"/>
            <path id="Line_1624" d="M14.5 0L0 0" class="cls-3" data-name="Line 1624" transform="translate(149.1 23.7)"/>
            <path id="Path_4732" d="M180.9 52.8h-13.7V2.9a1.9 1.9 0 0 1 2-1.9H219a1.9 1.9 0 0 1 1.9 1.9v49.9h-21.8" class="cls-4" data-name="Path 4732"/>
            <path id="Path_4733" d="M220.9 30.1h30.8a1.9 1.9 0 0 1 1.9 1.9v18.9a1.9 1.9 0 0 1-1.9 1.9h-5" class="cls-3" data-name="Path 4733"/>
            <path id="Line_1625" d="M11.1 0L0 0" class="cls-3" data-name="Line 1625" transform="translate(217.9 52.8)"/>
            <path id="Line_1626" d="M0 64L0 0" class="cls-3" data-name="Line 1626" transform="translate(155.3 174.5)"/>
            <path id="Line_1627" d="M0 0L44 0" class="cls-3" data-name="Line 1627" transform="translate(200.3 174.5)"/>
            <path id="Line_1628" d="M0 0L44 0" class="cls-3" data-name="Line 1628" transform="translate(136.3 174.5)"/>
            <path id="Path_4734" d="M180.3 160.5h-41.7a2.2 2.2 0 0 0-2.3 2.2v73.6a2.2 2.2 0 0 0 2.2 2.2h103.6a2.2 2.2 0 0 0 2.3-2.2v-73.6a2.2 2.2 0 0 0-2.3-2.2h-41.8" class="cls-3" data-name="Path 4734"/>
            <path id="Line_1629" d="M0 0L5 0" class="cls-4" data-name="Line 1629" transform="translate(141.3 167.5)"/>
            <path id="Line_1630" d="M0 0L5 0" class="cls-4" data-name="Line 1630" transform="translate(149.3 167.5)"/>
            <path id="Line_1631" d="M0 0L5 0" class="cls-4" data-name="Line 1631" transform="translate(157.3 167.5)"/>
            <path id="Line_1632" d="M0 65L0 0" class="cls-5" data-name="Line 1632" transform="translate(190.3 165.5)"/>
            <path id="Path_4735" d="M184.3 145.5v-5h34" class="cls-6" data-name="Path 4735"/>
            <path id="Line_1633" d="M0 76L0 0" class="cls-6" data-name="Line 1633" transform="translate(184.3 154.5)"/>
            <path id="Path_4736" d="M202.3 230.5v-33h8" class="cls-5" data-name="Path 4736"/>
            <path id="Path_4737" d="M196.3 211.5v-62h-34" class="cls-5" data-name="Path 4737"/>
            <path id="Line_1634" d="M0 13L0 0" class="cls-6" data-name="Line 1634" transform="translate(196.3 217.5)"/>
            <path id="Path_4738" d="M178.3 230.5v-46h-14" class="cls-5" data-name="Path 4738"/>
            <path id="Line_1635" d="M0 0L3 0" class="cls-6" data-name="Line 1635" transform="translate(150.3 149.5)"/>
            <path id="Line_1636" d="M0 0L3 0" class="cls-6" data-name="Line 1636" transform="translate(156.3 149.5)"/>
            <path id="Line_1637" d="M0 0L3 0" class="cls-6" data-name="Line 1637" transform="translate(221.3 140.5)"/>
            <path id="Line_1638" d="M0 0L3 0" class="cls-6" data-name="Line 1638" transform="translate(227.3 140.5)"/>
            <path id="Rectangle_4824" d="M0 0H10.8V10.8H0z" class="cls-7" data-name="Rectangle 4824" transform="translate(60.3 124.1)"/>
            <path id="Rectangle_4825" d="M0 0H10.8V10.8H0z" class="cls-7" data-name="Rectangle 4825" transform="translate(76.5 151.3)"/>
            <path id="Rectangle_4826" d="M0 0H10.8V10.8H0z" class="cls-7" data-name="Rectangle 4826" transform="translate(85.5 104.7)"/>
            <path id="Rectangle_4827" d="M0 0H10.8V10.8H0z" class="cls-4" data-name="Rectangle 4827" transform="translate(83.7 131.5)"/>
            <path id="Rectangle_4828" d="M0 0H10.8V10.8H0z" class="cls-7" data-name="Rectangle 4828" transform="translate(110.7 97.3)"/>
            <path id="Rectangle_4829" d="M0 0H10.8V10.8H0z" class="cls-4" data-name="Rectangle 4829" transform="translate(71.1 91.9)"/>
            <path id="Rectangle_4830" d="M0 0H10.8V10.8H0z" class="cls-7" data-name="Rectangle 4830" transform="translate(103.5 124.1)"/>
            <path id="Rectangle_4831" d="M0 0H10.8V10.8H0z" class="cls-7" data-name="Rectangle 4831" transform="translate(110.7 142.3)"/>
            <path id="Rectangle_4832" d="M0 0H10.8V10.8H0z" class="cls-4" data-name="Rectangle 4832" transform="translate(145.1 84.7)"/>
            <path id="Rectangle_4833" d="M0 0H10.8V10.8H0z" class="cls-7" data-name="Rectangle 4833" transform="translate(49.5 81.1)"/>
            <path id="Rectangle_4834" d="M0 0H10.8V10.8H0z" class="cls-7" data-name="Rectangle 4834" transform="translate(250.3 124.1)"/>
            <path id="Rectangle_4835" d="M0 0H10.8V10.8H0z" class="cls-7" data-name="Rectangle 4835" transform="translate(266.5 151.3)"/>
            <path id="Rectangle_4836" d="M0 0H10.8V10.8H0z" class="cls-7" data-name="Rectangle 4836" transform="translate(275.5 104.7)"/>
            <path id="Rectangle_4837" d="M0 0H10.8V10.8H0z" class="cls-4" data-name="Rectangle 4837" transform="translate(273.7 131.5)"/>
            <path id="Rectangle_4838" d="M0 0H10.8V10.8H0z" class="cls-7" data-name="Rectangle 4838" transform="translate(300.7 97.3)"/>
            <path id="Rectangle_4839" d="M0 0H10.8V10.8H0z" class="cls-4" data-name="Rectangle 4839" transform="translate(261.1 91.9)"/>
            <path id="Rectangle_4840" d="M0 0H10.8V10.8H0z" class="cls-7" data-name="Rectangle 4840" transform="translate(293.5 124.1)"/>
            <path id="Rectangle_4841" d="M0 0H10.8V10.8H0z" class="cls-7" data-name="Rectangle 4841" transform="translate(300.7 142.3)"/>
            <path id="Rectangle_4842" d="M0 0H10.8V10.8H0z" class="cls-4" data-name="Rectangle 4842" transform="translate(335.1 84.7)"/>
            <path id="Rectangle_4843" d="M0 0H10.8V10.8H0z" class="cls-7" data-name="Rectangle 4843" transform="translate(239.5 81.1)"/>
            <path id="Line_1639" d="M0 0L73 0" class="cls-3" data-name="Line 1639" transform="translate(0 223.1)"/>
            <path id="Line_1640" d="M0 0L29 0" class="cls-3" data-name="Line 1640" transform="translate(88 223.1)"/>
            <path id="Line_1641" d="M0 0L110 0" class="cls-3" data-name="Line 1641" transform="translate(258 223.1)"/>
            <path id="Line_1642" d="M0 0L11 0" class="cls-3" data-name="Line 1642" transform="translate(379 223.1)"/>
            <path id="Line_1643" d="M0 0L39 0" class="cls-3" data-name="Line 1643" transform="translate(403 223.1)"/>
            <path id="Line_1644" d="M20 0L0 9" class="cls-8" data-name="Line 1644" transform="translate(32 43.1)"/>
            <path id="Line_1645" d="M0 7L21 0" class="cls-8" data-name="Line 1645" transform="translate(28 35.1)"/>
            <circle id="Ellipse_117" cx="12" cy="12" r="12" class="cls-8" data-name="Ellipse 117" transform="translate(8 39.1)"/>
            <circle id="Ellipse_118" cx="7" cy="7" r="7" class="cls-4" data-name="Ellipse 118" transform="translate(13 44.1)"/>
            <path id="Path_4739" d="M25 63.1v35h-9v-36" class="cls-8" data-name="Path 4739"/>
            <path id="Path_4740" d="M12 110.1h16v-10a2 2 0 0 0-2-2H14a2 2 0 0 0-2 2z" class="cls-8" data-name="Path 4740"/>
            <path id="Rectangle_4844" d="M0 0H24V5H0z" class="cls-4" data-name="Rectangle 4844" transform="translate(8 110.1)"/>
            <circle id="Ellipse_119" cx="6" cy="6" r="6" class="cls-8" data-name="Ellipse 119" transform="translate(48 32.1)"/>
            <circle id="Ellipse_120" cx="3" cy="3" r="3" class="cls-8" data-name="Ellipse 120" transform="translate(51 35.1)"/>
            <path id="Path_4741" d="M52 44.1v18h4v-18" class="cls-8" data-name="Path 4741"/>
            <path id="Path_4742" d="M54 62.1h-7.5L42 66.6v5.5l3 3" class="cls-8" data-name="Path 4742"/>
            <path id="Path_4743" d="M54 62.1h7.5l4.5 4.5v5.5l-3 3" class="cls-8" data-name="Path 4743"/>
            <path id="Line_1646" d="M0 0L11 0" class="cls-8" data-name="Line 1646" transform="translate(13 102.1)"/>
            <path id="Path_4744" d="M366.5 150.9a11 11 0 1 1 11 11 11 11 0 0 1-11-11" class="cls-4" data-name="Path 4744"/>
            <path id="Path_4745" d="M358.5 181.9h37.9a20.2 20.2 0 0 0-9.3-17.2 18.2 18.2 0 0 0-9.7-2.8c-10.4 0-18.9 9-18.9 20z" class="cls-3" data-name="Path 4745"/>
            <path id="Path_4746" d="M348.5 115.9a11 11 0 1 1 11 11 11 11 0 0 1-11-11" class="cls-3" data-name="Path 4746"/>
            <path id="Path_4747" d="M359.5 146.9h-19s.2-19.4 19.4-20a19.5 19.5 0 0 1 13.1 5.2" class="cls-3" data-name="Path 4747"/>
            <path id="Path_4748" d="M381.5 115.9a11 11 0 1 1 11 11 11 11 0 0 1-11-11" class="cls-3" data-name="Path 4748"/>
            <path id="Path_4749" d="M393.5 146.9h19s-.2-19.4-19.4-20a19.5 19.5 0 0 0-13.1 5.2" class="cls-3" data-name="Path 4749"/>
        </g>
    </g>
</svg>
