<svg xmlns="http://www.w3.org/2000/svg" id="graphic-cap-manuf-secondary" width="671.9" height="510.1" viewBox="0 0 671.9 510.1">
    <defs>
        <clipPath id="clip-path">
            <path id="Rectangle_3959" fill="none" d="M0 0H671.9V510.1H0z" data-name="Rectangle 3959"/>
        </clipPath>
        <style>
            .cls-10,.cls-11,.cls-12,.cls-13,.cls-14,.cls-3,.cls-6,.cls-7{fill:none}.cls-12,.cls-3{stroke:#879196}.cls-13,.cls-14,.cls-3,.cls-6,.cls-7{stroke-miterlimit:10}.cls-10,.cls-11,.cls-12,.cls-13,.cls-14,.cls-3,.cls-6,.cls-7{stroke-width:2px}.cls-5{fill:#879195}.cls-6{stroke:#879195}.cls-10,.cls-14,.cls-7{stroke:#527fff}.cls-10,.cls-11,.cls-12{stroke-linejoin:round}.cls-11{stroke:#869196}.cls-13{stroke:#869095}.cls-13,.cls-14{stroke-linecap:square}
        </style>
    </defs>
    <g id="graphic-cap-manuf-secondary-2" data-name="graphic-cap-manuf-secondary" transform="translate(335.95 255.05)">
        <g id="graphic-cap-manuf-secondary-3" clip-path="url(#clip-path)" data-name="graphic-cap-manuf-secondary" transform="translate(-335.95 -255.05)">
            <path id="Path_4036" d="M206.9 396.6A136.8 136.8 0 0 1 99.2 237.5" class="cls-3" data-name="Path 4036"/>
            <path id="Path_4037" fill="#879196" d="M106.2 245.4l-1.7 1.1-5.4-8.2-7.8 6-1.2-1.6 9.5-7.3z" data-name="Path 4037"/>
            <path id="Path_4038" d="M312.5 150.1a137 137 0 0 1 57.1 93.5" class="cls-3" data-name="Path 4038"/>
            <path id="Path_4039" d="M193.2 131.5a137.4 137.4 0 0 1 97.2 6.1" class="cls-3" data-name="Path 4039"/>
            <path id="Path_4040" d="M330.5 357.9a137.4 137.4 0 0 0 39.5-89" class="cls-3" data-name="Path 4040"/>
            <path id="Rectangle_3926" d="M0 0H3.5V3.47H0z" class="cls-5" data-name="Rectangle 3926" transform="translate(0 126)"/>
            <path id="Rectangle_3927" d="M0 0H3.5V3.47H0z" class="cls-5" data-name="Rectangle 3927" transform="translate(0 138.1)"/>
            <path id="Rectangle_3928" d="M0 0H3.5V3.47H0z" class="cls-5" data-name="Rectangle 3928" transform="translate(0 150.3)"/>
            <path id="Rectangle_3929" d="M0 0H3.5V3.47H0z" class="cls-5" data-name="Rectangle 3929" transform="translate(0 162.4)"/>
            <path id="Rectangle_3930" d="M0 0H3.5V3.47H0z" class="cls-5" data-name="Rectangle 3930" transform="translate(0 174.5)"/>
            <path id="Rectangle_3931" d="M0 0H3.5V3.47H0z" class="cls-5" data-name="Rectangle 3931" transform="translate(0 186.7)"/>
            <path id="Line_1040" d="M0 0L41.2 0" class="cls-6" data-name="Line 1040" transform="translate(10.5 127.5)"/>
            <path id="Line_1041" d="M0 0L30.8 0" class="cls-6" data-name="Line 1041" transform="translate(57.6 127.5)"/>
            <path id="Line_1042" d="M0 0L39.9 0" class="cls-7" data-name="Line 1042" transform="translate(31.2 139.8)"/>
            <path id="Line_1043" d="M0 0L12.1 0" class="cls-6" data-name="Line 1043" transform="translate(20.8 152)"/>
            <path id="Line_1044" d="M0 0L67.7 0" class="cls-6" data-name="Line 1044" transform="translate(38.1 152)"/>
            <path id="Line_1045" d="M0 0L18.7 0" class="cls-6" data-name="Line 1045" transform="translate(76.3 139.8)"/>
            <path id="Line_1046" d="M0 0L39.9 0" class="cls-6" data-name="Line 1046" transform="translate(31.2 164)"/>
            <path id="Line_1047" d="M0 0L12.1 0" class="cls-6" data-name="Line 1047" transform="translate(20.8 176.3)"/>
            <path id="Line_1048" d="M0 0L12.2 0" class="cls-6" data-name="Line 1048" transform="translate(38.1 176.3)"/>
            <path id="Line_1049" d="M0 0L53.7 0" class="cls-6" data-name="Line 1049" transform="translate(55.5 176.3)"/>
            <path id="Line_1050" d="M0 0L18.7 0" class="cls-7" data-name="Line 1050" transform="translate(76.3 164)"/>
            <path id="Line_1051" d="M0 0L36.4 0" class="cls-7" data-name="Line 1051" transform="translate(100.6 164)"/>
            <path id="Line_1052" d="M0 0L39.9 0" class="cls-6" data-name="Line 1052" transform="translate(15.6 188.3)"/>
            <path id="Line_1053" d="M0 0L18.7 0" class="cls-7" data-name="Line 1053" transform="translate(60.7 188.3)"/>
            <path id="Line_1054" d="M0 0L36.4 0" class="cls-6" data-name="Line 1054" transform="translate(85 188.3)"/>
            <path id="Rectangle_3932" d="M0 0H3.5V3.47H0z" class="cls-5" data-name="Rectangle 3932" transform="translate(0 198.8)"/>
            <path id="Rectangle_3933" d="M0 0H3.5V3.47H0z" class="cls-5" data-name="Rectangle 3933" transform="translate(0 210.9)"/>
            <path id="Line_1055" d="M0 0L12.1 0" class="cls-6" data-name="Line 1055" transform="translate(20.8 200.5)"/>
            <path id="Line_1056" d="M0 0L67.7 0" class="cls-7" data-name="Line 1056" transform="translate(38.1 200.5)"/>
            <path id="Line_1057" d="M0 0L39.9 0" class="cls-6" data-name="Line 1057" transform="translate(31.2 212.6)"/>
            <path id="Line_1058" d="M0 0L18.7 0" class="cls-7" data-name="Line 1058" transform="translate(76.3 212.6)"/>
            <path id="Line_1059" d="M0 0L36.4 0" class="cls-6" data-name="Line 1059" transform="translate(100.6 212.6)"/>
            <path id="Line_1060" fill="none" stroke="#527fff" stroke-dasharray="4 6" stroke-miterlimit="10" stroke-width="2px" d="M0 0L196.4 0" data-name="Line 1060" transform="translate(349.8 255.8)"/>
            <path id="Path_4041" fill="#527fff" d="M539.6 263.9l-1.4-1.4 7.2-6.7-7.2-6.8 1.4-1.4 8.8 8.2z" data-name="Path 4041"/>
            <path id="Rectangle_3934" d="M0 0H19.4V19.44H0z" class="cls-10" data-name="Rectangle 3934" transform="translate(477 263.6)"/>
            <path id="Rectangle_3935" d="M0 0H19.4V19.44H0z" class="cls-10" data-name="Rectangle 3935" transform="translate(447.8 312.6)"/>
            <path id="Rectangle_3936" d="M0 0H19.4V19.44H0z" class="cls-10" data-name="Rectangle 3936" transform="translate(431.6 228.7)"/>
            <path id="Rectangle_3937" d="M0 0H19.4V19.44H0z" class="cls-10" data-name="Rectangle 3937" transform="translate(434.9 277)"/>
            <path id="Rectangle_3938" d="M0 0H19.4V19.44H0z" class="cls-11" data-name="Rectangle 3938" transform="translate(386.3 215.4)"/>
            <path id="Rectangle_3939" d="M0 0H19.4V19.44H0z" class="cls-10" data-name="Rectangle 3939" transform="translate(457.5 205.7)"/>
            <path id="Rectangle_3940" d="M0 0H19.4V19.44H0z" class="cls-11" data-name="Rectangle 3940" transform="translate(399.2 263.6)"/>
            <path id="Rectangle_3941" d="M0 0H19.4V19.44H0z" class="cls-11" data-name="Rectangle 3941" transform="translate(386.3 296.4)"/>
            <path id="Rectangle_3942" d="M0 0H19.4V19.44H0z" class="cls-10" data-name="Rectangle 3942" transform="translate(324.4 192.7)"/>
            <path id="Rectangle_3943" d="M0 0H19.4V19.44H0z" class="cls-11" data-name="Rectangle 3943" transform="translate(496.4 186.3)"/>
            <path id="Path_4042" d="M300.8 166.5V77.3h86.4" class="cls-12" data-name="Path 4042"/>
            <path id="Line_1061" d="M0 0L5.8 0" class="cls-12" data-name="Line 1061" transform="translate(395.8 77.3)"/>
            <path id="Line_1062" d="M0 0L11.5 0" class="cls-12" data-name="Line 1062" transform="translate(408.8 77.3)"/>
            <path id="Line_1063" d="M0 0L55.5 0" class="cls-10" data-name="Line 1063" transform="translate(325.2 436.1)"/>
            <path id="Rectangle_3944" d="M0 0H10.2V10.19H0z" class="cls-10" data-name="Rectangle 3944" transform="rotate(-.2 123431.846 -87905.085)"/>
            <path id="Line_1064" d="M0 0L55.5 0" class="cls-10" data-name="Line 1064" transform="translate(325.2 459.4)"/>
            <path id="Rectangle_3945" d="M0 0H10.2V10.19H0z" class="cls-10" data-name="Rectangle 3945" transform="rotate(-.2 130106.789 -87888.279)"/>
            <path id="Line_1065" d="M0 0L55.5 0" class="cls-10" data-name="Line 1065" transform="translate(325.2 482.8)"/>
            <path id="Rectangle_3946" d="M0 0H10.2V10.19H0z" class="cls-10" data-name="Rectangle 3946" transform="rotate(-.2 136838.74 -87871.373)"/>
            <path id="Line_1066" d="M0 93.5L0 0" class="cls-12" data-name="Line 1066" transform="translate(282.9 415.6)"/>
            <path id="Line_1067" d="M0 0L157.8 0" class="cls-12" data-name="Line 1067" transform="translate(255.1 415.6)"/>
            <path id="Path_4043" d="M409.6 509.1a3.2 3.2 0 0 0 3.3-3.2V398.4a3.2 3.2 0 0 0-3.3-3.2H258.5a3.2 3.2 0 0 0-3.3 3.2v107.5a3.2 3.2 0 0 0 3.3 3.2z" class="cls-12" data-name="Path 4043"/>
            <path id="Line_1068" d="M0 0L7.3 0" class="cls-10" data-name="Line 1068" transform="translate(262.4 405.4)"/>
            <path id="Line_1069" d="M0 0L7.3 0" class="cls-10" data-name="Line 1069" transform="translate(274.1 405.4)"/>
            <path id="Line_1070" d="M0 0L7.3 0" class="cls-10" data-name="Line 1070" transform="translate(285.8 405.4)"/>
            <path id="Path_4044" d="M269.5 250.8v-28c0-9.5-19.7-17.3-46.8-17.3s-46.7 7.8-46.7 17.3v83.1c0 6.8 9.1 12.8 25.5 15.6 3.6.6 7.4 1.1 11.4 1.4l4.9.3h10l4.9-.3a98.679 98.679 0 0 0 11.4-1.4c16.4-2.8 25.5-8.7 25.5-15.6v-8.4" class="cls-10" data-name="Path 4044"/>
            <path id="Path_4045" d="M269.5 222.1c0 8.1-19.7 15.1-46.8 15.1s-46.8-7-46.8-15.1" class="cls-10" data-name="Path 4045"/>
            <path id="Path_4046" d="M224.3 265.9c-27.1 0-48.3-6.3-48.3-14.5" class="cls-10" data-name="Path 4046"/>
            <path id="Path_4047" d="M222.8 292c-27.1 0-46.8-6-46.8-14.1" class="cls-10" data-name="Path 4047"/>
            <path id="Path_4048" d="M230.3 292.5c5.1 0 5.1 4 10.2 4s5.1-4 10.2-4 5.1 4 10.2 4 5.1-4 10.2-4 5.1 4 10.2 4 5.1-4 10.2-4 5.1 4 10.2 4 5.1-4 10.2-4" class="cls-7" data-name="Path 4048"/>
            <path id="Path_4049" d="M230.3 279c5.1 0 5.1 4 10.2 4s5.1-4 10.2-4 5.1 4 10.2 4 5.1-4 10.2-4 5.1 4 10.2 4 5.1-4 10.2-4 5.1 4 10.2 4 5.1-4 10.2-4" class="cls-7" data-name="Path 4049"/>
            <path id="Path_4050" d="M230.3 265.4c5.1 0 5.1 4 10.2 4s5.1-4 10.2-4 5.1 4 10.2 4 5.1-4 10.2-4 5.1 4 10.2 4 5.1-4 10.2-4 5.1 4 10.2 4 5.1-4 10.2-4" class="cls-7" data-name="Path 4050"/>
            <path id="Rectangle_3947" d="M0 0H8.6V8.64H0z" class="cls-12" data-name="Rectangle 3947" transform="translate(493.7 60)"/>
            <path id="Rectangle_3948" d="M0 0H8.6V8.64H0z" class="cls-12" data-name="Rectangle 3948" transform="translate(515.3 65.8)"/>
            <path id="Rectangle_3949" d="M0 0H8.6V8.64H0z" class="cls-12" data-name="Rectangle 3949" transform="translate(482.2 77.3)"/>
            <path id="Rectangle_3950" d="M0 0H8.6V8.64H0z" class="cls-12" data-name="Rectangle 3950" transform="translate(502.3 80.2)"/>
            <path id="Rectangle_3951" d="M0 0H8.6V8.64H0z" class="cls-12" data-name="Rectangle 3951" transform="translate(472.1 107.5)"/>
            <path id="Rectangle_3952" d="M0 0H8.6V8.64H0z" class="cls-12" data-name="Rectangle 3952" transform="translate(492.2 97.4)"/>
            <path id="Rectangle_3953" d="M0 0H8.6V8.64H0z" class="cls-12" data-name="Rectangle 3953" transform="translate(477.9 51.4)"/>
            <path id="Rectangle_3954" d="M0 0H8.6V8.64H0z" class="cls-12" data-name="Rectangle 3954" transform="translate(499.4 42.7)"/>
            <path id="Path_4051" d="M509.5 60h23v56.1h21.6V38.4L497.8 1l-57.4 37.4v77.7h23.1V60h7.2" class="cls-10" data-name="Path 4051"/>
            <path id="Path_4052" d="M657.6 276.8v-22.4h-87.5v22.4" class="cls-13" data-name="Path 4052"/>
            <path id="Line_1071" d="M0 44.8L0 0" class="cls-13" data-name="Line 1071" transform="translate(613.9 232)"/>
            <rect id="Rectangle_3955" width="26.5" height="19.6" class="cls-14" data-name="Rectangle 3955" rx="2.7" transform="translate(600.6 212.4)"/>
            <rect id="Rectangle_3956" width="26.5" height="19.6" class="cls-14" data-name="Rectangle 3956" rx="2.7" transform="translate(600.6 276.8)"/>
            <rect id="Rectangle_3957" width="26.5" height="19.6" class="cls-14" data-name="Rectangle 3957" rx="2.7" transform="translate(644.4 276.8)"/>
            <rect id="Rectangle_3958" width="26.5" height="19.6" class="cls-14" data-name="Rectangle 3958" rx="2.7" transform="translate(556.9 276.8)"/>
        </g>
    </g>
</svg>
