<svg xmlns="http://www.w3.org/2000/svg" id="graphic-del-ps-features-1" width="490" height="247.46" viewBox="0 0 490 247.46">
    <defs>
        <clipPath id="clip-path">
            <path id="Rectangle_8534" fill="none" d="M0 0H490V247.46H0z"/>
        </clipPath>
        <style>
            .cls-3,.cls-4,.cls-5,.cls-6,.cls-7{fill:none}.cls-2{clip-path:url(#clip-path)}.cls-3{stroke:#879196}.cls-3,.cls-4,.cls-5,.cls-6{stroke-linejoin:round}.cls-3,.cls-4,.cls-5,.cls-6,.cls-7{stroke-width:2px}.cls-4{stroke:#16bf9f}.cls-5{stroke:#869095}.cls-6,.cls-7{stroke:#869196}.cls-7{stroke-miterlimit:10}
        </style>
    </defs>
    <g id="graphic-del-ps-features-1-2" transform="translate(245 123.73)">
        <g id="graphic-del-ps-features-1-3" transform="translate(-245 -123.73)">
            <g id="Group_6092" class="cls-2">
                <path id="Line_1129" d="M0 0L73 0" class="cls-3" transform="translate(0 206.3)"/>
            </g>
            <path id="Line_1130" d="M0 0L29 0" class="cls-3" transform="translate(88 206.3)"/>
            <path id="Line_1131" d="M0 0L110 0" class="cls-3" transform="translate(258 206.3)"/>
            <path id="Line_1132" d="M0 0L11 0" class="cls-3" transform="translate(379 206.3)"/>
            <path id="Line_1133" d="M0 0L39 0" class="cls-3" transform="translate(403 206.3)"/>
            <g id="Group_6093" class="cls-2">
                <path id="Path_7852" d="M168.1 59.7A85.2 85.2 0 0 0 137 82" class="cls-3"/>
                <path id="Path_7853" d="M278.3 103a85.1 85.1 0 0 0-102.5-46.1" class="cls-3"/>
                <path id="Path_7854" d="M132 88.3a84.7 84.7 0 0 0-11.1 20.9 63.8 63.8 0 0 0-77.1 52.6" class="cls-3"/>
                <path id="Path_7855" d="M269 109.8a56.3 56.3 0 0 1 91.9 30.4" class="cls-3"/>
                <path id="Rectangle_8535" d="M0 0H11.1V11.08H0z" class="cls-4" transform="translate(444.7 138.4)"/>
                <path id="Rectangle_8536" d="M0 0H11.1V11.08H0z" class="cls-3" transform="translate(460.6 138.4)"/>
                <path id="Rectangle_8537" d="M0 0H11.1V11.08H0z" class="cls-3" transform="translate(444.7 154.3)"/>
                <path id="Rectangle_8538" d="M0 0H11.1V11.08H0z" class="cls-4" transform="translate(460.6 154.3)"/>
                <path id="Line_1134" d="M0 44.3L0 0" class="cls-3" transform="translate(427.3 131.5)"/>
                <path id="Line_1135" d="M0 0L74.8 0" class="cls-3" transform="translate(414.2 131.5)"/>
                <path id="Path_7856" d="M487.4 175.8a1.5 1.5 0 0 0 1.6-1.5v-51a1.5 1.5 0 0 0-1.6-1.5h-71.6a1.5 1.5 0 0 0-1.6 1.5v51a1.5 1.5 0 0 0 1.5 1.5z" class="cls-3"/>
                <path id="Line_1136" d="M0 0L3.4 0" class="cls-4" transform="translate(417.7 126.6)"/>
                <path id="Line_1137" d="M0 0L3.5 0" class="cls-5" transform="translate(423.2 126.6)"/>
                <path id="Line_1138" d="M0 0L3.5 0" class="cls-4" transform="translate(428.7 126.6)"/>
                <path id="Line_1139" d="M0 0L96.5 0" class="cls-4" transform="translate(147.9 60.1)"/>
                <path id="Line_1140" d="M0 0L48.1 0" class="cls-4" transform="translate(257.5 60.1)"/>
                <path id="Line_1141" d="M0 0L96.6 0" class="cls-4" transform="translate(122.4 30.6)"/>
                <path id="Line_1142" d="M0 0L48.1 0" class="cls-4" transform="translate(225.2 30.6)"/>
                <path id="Line_1143" d="M0 0L48 0" class="cls-4" transform="translate(140.1 89.1)"/>
                <path id="Line_1144" d="M0 0L48.1 0" class="cls-4" transform="translate(193.9 89.1)"/>
                <path id="Line_1145" d="M0 0L116 0" class="cls-4" transform="translate(132.7 74.6)"/>
                <path id="Line_1146" d="M0 0L32.4 0" class="cls-4" transform="translate(280 74.6)"/>
                <path id="Line_1147" d="M0 0L57.7 0" class="cls-4" transform="translate(222.4 1.6)"/>
                <path id="Line_1148" d="M0 0L57.7 0" class="cls-4" transform="translate(172.5 16.1)"/>
                <path id="Line_1149" d="M0 0L10.2 0" class="cls-4" transform="translate(236.1 16.1)"/>
                <path id="Line_1150" d="M0 0L48 0" class="cls-4" transform="translate(140.1 45.1)"/>
                <path id="Line_1151" d="M0 0L57.7 0" class="cls-4" transform="translate(196 45.1)"/>
                <path id="Line_1152" d="M0 0L10.2 0" class="cls-4" transform="translate(259.6 45.1)"/>
                <path id="Rectangle_8539" d="M0 0H44.3V6.92H0z" class="cls-4" transform="translate(355.4 26)"/>
                <path id="Rectangle_8540" d="M0 0H19.4V6.92H0z" class="cls-4" transform="translate(355.4 37.8)"/>
                <path id="Rectangle_8541" d="M0 0H19.4V6.92H0z" class="cls-4" transform="translate(380.3 37.8)"/>
                <path id="Line_1153" d="M0 0L19.4 0" class="cls-5" transform="translate(355.4 49.5)"/>
                <path id="Line_1154" d="M0 0L19.4 0" class="cls-5" transform="translate(380.3 49.5)"/>
                <path id="Line_1155" d="M0 0L19.4 0" class="cls-5" transform="translate(380.3 53)"/>
                <path id="Line_1156" d="M0 0L19.4 0" class="cls-5" transform="translate(380.3 56.4)"/>
                <path id="Line_1157" d="M0 0L19.4 0" class="cls-5" transform="translate(355.4 53)"/>
                <path id="Line_1158" d="M0 0L19.4 0" class="cls-5" transform="translate(355.4 56.5)"/>
                <path id="Line_1159" d="M0 0L6.9 0" class="cls-4" transform="translate(337.4 26)"/>
                <path id="Line_1160" d="M0 0L6.9 0" class="cls-5" transform="translate(337.4 33.6)"/>
                <path id="Line_1161" d="M0 0L6.9 0" class="cls-4" transform="translate(337.4 41.2)"/>
                <path id="Line_1162" d="M0 0L6.9 0" class="cls-5" transform="translate(337.4 49.5)"/>
                <path id="Line_1163" d="M0 0L74.7 0" class="cls-3" transform="translate(334.7 19.8)"/>
                <path id="Path_7857" d="M407.9 64.1a1.5 1.5 0 0 0 1.6-1.5v-51a1.5 1.5 0 0 0-1.6-1.5h-71.6a1.5 1.5 0 0 0-1.6 1.5v51a1.5 1.5 0 0 0 1.5 1.5z" class="cls-3"/>
                <path id="Line_1164" d="M0 0L3.5 0" class="cls-5" transform="translate(338.1 14.9)"/>
                <path id="Line_1165" d="M0 0L3.4 0" class="cls-5" transform="translate(343.7 14.9)"/>
                <path id="Line_1166" d="M0 0L3.5 0" class="cls-5" transform="translate(349.2 14.9)"/>
                <path id="Line_1167" d="M0 44.3L0 0" class="cls-3" transform="translate(347.1 19.8)"/>
                <path id="Path_7858" d="M234.1 240.9v-48.4a2 2 0 0 0-2.1-1.9h-82.3a2 2 0 0 0-2.1 1.9v48.4" class="cls-6"/>
                <path id="Path_7859" d="M230.1 246.5a8.3 8.3 0 0 0 5.2-1.9l.3-.2v-4.9h-89.4v4.9l.3.2a8.3 8.3 0 0 0 5.2 1.9z" class="cls-6"/>
                <path id="Path_7860" d="M174.3 160.1c-.2 8.4 2.5 18.3 15.8 18.3s15.8-9.4 16.3-18.3" class="cls-7"/>
                <path id="Path_7861" d="M182.6 145.4s9.7 5.8 18.7 4.1c0 0 2.8 12.7 6.1 11.3 1.4-.6 4.7-9.8 1.9-16.2s1.6-6.6-.6-13.4c-.8-2.3-8.2 3.9-10.4 2.6a21.3 21.3 0 0 0-8.9-2.6c-4.9-.3-10.2 2.6-11.8 4-3.4 3-5.5 5-6.7 11.9-.7 3.6-.1 14.7 3.6 15.2.9.1-1.7-5.7 3-9.1s1.3-11.6 5.1-7.8z" class="cls-7"/>
                <path id="Path_7862" d="M196.5 187l2.8-6.5v-4.1" class="cls-7"/>
                <path id="Path_7863" d="M180.9 176.4v4.1l4.4 6.5" class="cls-7"/>
                <path id="Path_7864" d="M223 190.6c-7-7-20.1-10.4-23.5-10.8" class="cls-7"/>
                <path id="Path_7865" d="M181 179.4c-3.9.5-18.1 4.2-22.2 11.2" class="cls-7"/>
                <path id="Path_7866" d="M196.8 135.5c-1.1 1.1-4.9 2.2-8 2.3" class="cls-7"/>
                <path id="Path_7867" d="M40.1 22.5a9.7 9.7 0 1 1 9.7 9.7 9.7 9.7 0 0 1-9.7-9.7" class="cls-3"/>
                <path id="Path_7868" d="M32.7 50h34.2a17.9 17.9 0 0 0-8.3-15.2 16.6 16.6 0 0 0-8.8-2.5c-9.4 0-17.1 7.9-17.1 17.7z" class="cls-3"/>
                <rect id="Rectangle_8542" width="10" height="23" class="cls-3" rx="2.4" transform="translate(79.9 29)"/>
                <rect id="Rectangle_8543" width="10" height="23" class="cls-3" rx="2.4" transform="translate(79.9 56)"/>
                <path id="Path_7869" d="M48.9 79H24.7a2.8 2.8 0 0 1-2.8-2.8V3.8A2.8 2.8 0 0 1 24.7 1H87a2.8 2.8 0 0 1 2.8 2.8V22h-10v4" class="cls-3"/>
                <path id="Line_1168" d="M12 0L0 0" class="cls-3" transform="translate(51.9 79)"/>
                <path id="Line_1169" d="M8 0L0 0" class="cls-3" transform="translate(66.9 79)"/>
                <path id="Line_1170" d="M0 0L35 0" class="cls-3" transform="translate(32.9 58)"/>
                <path id="Line_1171" d="M0 0L35 0" class="cls-3" transform="translate(32.9 64)"/>
            </g>
        </g>
    </g>
</svg>
