<svg xmlns="http://www.w3.org/2000/svg" id="graphic-benefits-1" width="458.1" height="234.62" viewBox="0 0 458.1 234.62">
    <defs>
        <clipPath id="clip-path">
            <path id="Rectangle_4748" fill="none" d="M0 0H458.1V234.62H0z" data-name="Rectangle 4748"/>
        </clipPath>
        <style>
            .cls-2,.cls-3,.cls-4,.cls-6,.cls-8,.cls-9{fill:none}.cls-2,.cls-8{stroke:#869196}.cls-2,.cls-3,.cls-4,.cls-6,.cls-8,.cls-9{stroke-linejoin:round;stroke-width:2px}.cls-3,.cls-9{stroke:#527fff}.cls-4{stroke:#879196}.cls-6{stroke:#869095}.cls-7{fill:#527fff}.cls-8{stroke-linecap:round}.cls-9{stroke-linecap:square}
        </style>
    </defs>
    <g id="graphic-benefits-1-2" data-name="graphic-benefits-1" transform="translate(229.05 117.31)">
        <g id="Group_2850" data-name="Group 2850" transform="translate(-229.05 -117.31)">
            <path id="Rectangle_4724" d="M0 0H10.5V10.51H0z" class="cls-2" data-name="Rectangle 4724" transform="translate(288.3 124.6)"/>
            <path id="Rectangle_4725" d="M0 0H10.5V10.51H0z" class="cls-2" data-name="Rectangle 4725" transform="translate(304.1 151.1)"/>
            <path id="Rectangle_4726" d="M0 0H10.5V10.51H0z" class="cls-2" data-name="Rectangle 4726" transform="translate(312.8 105.7)"/>
            <path id="Rectangle_4727" d="M0 0H10.5V10.51H0z" class="cls-3" data-name="Rectangle 4727" transform="translate(311.1 131.8)"/>
            <path id="Rectangle_4728" d="M0 0H10.5V10.51H0z" class="cls-2" data-name="Rectangle 4728" transform="translate(337.4 98.5)"/>
            <path id="Rectangle_4729" d="M0 0H10.5V10.51H0z" class="cls-3" data-name="Rectangle 4729" transform="translate(298.8 93.3)"/>
            <path id="Rectangle_4730" d="M0 0H10.5V10.51H0z" class="cls-2" data-name="Rectangle 4730" transform="translate(330.3 124.6)"/>
            <path id="Rectangle_4731" d="M0 0H10.5V10.51H0z" class="cls-2" data-name="Rectangle 4731" transform="translate(337.4 142.3)"/>
            <path id="Rectangle_4732" d="M0 0H10.5V10.51H0z" class="cls-3" data-name="Rectangle 4732" transform="translate(370.8 86.3)"/>
            <path id="Rectangle_4733" d="M0 0H10.5V10.51H0z" class="cls-2" data-name="Rectangle 4733" transform="translate(277.8 82.8)"/>
            <path id="Rectangle_4734" d="M0 0H10.5V10.51H0z" class="cls-2" data-name="Rectangle 4734" transform="translate(77.3 124.6)"/>
            <path id="Rectangle_4735" d="M0 0H10.5V10.51H0z" class="cls-2" data-name="Rectangle 4735" transform="translate(93.1 151.1)"/>
            <path id="Rectangle_4736" d="M0 0H10.5V10.51H0z" class="cls-2" data-name="Rectangle 4736" transform="translate(101.8 105.7)"/>
            <path id="Rectangle_4737" d="M0 0H10.5V10.51H0z" class="cls-3" data-name="Rectangle 4737" transform="translate(100.1 131.8)"/>
            <path id="Rectangle_4738" d="M0 0H10.5V10.51H0z" class="cls-2" data-name="Rectangle 4738" transform="translate(126.4 98.5)"/>
            <path id="Rectangle_4739" d="M0 0H10.5V10.51H0z" class="cls-3" data-name="Rectangle 4739" transform="translate(87.8 93.3)"/>
            <path id="Rectangle_4740" d="M0 0H10.5V10.51H0z" class="cls-2" data-name="Rectangle 4740" transform="translate(119.3 124.6)"/>
            <path id="Rectangle_4741" d="M0 0H10.5V10.51H0z" class="cls-2" data-name="Rectangle 4741" transform="translate(126.4 142.3)"/>
            <path id="Rectangle_4742" d="M0 0H10.5V10.51H0z" class="cls-3" data-name="Rectangle 4742" transform="translate(159.8 86.3)"/>
            <path id="Rectangle_4743" d="M0 0H10.5V10.51H0z" class="cls-2" data-name="Rectangle 4743" transform="translate(66.8 82.8)"/>
            <path id="Line_1526" d="M0 0L73 0" class="cls-4" data-name="Line 1526" transform="translate(16.1 225.6)"/>
            <path id="Line_1527" d="M0 0L29 0" class="cls-4" data-name="Line 1527" transform="translate(104.1 225.6)"/>
            <path id="Line_1528" d="M0 0L110 0" class="cls-4" data-name="Line 1528" transform="translate(274.1 225.6)"/>
            <path id="Line_1529" d="M0 0L11 0" class="cls-4" data-name="Line 1529" transform="translate(395.1 225.6)"/>
            <g id="Group_2849" clip-path="url(#clip-path)" data-name="Group 2849">
                <path id="Line_1530" d="M0 0L39 0" class="cls-4" data-name="Line 1530" transform="translate(419.1 225.6)"/>
                <path id="Path_4642" d="M42.6 166.8a24 24 0 1 1-1.2-33.9 24 24 0 0 1 1.2 33.9z" class="cls-4" data-name="Path 4642"/>
                <path id="Path_4643" d="M12.2 166.9a20.8 20.8 0 0 1 25.6 0 20.8 20.8 0 1 0-25.6 0z" class="cls-3" data-name="Path 4643"/>
                <path id="Path_4644" d="M25.8 151.1a1 1 0 1 1 .29-.773 1 1 0 0 1-.29.773z" class="cls-3" data-name="Path 4644"/>
                <path id="Line_1531" d="M0 3L14.4 0" class="cls-3" data-name="Line 1531" transform="translate(26 147.2)"/>
                <path id="Line_1532" d="M0 0L2.8 1.1" class="cls-4" data-name="Line 1532" transform="translate(39.1 156.3)"/>
                <path id="Line_1533" d="M0 0L3 0" class="cls-4" data-name="Line 1533" transform="translate(40.3 150.4)"/>
                <path id="Line_1534" d="M0 1.2L2.8 0" class="cls-4" data-name="Line 1534" transform="translate(39.1 143.4)"/>
                <path id="Line_1535" d="M0 2.1L2.1 0" class="cls-4" data-name="Line 1535" transform="translate(35.8 137.5)"/>
                <path id="Line_1536" d="M0 2.7L1.2 0" class="cls-4" data-name="Line 1536" transform="translate(30.8 133.6)"/>
                <path id="Line_1537" d="M0 3L0 0" class="cls-4" data-name="Line 1537" transform="translate(25 132.2)"/>
                <path id="Line_1538" d="M1.2 2.7L0 0" class="cls-4" data-name="Line 1538" transform="translate(18 133.6)"/>
                <path id="Line_1539" d="M2.1 2.1L0 0" class="cls-4" data-name="Line 1539" transform="translate(12.1 137.5)"/>
                <path id="Line_1540" d="M2.8 1.2L0 0" class="cls-4" data-name="Line 1540" transform="translate(8.1 143.4)"/>
                <path id="Line_1541" d="M3 0L0 0" class="cls-4" data-name="Line 1541" transform="translate(6.7 150.4)"/>
                <path id="Line_1542" d="M2.8 0L0 1.1" class="cls-4" data-name="Line 1542" transform="translate(8.1 156.3)"/>
                <path id="Path_4645" d="M250.8 152.9a9.9 9.9 0 1 0-10.6-9.3 10 10 0 0 0 10.6 9.3z" class="cls-4" data-name="Path 4645"/>
                <path id="Path_4646" d="M250.5 147.5a4.56 4.56 0 1 0-4.85-4.25 4.56 4.56 0 0 0 4.85 4.25z" class="cls-3" data-name="Path 4646"/>
                <path id="Path_4647" d="M248.1 176l-5.8-19 23.1-7.8 5.7 18.8-5.9.6-3.7-12.2-11.8 4.3 3.5 11.7z" class="cls-4" data-name="Path 4647"/>
                <path id="Path_4648" d="M196.2 233.6a15.1 15.1 0 1 1 30.2 0H239a27.65 27.65 0 0 0-55.3 0z" class="cls-4" data-name="Path 4648"/>
                <path id="Path_4649" d="M202.7 151.1l23.2 52.2a34.9 34.9 0 0 0-16.5-3.6 32 32 0 0 0-15.2 5l-15.1-49.9" class="cls-4" data-name="Path 4649"/>
                <path id="Path_4650" d="M205.7 127.7l30 6.1a3.8 3.8 0 0 1 3.3 4.3l-.9 6.1a3.9 3.9 0 0 1-4.4 3.4l-27.2-2" class="cls-4" data-name="Path 4650"/>
                <circle id="Ellipse_101" cx="20.1" cy="20.1" r="20.1" class="cls-4" data-name="Ellipse 101" transform="translate(168.6 116.8)"/>
                <circle id="Ellipse_102" cx="12.6" cy="12.6" r="12.6" class="cls-3" data-name="Ellipse 102" transform="translate(176.1 124.3)"/>
                <path id="Rectangle_4744" d="M0 0H8.3V8.3H0z" class="cls-3" data-name="Rectangle 4744" transform="translate(421.3 134.7)"/>
                <path id="Rectangle_4745" d="M0 0H8.3V8.3H0z" class="cls-4" data-name="Rectangle 4745" transform="translate(433.2 134.7)"/>
                <path id="Rectangle_4746" d="M0 0H8.3V8.3H0z" class="cls-4" data-name="Rectangle 4746" transform="translate(421.3 146.6)"/>
                <path id="Rectangle_4747" d="M0 0H8.3V8.3H0z" class="cls-3" data-name="Rectangle 4747" transform="translate(433.2 146.6)"/>
                <path id="Line_1543" d="M0 33.2L0 0" class="cls-4" data-name="Line 1543" transform="translate(408.3 129.5)"/>
                <path id="Line_1544" d="M0 0L56 0" class="cls-4" data-name="Line 1544" transform="translate(398.5 129.5)"/>
                <path id="Path_4651" d="M453.3 162.7a1.2 1.2 0 0 0 1.2-1.1v-38.2a1.2 1.2 0 0 0-1.2-1.1h-53.6a1.2 1.2 0 0 0-1.2 1.1v38.2a1.2 1.2 0 0 0 1.2 1.1z" class="cls-4" data-name="Path 4651"/>
                <path id="Line_1545" d="M0 0L2.6 0" class="cls-3" data-name="Line 1545" transform="translate(401.1 125.9)"/>
                <path id="Line_1546" d="M0 0L2.6 0" class="cls-6" data-name="Line 1546" transform="translate(405.2 125.9)"/>
                <path id="Line_1547" d="M0 0L2.6 0" class="cls-3" data-name="Line 1547" transform="translate(409.4 125.9)"/>
                <path id="Path_4652" d="M316 46.7a5.7 5.7 0 0 0 11.4 0c0-3.1-2.6-5.2-5.7-5.7s-5.7-2.5-5.7-5.7a5.7 5.7 0 1 1 11.4 0" class="cls-6" data-name="Path 4652"/>
                <path id="Line_1548" d="M0 0L0 32.9" class="cls-6" data-name="Line 1548" transform="translate(321 24.2)"/>
                <path id="Path_4653" d="M304.7 57.6a24 24 0 0 1 28.6-38" class="cls-3" data-name="Path 4653"/>
                <path id="Path_4654" d="M326.1 23.1l-.5-1.5 7.1-2.1-2.6-6.9 1.4-.5 3.2 8.4z" class="cls-7" data-name="Path 4654"/>
                <path id="Path_4655" d="M338.7 23.7a24 24 0 0 1-28.5 38" class="cls-3" data-name="Path 4655"/>
                <path id="Path_4656" d="M317.4 58.2l.4 1.5-7.1 2.1 2.7 6.9-1.4.6-3.3-8.5z" class="cls-7" data-name="Path 4656"/>
                <ellipse id="Ellipse_103" cx="6.8" cy="6.2" class="cls-8" data-name="Ellipse 103" rx="6.8" ry="6.2" transform="translate(153.2 1)"/>
                <ellipse id="Ellipse_104" cx="6.8" cy="6.2" class="cls-8" data-name="Ellipse 104" rx="6.8" ry="6.2" transform="translate(171.6 17.6)"/>
                <path id="Path_4657" d="M148.9 23.8c0 3.4-3.1 6.2-6.8 6.2s-6.8-2.8-6.8-6.2 3.1-6.2 6.8-6.2 6.8 2.8 6.8 6.2z" class="cls-8" data-name="Path 4657"/>
                <path id="Line_1549" d="M0 0L0 33.7" class="cls-2" data-name="Line 1549" transform="translate(160.5 13.1)"/>
                <path id="Path_4658" d="M153.6 46.8V23.7h-5.4" class="cls-2" data-name="Path 4658"/>
                <path id="Path_4659" d="M172.1 23.7h-5.5v23.1" class="cls-2" data-name="Path 4659"/>
                <path id="Path_4660" d="M142.1 17.2a18.7 18.7 0 0 1 10.7-9.8" class="cls-9" data-name="Path 4660"/>
                <path id="Path_4661" d="M178.2 30.5c-2.9 6.5-9.9 11.1-18 11.1S145 37 142.1 30.5" class="cls-9" data-name="Path 4661"/>
                <path id="Path_4662" d="M167.4 7.4a18.7 18.7 0 0 1 10.7 9.8" class="cls-9" data-name="Path 4662"/>
            </g>
        </g>
    </g>
</svg>
