<svg xmlns="http://www.w3.org/2000/svg" id="icon-customer-references" width="110.1" height="80" viewBox="0 0 110.1 80">
    <defs>
        <clipPath id="clip-path">
            <path id="Rectangle_3860" fill="none" d="M0 0H110.1V80H0z" data-name="Rectangle 3860"/>
        </clipPath>
        <style>
            .cls-3,.cls-4{fill:none;stroke:#879196;stroke-width:2px}.cls-3{stroke-miterlimit:10}.cls-4{stroke-linejoin:round}
        </style>
    </defs>
    <g id="icon-customer-references-2" data-name="icon-customer-references" transform="translate(55.05 40)">
        <g id="Group_2564" clip-path="url(#clip-path)" data-name="Group 2564" transform="translate(-55.05 -40)">
            <path id="Path_3948" d="M12.1 15a14 14 0 1 1 14 14 14 14 0 0 1-14-14" class="cls-3" data-name="Path 3948"/>
            <path id="Path_3949" d="M40.1 56h-39c1.6-26.2 25-26 25-26a22.7 22.7 0 0 1 14 4" class="cls-3" data-name="Path 3949"/>
            <path id="Path_3950" d="M39.1 74v3.5l.2.2a6.4 6.4 0 0 0 3.9 1.3h62.2a5.2 5.2 0 0 0 3.2-1.1l.4-.4V74z" class="cls-4" data-name="Path 3950"/>
            <path id="Path_3951" d="M98.1 67.7a1.3 1.3 0 0 1-1.4 1.3H51.4a1.3 1.3 0 0 1-1.3-1.3V37.3a1.3 1.3 0 0 1 1.3-1.3h45.1c.7 0 1.6.3 1.6 1z" class="cls-4" data-name="Path 3951"/>
            <path id="Path_3952" d="M45.1 74V32.5a1.4 1.4 0 0 1 1.4-1.5h55.2a1.4 1.4 0 0 1 1.4 1.5V74" class="cls-4" data-name="Path 3952"/>
        </g>
    </g>
</svg>
