<svg xmlns="http://www.w3.org/2000/svg" id="logo-cognizant" width="332.9" height="64" viewBox="0 0 332.9 64">
    <defs>
        <clipPath id="clip-path">
            <path id="Rectangle_3032" fill="none" d="M0 0H332.9V64H0z" data-name="Rectangle 3032"/>
        </clipPath>
        <style>
            .cls-2{fill:#fff}.cls-4{fill:#f7981d;fill-rule:evenodd}
        </style>
    </defs>
    <g id="logo-cognizant-2" data-name="logo-cognizant" transform="translate(166.45 32)">
        <g id="logo-cognizant-3" data-name="logo-cognizant" transform="translate(-166.45 -32)">
            <path id="Rectangle_3031" d="M0 0H1.2V64H0z" class="cls-2" data-name="Rectangle 3031" transform="translate(108.8)"/>
            <g id="Group_1774" clip-path="url(#clip-path)" data-name="Group 1774">
                <path id="Path_2641" d="M23.8 26.2a7.9 7.9 0 0 0 .3 2.5 13 13 0 0 0 .9 2 1.3 1.3 0 0 1 .2.6 1.1 1.1 0 0 1-.5.8l-1.8 1.2-.7.2a1.2 1.2 0 0 1-.8-.4 6.4 6.4 0 0 1-1-1.3l-.9-1.6a10.4 10.4 0 0 1-8.2 3.9 7.7 7.7 0 0 1-5.6-2 7.2 7.2 0 0 1-2.1-5.4A7.2 7.2 0 0 1 6.1 21a10.2 10.2 0 0 1 6.9-2.2l3 .2 3.2.6v-2q0-3.2-1.3-4.5t-4.6-1.3a13 13 0 0 0-3 .4l-3 1-1 .4h-.5q-.6 0-.6-.9v-1.4a1.8 1.8 0 0 1 .2-1l.8-.6a18.4 18.4 0 0 1 3.5-1.2 17.2 17.2 0 0 1 4.4-.5q5 0 7.3 2.3t2.3 6.9v9.1m-11.3 4.2a9 9 0 0 0 2.9-.5 6.1 6.1 0 0 0 2.7-1.8 4.4 4.4 0 0 0 1-1.8 9.5 9.5 0 0 0 .3-2.4v-1.2l-2.6-.5-2.7-.1a6.5 6.5 0 0 0-4.2 1.1 3.9 3.9 0 0 0-1.4 3.2 4 4 0 0 0 1 3 4 4 0 0 0 2.9 1m22.5 3a1.8 1.8 0 0 1-1.1-.3 2.2 2.2 0 0 1-.6-1.1l-6.4-21.6a4.9 4.9 0 0 1-.2-1.1.6.6 0 0 1 .7-.7h2.7A1.7 1.7 0 0 1 31 9a2.4 2.4 0 0 1 .6 1.1l4.7 18.6L40.6 10a2 2 0 0 1 .5-1.1 1.8 1.8 0 0 1 1.1-.3h2.3a1.8 1.8 0 0 1 1.1.3 2 2 0 0 1 .5 1.1l4.4 18.8 5-18.8a2.3 2.3 0 0 1 .5-1.1 1.7 1.7 0 0 1 1.1-.3h2.6a.6.6 0 0 1 .7.7 2.3 2.3 0 0 1 0 .4l-.2.7-6.8 21.8a2.2 2.2 0 0 1-.6 1.1 1.7 1.7 0 0 1-1.1.3h-2.4a1.7 1.7 0 0 1-1.1-.3 2.1 2.1 0 0 1-.5-1.1l-4.4-18.1-4.3 18a2.1 2.1 0 0 1-.5 1.1 1.7 1.7 0 0 1-1.1.3zm36 .7a19.1 19.1 0 0 1-4.3-.5 12.5 12.5 0 0 1-3.2-1.1 1.6 1.6 0 0 1-1-1.6v-1.3q0-.9.6-.9h.5l.7.3a14.7 14.7 0 0 0 3.1 1 16.4 16.4 0 0 0 3.3.3 7.6 7.6 0 0 0 4.1-.9 3 3 0 0 0 1.4-2.7 2.7 2.7 0 0 0-.8-2 7.2 7.2 0 0 0-2.8-1.5L68.3 22a8.7 8.7 0 0 1-4.3-2.6 6.6 6.6 0 0 1-1.4-4.1 6.2 6.2 0 0 1 .8-3.1 7.5 7.5 0 0 1 2-2.3 8.9 8.9 0 0 1 2.9-1.4 12.5 12.5 0 0 1 3.5-.5h1.9l1.8.3 1.6.4 1.2.5.8.7a1.6 1.6 0 0 1 .2.9v1.3q0 .9-.6.9l-1.1-.3a13.1 13.1 0 0 0-5.4-1.1 7.4 7.4 0 0 0-3.7.8 2.7 2.7 0 0 0-1.2 2.6 2.7 2.7 0 0 0 .8 2 8.3 8.3 0 0 0 3.1 1.5l4 1.3a8.6 8.6 0 0 1 4.3 2.7 6.3 6.3 0 0 1 1.3 3.9 7.1 7.1 0 0 1-.7 3.3 7.4 7.4 0 0 1-2 2.5 9.2 9.2 0 0 1-3.1 1.6 13.9 13.9 0 0 1-4 .5" class="cls-2" data-name="Path 2641"/>
                <path id="Path_2642" d="M76.2 48.1C67 54.9 53.6 58.5 42.1 58.5A61.8 61.8 0 0 1 .4 42.6c-.9-.8-.1-1.8.9-1.2a84 84 0 0 0 41.8 11.1A83 83 0 0 0 74.9 46c1.6-.7 2.9 1 1.3 2.2" class="cls-4" data-name="Path 2642"/>
                <path id="Path_2643" d="M80.1 43.7c-1.2-1.5-7.8-.7-10.8-.4-.9.1-1-.7-.2-1.2 5.3-3.7 13.9-2.6 15-1.4s-.3 9.9-5.2 14.1c-.8.6-1.5.3-1.1-.5 1.1-2.8 3.6-9 2.4-10.5" class="cls-4" data-name="Path 2643"/>
                <path id="Path_2644" d="M249 38.4l11.6-11.5H249v-5h20v5.4l-12 11.6h12v5h-20zm-8.5-24h6v5.5h-6zm0 7.5h6v22.5h-6zM166.2 33a11.5 11.5 0 1 1 3.4 8.2 11.5 11.5 0 0 1-3.4-8.2m17.2 0a5.7 5.7 0 0 0-5.6-5.8 5.8 5.8 0 1 0 0 11.6 5.7 5.7 0 0 0 5.6-5.8zM217 22h6v2.5a7.6 7.6 0 0 1 6.1-3c5.2 0 8.4 3.4 8.4 9.2v13.7h-6V31.6c0-3-1.4-4.7-4.2-4.7s-4.3 1.6-4.3 5.3v12.2h-6zm52.7 11.2c0-8 5.7-11.7 10.6-11.7a8.6 8.6 0 0 1 6.5 2.7v-2.3h6v22.5h-6v-2.5a8.4 8.4 0 0 1-6.6 3c-4.6 0-10.5-3.8-10.5-11.7m17.2-.2a5.8 5.8 0 0 0-5.7-6 6 6 0 1 0 0 12 5.8 5.8 0 0 0 5.7-6zm8.5-11h6v2.5a7.6 7.6 0 0 1 6.1-3c5.2 0 8.4 3.4 8.4 9.2v13.7h-6V31.6c0-3-1.4-4.7-4.2-4.7s-4.3 1.6-4.3 5.3v12.2h-6zm-46.9 22v-5l11.8-11.4H249v-5.7h20v5.4l-11.8 11.4m-97.5-5.9v.2a9.2 9.2 0 0 1-8.5 5.6 9.6 9.6 0 0 1-9.6-9.7 9.6 9.6 0 0 1 9.8-9.8 8.8 8.8 0 0 1 8.2 5v.2l5.5-3.5v-.2a15.9 15.9 0 0 0-29.6 8.2c0 9.2 6.7 15.9 15.9 15.9a15.7 15.7 0 0 0 14.1-8.8v-.2zm31.2.2c0-7.9 5.8-11.6 10.9-11.6a9.3 9.3 0 0 1 6.8 2.8v-2.3h6v21.7c0 6.3-4.2 11.4-12.2 11.4-6 0-10.4-2.9-12.3-6.4l5.7-3a7 7 0 0 0 6.6 3.8 5.5 5.5 0 0 0 5.7-5.5v-2.3s-3.5 2.9-6.4 2.9c-4.7 0-10.8-3.7-10.8-11.6m17.7 0a5.8 5.8 0 0 0-5.7-6 6 6 0 1 0 0 12 5.8 5.8 0 0 0 5.7-6m122.3-5.5v-5.5h-4v-7.5h-6v7.5h-4v5.5h4v7.2c0 7.3 2.4 9.8 9.9 9.8h.1v-5.7c-3.6 0-4-.5-4-4v-7.3zm1.6-10.5a1.6 1.6 0 0 1-2.2 0 1.5 1.5 0 0 1-.5-1.1 1.6 1.6 0 1 1 2.7 1.1zm-2.1-2a1.3 1.3 0 1 0 1.476-.382 1.3 1.3 0 0 0-1.476.382zm.9.5c.2-.3.3-.3.5-.2a.375.375 0 0 1 .1.7h-.2l.3.2c.1.1.1.2-.1.3l-.3-.4c-.1 0-.2-.1-.3.2h.1v.5h-1v-1.3zm.3 0h-.8v.5h.7l.2-.2a.3.3 0 0 0-.1-.3" class="cls-2" data-name="Path 2644"/>
            </g>
        </g>
    </g>
</svg>
