<svg xmlns="http://www.w3.org/2000/svg" id="logo-deloitte" width="325" height="64" viewBox="0 0 325 64">
    <defs>
        <clipPath id="clip-path">
            <path id="Rectangle_7965" fill="none" d="M0 0H325V64H0z" data-name="Rectangle 7965"/>
        </clipPath>
        <style>
            .cls-2{fill:#fff}.cls-5{fill:#f7981d;fill-rule:evenodd}
        </style>
    </defs>
    <g id="logo-deloitte-2" data-name="logo-deloitte" transform="translate(162.5 32)">
        <g id="Group_5487" data-name="Group 5487" transform="translate(-162.5 -32)">
            <path id="Rectangle_7961" d="M0 0H8V5.38H0z" class="cls-2" data-name="Rectangle 7961" transform="translate(242.5 15.4)"/>
            <g id="Group_5486" clip-path="url(#clip-path)" data-name="Group 5486">
                <path id="Path_7190" fill="#85bc22" d="M315.7 43.5a4.6 4.6 0 1 1 4.6 4.6 4.6 4.6 0 0 1-4.6-4.6" data-name="Path 7190"/>
                <path id="Path_7191" d="M176.9 30.9q0 8-4.3 12.3t-12.1 4.3h-10.2v-32h10.8q7.5 0 11.6 3.9t4.1 11.4m-8.8.3q0-4.4-1.7-6.5a6.2 6.2 0 0 0-5.2-2.1h-2.5v18h1.9q3.8 0 5.6-2.3t1.8-7" class="cls-2" data-name="Path 7191"/>
                <path id="Rectangle_7962" d="M0 0H8V32.14H0z" class="cls-2" data-name="Rectangle 7962" transform="translate(204.9 15.4)"/>
                <path id="Rectangle_7963" d="M0 0H1.2V64H0z" class="cls-2" data-name="Rectangle 7963" transform="translate(117.1)"/>
                <path id="Path_7192" d="M239.3 35.6q0 5.9-3.1 9.1t-8.6 3.3a11 11 0 0 1-8.4-3.3q-3.1-3.4-3.1-9.1t3.1-9.1q3.1-3.2 8.6-3.2a12.1 12.1 0 0 1 6.1 1.5 10.1 10.1 0 0 1 4.1 4.3 14.1 14.1 0 0 1 1.4 6.5m-15.1 0a10.8 10.8 0 0 0 .8 4.7 2.8 2.8 0 0 0 2.7 1.6 2.7 2.7 0 0 0 2.6-1.6 11.2 11.2 0 0 0 .8-4.7 10.6 10.6 0 0 0-.8-4.6 3.1 3.1 0 0 0-5.3 0 10.4 10.4 0 0 0-.8 4.6" class="cls-2" data-name="Path 7192"/>
                <path id="Rectangle_7964" d="M0 0H8V23.87H0z" class="cls-2" data-name="Rectangle 7964" transform="translate(242.5 23.7)"/>
                <path id="Path_7193" d="M266.9 41.5a11.7 11.7 0 0 0 3.9-.8v6a15.7 15.7 0 0 1-3.1 1 17 17 0 0 1-3.4.3q-4.1 0-5.8-2t-1.8-6.2v-9.9h-2.8v-6.2h2.8v-6.1l8.1-1.4v7.5h5.1v6.2h-5.1v9.3q0 2.3 2.2 2.3" class="cls-2" data-name="Path 7193"/>
                <path id="Path_7194" d="M285.5 41.5a11.7 11.7 0 0 0 3.9-.8v6a15.7 15.7 0 0 1-3.1 1 17 17 0 0 1-3.4.3q-4.1 0-5.8-2t-1.8-6.2v-9.9h-2.8v-6.2h2.8v-6.2l8.1-1.3v7.5h5.1v6.2h-5.1v9.3q0 2.3 2.2 2.3" class="cls-2" data-name="Path 7194"/>
                <path id="Path_7195" d="M310.9 26.1q-2.9-2.8-8.1-2.8a11.7 11.7 0 0 0-8.5 3.2q-3 3.2-3 9.3t3.2 9q3.2 3.2 9 3.2a26.5 26.5 0 0 0 4.8-.4 13.9 13.9 0 0 0 3.9-1.4l-1.2-5.4-2.6.8a17.3 17.3 0 0 1-3.9.4 5.5 5.5 0 0 1-3.7-1.1 4.1 4.1 0 0 1-1.4-3.1h14.4v-3.6q0-5.3-2.9-8.1m-11.3 6.6a4.4 4.4 0 0 1 1.1-2.9 3.3 3.3 0 0 1 2.4-.9 3.1 3.1 0 0 1 2.5 1 4.1 4.1 0 0 1 1 2.8z" class="cls-2" data-name="Path 7195"/>
                <path id="Path_7196" d="M198.9 26.1q-2.9-2.8-8.1-2.8a11.7 11.7 0 0 0-8.5 3.2q-3 3.2-3 9.3t3.2 9q3.2 3.2 9 3.2a26.5 26.5 0 0 0 4.8-.4 13.9 13.9 0 0 0 3.9-1.4l-1.2-5.3-2.6.8a17.3 17.3 0 0 1-3.9.4 5.5 5.5 0 0 1-3.7-1.1 4.1 4.1 0 0 1-1.4-3.1h14.4v-3.7q0-5.3-2.9-8.1m-11.3 6.6a4.4 4.4 0 0 1 1.1-2.9 3.3 3.3 0 0 1 2.4-.9 3.1 3.1 0 0 1 2.5 1 4.2 4.2 0 0 1 1 2.8z" class="cls-2" data-name="Path 7196"/>
                <path id="Path_7197" d="M23.8 26.2a7.9 7.9 0 0 0 .3 2.5 13 13 0 0 0 .9 2 1.3 1.3 0 0 1 .2.6 1.1 1.1 0 0 1-.5.8l-1.8 1.2-.7.2a1.2 1.2 0 0 1-.8-.4 6.4 6.4 0 0 1-1-1.3l-.9-1.6a10.4 10.4 0 0 1-8.2 3.9 7.7 7.7 0 0 1-5.6-2 7.2 7.2 0 0 1-2.1-5.4A7.2 7.2 0 0 1 6.1 21a10.2 10.2 0 0 1 6.9-2.2l3 .2 3.2.6v-2q0-3.2-1.3-4.5t-4.6-1.3a13 13 0 0 0-3 .4l-3 1-1 .4h-.5q-.6 0-.6-.9v-1.4a1.8 1.8 0 0 1 .2-1 2 2 0 0 1 .8-.6 18.4 18.4 0 0 1 3.5-1.2 17.2 17.2 0 0 1 4.4-.5q5 0 7.3 2.3t2.3 6.9v9.1m-11.3 4.2a9 9 0 0 0 2.9-.5 6.1 6.1 0 0 0 2.7-1.8 4.4 4.4 0 0 0 1-1.8 9.5 9.5 0 0 0 .3-2.4v-1.2l-2.6-.5-2.6-.2a6.5 6.5 0 0 0-4.2 1.1 4 4 0 0 0-1.4 3.2 4 4 0 0 0 1 3 4 4 0 0 0 2.9 1m22.5 3a1.7 1.7 0 0 1-1.1-.3 2.2 2.2 0 0 1-.6-1.1l-6.5-21.5a5 5 0 0 1-.2-1.1.6.6 0 0 1 .7-.7h2.7A1.7 1.7 0 0 1 31 9a2.4 2.4 0 0 1 .6 1.1l4.7 18.6L40.6 10a2 2 0 0 1 .5-1.1 1.9 1.9 0 0 1 1.1-.3h2.3a1.9 1.9 0 0 1 1.1.3 2 2 0 0 1 .5 1.1l4.4 18.8 5-18.8a2.3 2.3 0 0 1 .5-1.1 1.7 1.7 0 0 1 1.1-.3h2.6a.6.6 0 0 1 .7.7 2.4 2.4 0 0 1 0 .4l-.2.7-6.8 21.8a2.2 2.2 0 0 1-.6 1.1 1.7 1.7 0 0 1-1.1.3h-2.4a1.7 1.7 0 0 1-1.1-.3 2.1 2.1 0 0 1-.5-1.1l-4.4-18.1-4.3 18a2.1 2.1 0 0 1-.5 1.1 1.7 1.7 0 0 1-1.1.3zm36 .7a19.1 19.1 0 0 1-4.3-.5 12.5 12.5 0 0 1-3.2-1.1 1.6 1.6 0 0 1-1-1.6v-1.2q0-.9.6-.9h.5l.7.3a14.8 14.8 0 0 0 3.1 1 16.5 16.5 0 0 0 3.3.3 7.6 7.6 0 0 0 4.1-.9 3 3 0 0 0 1.4-2.6 2.7 2.7 0 0 0-.8-2 7.2 7.2 0 0 0-2.8-1.5l-4.1-1.3a8.7 8.7 0 0 1-4.4-2.7 6.6 6.6 0 0 1-1.4-4.1 6.2 6.2 0 0 1 .8-3.1 7.6 7.6 0 0 1 2-2.3 8.9 8.9 0 0 1 2.9-1.4 12.5 12.5 0 0 1 3.5-.5h1.9l1.8.3 1.6.4 1.2.5.8.7a1.6 1.6 0 0 1 .2.9v1.3q0 .9-.6.9l-1.1-.3a13 13 0 0 0-5.4-1.1 7.4 7.4 0 0 0-3.7.8 2.7 2.7 0 0 0-1.2 2.6 2.7 2.7 0 0 0 .8 2 8.3 8.3 0 0 0 3.1 1.5l4 1.3a8.6 8.6 0 0 1 4.3 2.7 6.3 6.3 0 0 1 1.3 3.9 7.1 7.1 0 0 1-.7 3.3 7.4 7.4 0 0 1-2 2.5 9.2 9.2 0 0 1-3.1 1.6 13.9 13.9 0 0 1-4 .5" class="cls-2" data-name="Path 7197"/>
                <path id="Path_7198" d="M76.2 48.1C67 54.9 53.6 58.5 42.1 58.5A61.8 61.8 0 0 1 .4 42.6c-.9-.8-.1-1.8.9-1.2a84 84 0 0 0 41.8 11.1A83 83 0 0 0 74.9 46c1.6-.7 2.9 1 1.3 2.2" class="cls-5" data-name="Path 7198"/>
                <path id="Path_7199" d="M80.1 43.7c-1.2-1.5-7.8-.7-10.8-.4-.9.1-1-.7-.2-1.2 5.3-3.7 13.9-2.6 15-1.4s-.3 9.9-5.2 14.1c-.8.6-1.5.3-1.1-.5 1.1-2.8 3.6-9 2.4-10.5" class="cls-5" data-name="Path 7199"/>
            </g>
        </g>
    </g>
</svg>
